<mxfile host="app.diagrams.net" agent="Mozilla/5.0 (Windows NT 10.0; Win64; x64) AppleWebKit/537.36 (KHTML, like Gecko) Chrome/131.0.0.0 Safari/537.36" version="25.0.3">
  <diagram name="Page-1" id="e7e014a7-5840-1c2e-5031-d8a46d1fe8dd">
    <mxGraphModel dx="3438" dy="2230" grid="1" gridSize="10" guides="1" tooltips="1" connect="1" arrows="1" fold="1" page="1" pageScale="1" pageWidth="1169" pageHeight="826" background="none" math="0" shadow="0">
      <root>
        <mxCell id="0" />
        <mxCell id="1" parent="0" />
        <mxCell id="FQut2yndU6wkRieja00U-1" value="&lt;p style=&quot;margin:0px;margin-top:4px;text-align:center;&quot;&gt;&lt;b&gt;UIManager&lt;/b&gt;&lt;/p&gt;&lt;hr size=&quot;1&quot; style=&quot;border-style:solid;&quot;&gt;&lt;p style=&quot;margin:0px;margin-left:4px;&quot;&gt;l+eftSideMenu: GameObject&lt;/p&gt;&lt;p style=&quot;margin:0px;margin-left:4px;&quot;&gt;l+ogo: GameObject&lt;/p&gt;&lt;p style=&quot;margin:0px;margin-left:4px;&quot;&gt;+scrollView: GameObject&lt;/p&gt;&lt;p style=&quot;margin:0px;margin-left:4px;&quot;&gt;+TreeContrainer: GameObject&lt;/p&gt;&lt;p style=&quot;margin:0px;margin-left:4px;&quot;&gt;+TreeContent: GameObject&lt;/p&gt;&lt;p style=&quot;margin:0px;margin-left:4px;&quot;&gt;+ChartPrefabs: GameObject&lt;/p&gt;&lt;p style=&quot;margin:0px;margin-left:4px;&quot;&gt;+boardRoots: GameObject&lt;/p&gt;&lt;p style=&quot;margin:0px;margin-left:4px;&quot;&gt;+boardDictionary: SerializedDictionary&lt;/p&gt;&lt;p style=&quot;margin:0px;margin-left:4px;&quot;&gt;&lt;br&gt;&lt;/p&gt;&lt;p style=&quot;margin:0px;margin-left:4px;&quot;&gt;# ChageMainLogo(Sprite sprite): void&lt;/p&gt;&lt;p style=&quot;margin:0px;margin-left:4px;&quot;&gt;# SetScrollViewOption(): void&lt;/p&gt;&lt;p style=&quot;margin:0px;margin-left:4px;&quot;&gt;# GetBoards(): void&lt;/p&gt;&lt;p style=&quot;margin:0px;margin-left:4px;&quot;&gt;&lt;br&gt;&lt;/p&gt;" style="verticalAlign=top;align=left;overflow=fill;html=1;whiteSpace=wrap;" vertex="1" parent="1">
          <mxGeometry x="20" y="-390" width="260" height="230" as="geometry" />
        </mxCell>
        <mxCell id="FQut2yndU6wkRieja00U-3" value="&lt;p style=&quot;margin:0px;margin-top:4px;text-align:center;&quot;&gt;&lt;b&gt;Chart&lt;/b&gt;&lt;/p&gt;&lt;hr size=&quot;1&quot; style=&quot;border-style:solid;&quot;&gt;&lt;p style=&quot;margin:0px;margin-left:4px;&quot;&gt;+ rows: int&lt;/p&gt;&lt;p style=&quot;margin:0px;margin-left:4px;&quot;&gt;+ cols: int&lt;/p&gt;&lt;p style=&quot;margin:0px;margin-left:4px;&quot;&gt;+ cellWidth: float&lt;/p&gt;&lt;p style=&quot;margin:0px;margin-left:4px;&quot;&gt;+cellHeight: float&lt;/p&gt;&lt;hr size=&quot;1&quot; style=&quot;border-style:solid;&quot;&gt;&lt;p style=&quot;margin:0px;margin-left:4px;&quot;&gt;+ OnPopulateMesh(VertexHelper): void&lt;/p&gt;&lt;p style=&quot;margin:0px;margin-left:4px;&quot;&gt;+&amp;nbsp;DrawPointsAndLine(List&amp;lt;Vector2&amp;gt; pointList, VertexHelper vh, Color color) : void&lt;/p&gt;&lt;p style=&quot;margin:0px;margin-left:4px;&quot;&gt;+&amp;nbsp;DrawGrid(VertexHelper vh): void&lt;/p&gt;&lt;p style=&quot;margin:0px;margin-left:4px;&quot;&gt;+&amp;nbsp;DrawLine(VertexHelper vh, Vector2 start, Vector2 end, Color32 color) : void&lt;/p&gt;&lt;p style=&quot;margin:0px;margin-left:4px;&quot;&gt;+&amp;nbsp;private void DrawPoint(VertexHelper vh, Vector2 position, Color color) : void&lt;/p&gt;&lt;p style=&quot;margin:0px;margin-left:4px;&quot;&gt;+&amp;nbsp;CreatePoints(): List&amp;lt;Vector2&amp;gt;&lt;/p&gt;&lt;p style=&quot;margin:0px;margin-left:4px;&quot;&gt;+&amp;nbsp;SetText(): void&lt;/p&gt;" style="verticalAlign=top;align=left;overflow=fill;html=1;whiteSpace=wrap;" vertex="1" parent="1">
          <mxGeometry x="-690" y="250" width="440" height="320" as="geometry" />
        </mxCell>
        <mxCell id="FQut2yndU6wkRieja00U-4" value="&lt;p style=&quot;margin:0px;margin-top:4px;text-align:center;&quot;&gt;&lt;b&gt;Data&lt;/b&gt;&lt;/p&gt;&lt;hr size=&quot;1&quot; style=&quot;border-style:solid;&quot;&gt;&lt;p style=&quot;margin:0px;margin-left:4px;&quot;&gt;&lt;br&gt;&lt;/p&gt;" style="verticalAlign=top;align=left;overflow=fill;html=1;whiteSpace=wrap;" vertex="1" parent="1">
          <mxGeometry x="-290" y="-413" width="160" height="93" as="geometry" />
        </mxCell>
        <mxCell id="FQut2yndU6wkRieja00U-5" value="&lt;p style=&quot;margin:0px;margin-top:4px;text-align:center;&quot;&gt;&lt;b&gt;TreeContainer&lt;/b&gt;&lt;/p&gt;&lt;hr size=&quot;1&quot; style=&quot;border-style:solid;&quot;&gt;&lt;p style=&quot;margin:0px;margin-left:4px;&quot;&gt;+ leftImg:&amp;nbsp; Image&lt;/p&gt;&lt;p style=&quot;margin:0px;margin-left:4px;&quot;&gt;+ rightImg: Image&lt;/p&gt;&lt;p style=&quot;margin:0px;margin-left:4px;&quot;&gt;+ btn: Button&lt;/p&gt;&lt;p style=&quot;margin:0px;margin-left:4px;&quot;&gt;+ text :TMP_Text&lt;/p&gt;&lt;p style=&quot;margin:0px;margin-left:4px;&quot;&gt;+ contentRootlayout : VerticalLayoutGroup&lt;/p&gt;&lt;p style=&quot;margin:0px;margin-left:4px;&quot;&gt;# padding: int&lt;/p&gt;&lt;p style=&quot;margin:0px;margin-left:4px;&quot;&gt;+ foldSpeed: float&lt;/p&gt;&lt;p style=&quot;margin:0px;margin-left:4px;&quot;&gt;+ fold: bool&lt;/p&gt;&lt;p style=&quot;margin:0px;margin-left:4px;&quot;&gt;# verticalLayout: VerticalLayoutGroup&lt;/p&gt;&lt;hr size=&quot;1&quot; style=&quot;border-style:solid;&quot;&gt;&lt;p style=&quot;margin:0px;margin-left:4px;&quot;&gt;+ EnableButtonEvent: void&lt;/p&gt;&lt;p style=&quot;margin:0px;margin-left:4px;&quot;&gt;+ ContentRootPadding(int padding): void&lt;/p&gt;&lt;p style=&quot;margin:0px;margin-left:4px;&quot;&gt;+ GetContentRoot: void&lt;/p&gt;&lt;p style=&quot;margin:0px;margin-left:4px;&quot;&gt;+ SetImage(bool left, Sprite sprite): void&lt;/p&gt;&lt;p style=&quot;margin:0px;margin-left:4px;&quot;&gt;+ SetTextMsg(string msg): vpod&lt;/p&gt;&lt;p style=&quot;margin:0px;margin-left:4px;&quot;&gt;# SetGameObjectName(): void&lt;/p&gt;&lt;p style=&quot;margin:0px;margin-left:4px;&quot;&gt;+ EnableImage(bool left, bool on): void&lt;/p&gt;&lt;p style=&quot;margin:0px;margin-left:4px;&quot;&gt;# Fold(): void&lt;/p&gt;&lt;p style=&quot;margin:0px;margin-left:4px;&quot;&gt;# CollapseAll(bool fold): IEnumrator&lt;/p&gt;&lt;p style=&quot;margin:0px;margin-left:4px;&quot;&gt;&lt;br&gt;&lt;/p&gt;" style="verticalAlign=top;align=left;overflow=fill;html=1;whiteSpace=wrap;" vertex="1" parent="1">
          <mxGeometry x="620" y="340" width="450" height="420" as="geometry" />
        </mxCell>
        <mxCell id="FQut2yndU6wkRieja00U-6" value="&lt;p style=&quot;margin:0px;margin-top:4px;text-align:center;&quot;&gt;&lt;b&gt;ScrollView&lt;/b&gt;&lt;/p&gt;" style="verticalAlign=top;align=left;overflow=fill;html=1;whiteSpace=wrap;" vertex="1" parent="1">
          <mxGeometry x="735" y="200" width="220" height="50" as="geometry" />
        </mxCell>
        <mxCell id="FQut2yndU6wkRieja00U-8" value="&lt;p style=&quot;margin:0px;margin-top:4px;text-align:center;&quot;&gt;&lt;b&gt;TextView&lt;/b&gt;&lt;/p&gt;&lt;hr size=&quot;1&quot; style=&quot;border-style:solid;&quot;&gt;&lt;div style=&quot;height:2px;&quot;&gt;&lt;span style=&quot;white-space: pre;&quot;&gt;&#x9;&lt;/span&gt;TMP_Pro&lt;/div&gt;" style="verticalAlign=top;align=left;overflow=fill;html=1;whiteSpace=wrap;" vertex="1" parent="1">
          <mxGeometry x="-490" y="630" width="140" height="60" as="geometry" />
        </mxCell>
        <mxCell id="FQut2yndU6wkRieja00U-9" value="&lt;p style=&quot;margin:0px;margin-top:4px;text-align:center;&quot;&gt;Graphic&lt;/p&gt;&lt;hr size=&quot;1&quot; style=&quot;border-style:solid;&quot;&gt;&lt;div style=&quot;height:2px;&quot;&gt;&lt;span style=&quot;white-space: pre;&quot;&gt;&#x9;&lt;/span&gt;VertextHelper&lt;br&gt;&lt;/div&gt;" style="verticalAlign=top;align=left;overflow=fill;html=1;whiteSpace=wrap;" vertex="1" parent="1">
          <mxGeometry x="-690" y="630" width="140" height="60" as="geometry" />
        </mxCell>
        <mxCell id="FQut2yndU6wkRieja00U-11" value="Extends" style="endArrow=block;endSize=16;endFill=0;html=1;rounded=0;exitX=0.5;exitY=1;exitDx=0;exitDy=0;" edge="1" parent="1" source="FQut2yndU6wkRieja00U-3" target="FQut2yndU6wkRieja00U-9">
          <mxGeometry width="160" relative="1" as="geometry">
            <mxPoint x="70" y="330" as="sourcePoint" />
            <mxPoint x="230" y="330" as="targetPoint" />
          </mxGeometry>
        </mxCell>
        <mxCell id="FQut2yndU6wkRieja00U-12" value="" style="endArrow=open;endFill=1;endSize=12;html=1;rounded=0;exitX=0.5;exitY=1;exitDx=0;exitDy=0;entryX=0.5;entryY=0;entryDx=0;entryDy=0;" edge="1" parent="1" source="FQut2yndU6wkRieja00U-3" target="FQut2yndU6wkRieja00U-8">
          <mxGeometry width="160" relative="1" as="geometry">
            <mxPoint x="70" y="330" as="sourcePoint" />
            <mxPoint x="230" y="330" as="targetPoint" />
          </mxGeometry>
        </mxCell>
        <mxCell id="FQut2yndU6wkRieja00U-13" value="" style="endArrow=open;endFill=1;endSize=12;html=1;rounded=0;exitX=0;exitY=0.25;exitDx=0;exitDy=0;entryX=1;entryY=0.5;entryDx=0;entryDy=0;" edge="1" parent="1" source="FQut2yndU6wkRieja00U-1" target="FQut2yndU6wkRieja00U-4">
          <mxGeometry width="160" relative="1" as="geometry">
            <mxPoint x="470" y="300" as="sourcePoint" />
            <mxPoint x="630" y="300" as="targetPoint" />
          </mxGeometry>
        </mxCell>
        <mxCell id="FQut2yndU6wkRieja00U-17" value="" style="shape=image;verticalLabelPosition=bottom;labelBackgroundColor=default;verticalAlign=top;aspect=fixed;imageAspect=0;image=data:image/png,iVBORw0KGgoAAAANSUhEUgAAAl0AAAB1CAYAAAB04lRZAAAAAXNSR0IArs4c6QAAAARnQU1BAACxjwv8YQUAAAAJcEhZcwAADsMAAA7DAcdvqGQAAEhbSURBVHhe7Z0HnBRF9sffkpa0ZDAchvubRfAMGFAUPQyo6KEYEBOgYgbPyJk5cyCYDlQUPUVFD9MhhlMBs6iIZxYPIyKyLLssy7KB+b9fddVsb0/n7umZWer7oeiqmtme7urqqldVr94rSjGk0Wg0Go1Go8kqzeRRo9FoNBqNRpNFtNCl0Wg0Go1GkwBa6NJoNBqNRqNJAC10aTQajUaj0SSAFro0Go1Go9FoEkALXRqNRqPRaDQJoIUujUaj0Wg0mgTQQpdGo9FoNBpNAmihS6PRaDQajSYBtNCl0Wg0Go1GkwBa6NJoNBqNRqNJAC10aTQajUaj0SSAFro0Go1Go9FoEkALXRqNRqPRaDQJoIUujUaj0Wg0mgTQQpdGo9FoNBpNAmihS6PRaDQajSYBtNCl0Wg0Go1GkwBa6NJoNBqNRqNJAC10aTQajUaj0SSAFro0Go1Go9FoEkALXRqNRqPRaDQJoIUujUaj0Wg0mgTQQpdGo9FoNBpNAmihS6PRaDQajSYBtNCl0Wg0Go1GkwBa6NJoNBqNRqNJgLwTuqqqqqimpkamNBqNRqPRaJoGeSV0dezYkZYvX04PPfQQzZ07V+ZqNBqNRqPRFD5FKUbGc8qXX35JdXV11Lt3b5EuKioi20ur/Z4oVUeLf5TpELTgsCWHxSKlAX/sSdScRfDFP24tc3JNPjwdlMXPHKpFKnfEU2O33lxGIhLl3YuL/9uMR4xFMpEHRC8T1LXc1/mtuFyJy/W7PHjGqK9RyzWOUsV1/PgrUU2tzChw4ijX/GErDpAT/idSYShuRbTZxhxplUzflzdC19SpU2nkyJHUsmVLkXYUulaeRLT+MSrqLtMheJrDMRzyqM3OOWv4JWzbhsuke15UByYfno4qi1xfy7McjuIQ7TpSv8tIDER5/+IgznuJgytuILpxkkyEIj/qmirXXD9fgGuJeh0o1fc57CVS4cinMonK+y8T7bEr0dcsiW6/t8wsaNZzwDsT/r1JtyXdEur7IHTlAxMnTkzV19fLVCq16aabylhjhg8fnuJCSr33nswIA24bYdQomRGOOIovrnMsXbpUpkLCZSrCg+Gvp7KyMqb7SaVmzZKJkMR1HQjr1smMEAwePDjytajrOOccmRGGdd8Yzzci4l5UXQkJzrF8+XKZCoH8/Z49e8qMcKhyjcqSj6KVR2rSpPS1RLkelOuKFStkKgTquUa5F2blypXiWiJR/blxHZVzZEYIJkyI5yHHUCZ9+vRJ9evXT6bCgWcbqVxXPyXuI/0Ol0+RHwQn8vNlcI6ysjKZCgcug2iBOIZCPtsfYrgfv+SNTteuu+5KP/+MpRwDFiJkzJ69wg5dXn1VHI7Ef9OmibjG4JU3+L/BHIpyPbPzCB19tIzmnDVUXCyjOeCll2SEjqV775XRMFRsS1Ony3hU1IhwRQ7qifzNg4YNFMfofEijR8toSP64m4zU/iQjwbhl7BD+f7HoPkBOXj9Zrvsc1U8cc87qXsZx7SDjGIa//pWuklH65z9lJAKpAl5frHySqPrYhncXx5qzuF2YaqQLmIEDx9Fzz4V4b1T71Z1oCyOWCHkjdO2zzz7c+Bmt37Jly+i6664TcTtq6zgs25VeeUVmBOHgg6lq7lx6QSbp9NNlZMOF2ybBIccZR5rFIaeC16nymDsefNA4LltWKY51XOdywSDuc157bTXHsChOdBa3k2E56xIZiYNcCF7qt2JYBli3TkaoL913n4xGodUUovIQSnM33USXE/5uG5HMieBlV64rh8lI7oi0nHfjjeJwPf5bvJjolFNEOjAVd4lD2apziUpbiXjBsfpRFrhOyHxv0oLXPTKjcDnySKLZswO8Nyv+zzjG0JYEJW+ErubNm9PMmTNp4sSJ9Nlnn9HVV18tP8mk1SZELZovpEMOkRl+eZKlfdC3r3GsqtKzXcwVZ0mpC7T/mKg/H7F7NKeCV24ZNQr/TxDxIUOIpKphojz2mHFU1XXNGug+GvFA1DbMIMeKarCSELxiFLhA69b4v1zEY6GDnC7DRp8g/O1vMtJAooKXTbnuvD//t/4JI1GoXHEF0e9SWWcrKFszkycbxyDUXEDjbyPqss3fZUaBUfEAjzBOdn5vkF9zHr8KE2VG4WBdDTnsMKI5c3y8Nyv24P+WGPdeaQyqkySvTEaUlJTQhRdeSAMH+l86eNqYAPDHCSztf/edTDBt2hjH4cON4wZK1y4T6diRMtF6F+O4WynRvHk5Fbz+8x8ZyRkXif9nYeYvB5x0EtH/TJty2rY1joEH7eWbEXVaJhMxoxrzbApeMQtcilWrjOMbbxAdf7wRj0QxD+DK/ygTPrj0UhpLK+iRR2TaRCKCl1O5tugjIznCKriufVNGfHLxxcaxWzfjCKCuMnasTATjmluJVq6UifSGhwKggoXMmjO83xt8XssD73JjdrBQeOYZ/I/ttg0ceqiH4FW6H/+3oKFMWOZQevRJkVdCV1C+/Zbo2GNlwgs1RfB/clpRUV1NNGOGTGx43HCDjBQPlRGmw9dcLscQ7ccVNEeC13vvER10kEzkAf36cbF0kIkEuMtY1aA/WvrwtWtDqqe02EhGsoBqwFY0bgBjIUsCl5kBA4hmzpSJKJTIkYvf2a7bbqPJ1JVOPlmmLSjBy9pkxUIC5RoaCK7FDxjxdnOJ1qCjDMAdd/A5LLOYm2xiHC+/3DiGYG31UVxuBdJllk9ggYuFTL/PF9+rvYJHIpkzr/lMz54yYgKC14sv2nRbpQfwS8UCvLVMli+XkWQoaKFr6y7GDNV0PwrCUIZZZjPaV1rS+dTDJ8iVV8qImVbbGsfV3LtD8Hr99cQFrz33lJEcYDd7+vbbXBxQrUqICy7g9n2FTJgwlsWMqXRf1JfKSJYRDdnPfNExSghZEgw2Y9kwwGR6MIof8jfbNcyfzhQEryVLiLbbTmbEgd9yLTOpHSRNiVjfJ2qDtc4AqClLuxFSRQXRLbfIhA9WN56CbLsZTLcUAOW3swB1UfD3Bt+vu4loZcSdJXkAdGFfeMHUbZXuwy8TC/AxtyVhKFyhq2st0foZhA2PI0bIPCd4RCnYyGG0Dy3p3K9l5YSfFqmpLgsdfyRaJ9exDuARAnZ95mDGKxdg9vTzz2XCQhKzXX+X6iNduxpHK6iumEL3RVk3PlFaazy7iAaNJYQ4ZryyOBODNkNuYk7z8cdEO+8sE1EoOc041npYn3ziCdqHauipp2TaBQhe33wT04yX33LtUskCe+Hp+YgpSyc3ciUlxhFTIX5Ydyq/8N/KBNFRMJWX75TfwXXvEn6+sF8VAtSL9fex4JX7zUxuYFDqxRFHGKoh9b/xi516J7PO52h3VOEKXUWw0k30hz+Ig7uC8aWXNihw2NG8uXHcQIQKBUwQ9Nz0SqLONlMqLWXHCUVMgKmBQNtD4uHdd2UkYXbcUUZMoPNLYrYLe0jc9DsDV9eiBHddiYYNM14R6kkWBS4ndtmF6NNPZSIqWBord9mELh/cO9SShppW9d1QM16RXr8g5dqsnYwkTN1vMmKhmqViL1ThuO16QUG+/LJM+MBkpfzZZ/HnPYhKfQptSQMdrtqL5fONUFHw9+sfYcHLazYjd0D9AhuLvBjSv4jby0/J1ug36kkO9LkLenlR8SMPKh230k+Uo7WOHY2jE3gZNzDOPVdGmjtMqXTkVh6KmAqsaSmDKOtDjqQCgMlH6FLlG5E6Pg9uusk4tvPo83xVV7G0aKP0kG1Upx5G8BJ/wxJvlgQubC0fDFt0DtTGYYpJLY05CRBMfV3w+1PPPFT9y3K5xsaqjbkzvEMmJG3+TVSpjKF54LcdxxpzCJr14GeaCiC0JUXF/cF0uLwQgtd0ojK5KSEPURuLHDENMrBZBe9NRvV49FEZSY7CF7q4Uqj35/HHjWMjYITq119lwgfZ7FELjZbw98dUmrSM0Wv961/GdEt9vczMDn/+s4wkSIMxUnuyLZvDgoDa6e4H1+qKpcVu4Qx2RkY1/kEEL/Hdvvy3Dmu7MQA9j+eflwkLH3xA1CquScGWtxsChBX5wFq0CLchIpTgFaVcc7GjraNFl6zd4TLiQpACQSGaDHHbsqZA9LcAdG9rzmx45+IC56tnAXjVeJlRQJgELoDNKtD9bsYSTwLzBa4UttDVZbVRKZivviI68UQRbUBZuNzYpvGzI9s9ah4BG1DfvO/DxHmHL4iqLfvpYSAFghd6jiwLXkkDBcwFC2TChWzI5v/4h3E073R3I++raxDBKy0YsOSTI5Q9tFjoaJgbofoK42hGPjiYBAlDIMEL5VrUL1y5Qu0AO9oKhaAvhJvbi7VDiEoy15t79JCRfFE2r3zc0L2NW+BS4Lx11xjK+XmC0nl1xCJwKU491RC8MF+Qy7azsIWuZu1lpGF3z7//bRwFsHBpNnTkl2z0qHkGGvxt/u9c7hw8ZkJa7WAc11g0t82CV5ZrcGy6Nj7ZfXcZcSBbt3vOOcZSeVBsq2vNN/xfju0tAT+Cl/hsl3CCQQBg3wzWBLxwU/8MRItxRGUmtQb5oGClJiq+BC8lyHZ920gHxUntIFvYCahmanhkbUeY9hrTHYahJ2eKe8tIA7/9RrTPYTX893G4MYgIViCqT8yewKXA+aGcX3GnzMgt0HktddqU7SBwKSB4YakRM17xjrL8U/jLiyawAymtr6H2/VsNHXmRSxE4F7T0ofPT/kMe+dnYKIDgBe1SUYOzA04fy66yLBCnbK5MxQVVNXGsrhU8Cum2SCZyjJvgJfK4DnbzoSgdESznKZdXTsBQaufOMhGVTnJpLmXaTccPDDaZ775bpiPgKniJcuW2L4czh4GBgNrCwU5U68e5TssBoB1B221VaH62wVl4Z0EO3FNYqXzKWIHItsClwO/UjOFnEMUBbHx06SIjZjwELgWWGmfQQipakJt3IydC19HcWZ911lnpoOjduzc3RnfTkCFD6JdffpG5Pii/WRywAwnAg43Y9//ZZ0ZGGOLsUfMMJ50WR1pLJVY7y9DYR93IIEq8JLlN+623ZMQHccvm2ETz9dcyEYK8r652gle6kcyR3pkNMJQaK81G8LC8OOMBpTexRMRW8EqXa4hZfjsq5Lp3EnRyMGHT/gQZsRCl4mP7m7JCbKbKp/mgVWl32skiZriO8xQuYkcIXlxxK6bIjDzCp8ClGEa7inmZXLSbORG6ysvLacqUKekA4OR60qRJdN5559EzzzxDPe1MzdrR+Xei2nEyQfQmywUwKyXoJT3VByXuHjXPgCDz27fSsZ9f2s1ztgwNgygvv0zt2jcs9xYi/fsbMx1BiOOlhcwKtpU2aYOSUV2rMOrIwa5FL2SDmOJXtnuRVI5JqOPA0mIQd05YRoqFLlKvFPCDgkeBuGl4/inqmpIKgXGVK9QPas6RiTwlbHuttr9ZlYSqDmIhz91WzejL+EHWCXfaifLx6/xfkjNcVvC7NWfTN+/LdMLYzRC/+rgUkgOWyTHHGG1vjx5RPKuHIJUD+vTpk3r33XdT119/fWrx4sUi7+GHH06tWbNGxIHTpQ0fPlx8Zg7ciFvy8PdPWfKCBf5PBLvPjHABB+M6owRc+/Xj7D/LXuCC5N+95xa7z5wD/uaJ++w/Q3iJA0cy8oOEC0cbv9M4H6e9y5LnHvi/wAEHax6C3fkbAr5ilx8k4ByPWfKCBnW5/F9G+VHqIuRzmGrKy1XA9dldY3ZD5nP6xMjMyOehG4fM74cN65aa7xfn/Tn9WZxBlSsnIgfrec1p73AOB5zG7jP7cOC+3r+Dz2++qiFdizwZDxvO58CRRnne93sIB6MNtf88O2HMmX6uLZmA68inYHeNTmE1B46Y8uYimRgJ/lQDM2bMSNXU1Ij4+eefn1q6dGnq9ttvT61fv17kge22207GGqOErkag4BVvvpmaQ2+4FiKEu4xz2OHwnVWrjI8QnnpKZoahan5DxYkA7gVl6IfXXpO3ZfnNoUOHivO4Ujnb9VorKytTs1XBhKGurKE8KmfJzFTqkUcCnpK//N8Q12D9E1EeKjjg8XFq8ODBxnkceP11978HFRUVrudQpL9ifUYrV4oPH8YXEL78Un4QHD/X4QXOsXz5cpkKx8CBA1M9e/aUKW8yLnvaNJH5Mj6wuSebLEc8ywSfy2fi9NXI5Srfm6in6devn3GR5hNZ65MH1j/3BX6jdJRMGGSUSfmUxtfi40d8lSu+c9ddMsFY7hfnWIl3yIQ4Lb5XPtHI8AATDaJso8C/99MiH/fjQeS6xsR1jrIybvMDYP1ZtAFoCwKBk9TWykRKtEVx3I9fcrK8OGzYMGoprQZPmDCBHnvsMWIhi1aYnM19HVTBpUKapO/fnw6VS0ROrlwCYVk/ghpAp04knNYTPejf4bYda/ajOa/JeELA9pXVF6xv2klleqddRIywqDN/fvB1t/WVRGWduXB/pUee5PTahu3cTg6BbcHvTptGmfuO3Fm4UEYs/Kb8dTrcj2g6InDggcF0ybxYNM9i7A/+5qB1+uuvJBx74OHvsIPhLX4DAfs94DszDdYoRo2i8lWr6BCksaZs83yDqJU6MlI6wQZmfbY4kectkqskQV89Kzv3kbtezSeqlDs9PDAvn94ZdLNbF+n9wokOJjMNYe1t2AGbXeefb8TXBnCB0bWa28ILZSLLrK8Sh83ydFNRwYFd9zkiJ0LXJsrjOzN9+nT6y1/+Qiyt0m3SR2JdXR0ND2KeH34Ca85q6DkHDCD4NNtpJyMZGkuPCpdeUFuC8UrjFqTl6TBItxaHKf3Q2u9lJPt0aB5Uk95E6ye4I3fZRQSgHAXlOr+tf2od0coSwy5Qi43p1PNkflDwe/AHZe7ofLLrrg26VRmoeuDieDFMRwdjnGCffYxjVHCZO/diCbWr3C2HHhCeGDCYUbbqcA8QxKBAFsacSgECywBpzwaTJxsdrPndhva8RfDCblK/aqWuPPQQ0Tqu31LfJMRmOXcsCsQrVsTk4FyVD8qkAw+Aq/21x4aaVBmH/WjMGMSzBAwNxuI+gFG+5LC9dQ1XlLb+FOmvurpYxhJgZTsqRbFuwIQxJpyP5EToWrJkCbVu3Zrf5yLq3r07bb311iJ9wgkniLxBgwZxAQcoYeUn0NRzKp9m8FcWGdkYF/M7hokCq/HKIK680sCtRZvZRrz1TD5xQNMWIVCdPK09iqjkE5kISHtpKLX2B+PoxL77Es2b50Ma4ca9tDULXFywVrtAll1ErjMP+B0Mrc88U2YEB/sBHEEnBMeLNjYdzP13EPbcM2Td8aCoWUvDDhF6QFRYq+dsOP7FlO1WWxH9lD87B7POpElEY8faPzAIXq+9lq6vw4aJQzTgXgCYzNxPvsrrfQiAy44tz9fOD6qciqURRA/U11euxP82O53j4jx5c3HOVmDmF7stQFtvVxhlLABdr/ToV7NgnU1S0oR6FxsfuRsQeDyRJ+gvzr1bo5wIXRCwqqur+SVN0VEmmwC7stCEvFdffZUbjZCthqnnnDYtBs/8siXB5WDiwDrZAUHGr9P6NGp5Ti3XtY+yRukfdPLpwWFxhHnqVlO5M5cugtzYbz+i11937wFWcBXsygXb3FKw7d8zdhFJsLPbceYB57/55oYlgmyBuoClCAdjWkGqrFr6Pvhg4xgL5bfICAOzy7DC6TQ7B4EMU7ebbx7jVr38AxuYheUYCFwXXmgIo05grRdSsOlBRlpihCNNuZaPn7V1uhsWF4FLCT+xEOBkMNdn9WsJQ5SerOBGuojL3g8t+T2/lo9xe57ngX8QoGIi6FpPtC74zHogSvldLvLpGb2JE/AxZQLryHHXnYDkROjKGqsb6x2oVSallhOWIkrRetqIhUWZYSKUUVssz2GZzkoCS4yxDA47yNmkuuXG0Q3Y77B0ZGnQcaDTKLIp2NYsIZo4z2nJEefFjMJll8mM4MCFlG+U4GW5n6AdHZa+lf3e2Ki9nEfDRiffa0e+IEzNugG9Slw4lh5jM8OeX3zxBZfF6yyxQ+DCvXpJxpCCpd05WLMJvcSoTN9LoRcyMLaoC5TAFBYXgcsMxjyxoCr3i97XbbYBiD+DBXBvlrDw4lO5VZmIyoZ5muoQxoSLEupCuz4lI5rI5Ni0UdMQujDnOJ2PcIlgASo+JhWyQGAiAG10VRUfyV3AaKSo60aNnB9Vy3SK4geyusT40UfSeGwVDL3EQKt7uaPeSCY8QEcG/0woTAz5YaEbHQcUUb1wU2zF+S5nQeMGB4OKPoFeubII7wvVCVk6cJSvJcuWL780julOOE6ad+TirRXChm9wPzDD3sQEr/SsLhSp1DPzA2bLZ82i0Wf5eJhOYBljeeM2QwjZSlAyW6kPghC4dvQUuHC7UKuMjZKFRHvw0aGCI9s6y5UV8L5ni9U7E33IxzkWl2cuYAKVivoTVdoMouMAz1vPctFzz8lIE6BpCF1QCt7SfiSgVHx+8FBBslJZaUwUoB+C2w4Btv7ZgCVGqDD5ooKvtfW/ZMJESQSlfB/AnyDcJFEV30O7kL7YzHQ42zjW+tQJOvxw4805nof8sNDdpYIbE4+ZGCwxQrHVhKEvwqCVHzfOWMKJgcA6PDaClyhfxku/d0fuM2NvRJRDWkydy53Bbv58M1CCF5RVmghQpfqU/hlM4FIMGUJiNw5j2lTtD7Vtr7uD0cVmpxjvQFCEwLUXC1z+t2UH2Y/kSvGfjCPeY4vghX0ZwM7TxXHHxagAPXGijDDY7ZwNNvmE6DAbl2c2/PqrMYFKXefzgD8OJUAL9castZ7lIvrLX4gWRfVqBhWUPKDwhS7l6kdpztvw6KMsk/lQQVJA0IKuMXYpYvOXAA039JNs8L3EuO6/xrG9S29Yl4B+TZvGgkxoih/hzn5zmfDB4TwihEeRKzikpDVoNyxLjOPHc/sDnXA0+tdcQ3Sj9G2XK2wEL6gomvSmM/hE7l848kjjGAsQlOCQthPXHTl1Xl/v7c83A9wPzEtEXY/PB56E3RGi3qkg9kYscJsCmV7ITihQv2DbnmFTRoAV9kYuYLs8bBzrA8wsihkPfm+7+TdpAOE/0AyuHzBjjbbWVOfRRl6Bd9oGPAaln25LaYBZHDjORN1sfrGx2zkbKEevuE8P1IbgrFHWiajFlTKhUZZMQoNBOjr1HFP4Qlfv3o1fkDWZL4sa7allHTfgvRwDfrSZ1l2KguMty4ImVIfqyGquNWrHoh0tb2eJL/43GbvhT3BwXRaJEtmhudjtSlO/ghsR7tA7caM5iKUBKJe5KTWbWfepOFylXJ3dzuV0LbRpo/PjjzISFovgBQfdAFYC7MAS5EsvyUQcYBpGeX9tIV3rMMoH+YgRxtE3uB+sx0cumBzy9NNUdsJ8mYhGejUL9VU9azeULz+TTgN8wWZY52jBUgrs0vlBzXB1DTZDrfQ3R5vMW0WmihsTzACiQeE6rzYapHfyBSX1L25ofQi0MPUBNtqIG2jDtFCs1CyWEeZTbm+CrpU2Z4Ewzl2MtT8bx04WF0WaaNh26slS2ELX+9IBFKa8QfuPidbavyxYzsGyjhsQgvFMsIveVg8MSl4zZ8pEY/CeKofbtlTLa1U7Fu3oeJGMxAs2ZT3+OEeqs+BVvQ0LUF52u6BwX9adGxBuSFpwo4m5YjwQaBd7UbLI0LUAanR9UXzltMUWJBSmI2ERvE48ETt0RbQR77xjHA8RFjljADpDmIb54jSZ0RhsXpwOXcegoJ6jYL77TmYUEP/iTvzYY6kL3UPvBrBz6UXl1FkNkqwb0B/zs+Wxk5RS6jxmFdM6XOFuBvqo990nE1Fp9xafUO4yRIPCghc2GvzDwx/2lVd6XYOPcoWpD6znZYuKbYyZe4CBPEBd8gFMsVHnO+LdxVi+GVGrPHQsnQNgyaUpUdhC1148+sMwUtHaWepRyzlKTrOC/qtHD0P3y3HHktSVsduSo95TRyr5WuE02g/1Ukkibir3JGobs2GodixAASeBDsulULiH49wW0gghwAOZPbvRMoUtxSbr2LABwqAjiZNYZgJMghfsNgLrbBeMoMam3IxlFoz6sZOyO0tWHTMN0qnNi4HvD/UcdrywP/ubb2RmAQBNdSx9yWeB5iEOIOOXjB6S3tXoiNI52nRT48i42ultxd9f5bLLRwhcTAAdLitKH/Xcc41jJNo0tuL79bUYyRGddbb7Owx/0pHeMbUT1Lqel6qTkZhQM/cAO1FcVFYUGJeEsMXsjlo56BDnFGXhMnBgw4A1NNhRlycUrtD1yivGcf/9jaMPYKvTriGGwIX+6/vvDbNFrmD6wMX4jG0fVSUFnTY+9nC3GEdUphTJogOdirOlzrugbZyGoSRt3zAEOitC4OKGEh4DWtpIslBYffVVb8ELLHhYtG4wxdWunczLN0yCF5a0zbNdakOU7w0XbkDgwlQspmSVNe2W9kqLkJ1CzXTAjheU8rfbzt+6fK5BRYdPLn4GJnWqWMBqtgC7GrE27FRfoXNkmY3BLEidk2zQYaxxrLVZyk0LXD6WND3ApqB775WJGNl+e6k6N2iQv3fYSplPk/XYCWrVM2zGL1ipHARnA2xpBh6GxhrZgWx5G1EFtjNGRJgU0srzZvbeW0bCctZZeaMyUbhCF9ZoYAfBjirT7JcJZbfG7O4FKjEQuDDDhRUVT9T0gY2yDKzfo4/KoOpQY+nTD53iVQ6H6kU2GtxGtB1gHNeYCrb+d5PAZW9MVIBhDGYrnRpt5C/hhm9LY3YxsD83F7KiUykFr0cfM+4HE1EA8qWnzp8fMEJQAhemZCvtl7sVhlsWojPOMI6BgFI+jHtiXT6fBS/slEFFl2UPORSyfNwI4QntjslyfRq1qcNGu9p1FV0YGrY0PDEKXEANUs45xzhGpvqDdF3G7kR68UVjNOsieOG9zdg8Vs+ZXXhU4IZSFkMjbaaLxcdoFOocloMxjeXP0JhBRxYOo/pirJau7NoH2GCg8YeDUeukSUToOvzww+kXk54DrM5369aN39EifqcaNDDhe7Fjx470xz/+kdY5aSIzafEFbn+stHuThZwDZCITNBYnnGD0RNj0BZUY9F+eM1xmYJreRlnGdoekchTrsvRpS1g7Pk6sk7s8s0XJQmrXTG6brl/JhdvD0OFyE7gUmK2089WINEaafSPsQHMBy8lZ2UUsO//jaA0tXIh99MZeZ7UxKjTY5YHOB++SWgOvPp6og7tRLsx2PeDhS9gRGPfMZ8ELS87wiC7LXAFZPk6gp6e0C4SSpHWggO17FileeQFyRRoanjBeHGIXuBSoA166V76AekLlnkJ/FdoBaZQCnYPghRlqbB7LoJnHLmbsnglssyMgq/hdaiU3QJiR01gmFXtHfKp/eVPJfVpb/3bCmjrvvScjTYisC12nnXYaXXrppTJl0LdvX26ffhfCF5xfr+EWobKykjp16sTte7nwzbjHHrDEZ48QX5yUfNu4r980dHyLxaYvrAYEtjot142cLMVAiEsDR7EdAyokNxsRzo6PhVtuMXnGWd2brzuulsEGacdn8QL+r6wrC1zLGutweYF1Nyzcq0Ybx4cfNjpUhWlE6nfjoxcRDNm7w3X7SVKWj/tE9gEqumbs8sAyi0lnSNDKfSODmu3iSiCPATEJXvmk2jsX04inn95I4IKKQDZQenppMFCQvkWXyyzrziiYm/Dlk7l4Ol0IFYAsCVxA1YEgEze2mNQTMsxZyefQWe2mjUhahLX6Ds0GHRxcXnAHsZWMOgGrRWn1L8xcll0iEwGplhJG26B+5ZouWFaMPGstdpHlESz4ZJ158+alfv75Z5kSb6aMpVK1tbWpadOmpWbOnJlatWqVzG38nUYMH44PxedOIcXynF1+Q5jEAaf5qykvWOCBtMN1nMvBuP5vP/BzLfYh7N81DsZ1IMRzPvdw103G71w42v5zP+E5DhxJfW7KQzj/dPM9rOHQcG/hQxzncA8DqZqPXG/xX8QwhoP53POe43zfz3UQB5zG7jN/gYcP4jruNOXlKlRz4EhGPv/j8K4lL66QWX6zjczUaaa8hpD5faeA55j9d/RwDv6vySkY1/lyRr4K/J9tmEafpUZTmZH+lAPu2fIdaziFg91vINT+agS7z4IEr3Ln/zwDDum0w33BF4fd+VXA3815wv6zOAP/F0vgMT0fsh3wU3b5/gP/l+LBYka+NSRFIr/kJnTV1dWlxowZk7rttttS69evl7mp1E477SRjjRnOQpdnAaHSr10gE5msWYNOO/qtP4tz2JwnnYXrqPtdJuxxvA78rU9wjqVLl8pUA41O7XG+oUOHOl+LTyorKyOfA/gpE6+f8bqO1av9nWPZsmUyFY7Bgwd7XosXFRUV9ucQ9fxDmfCGaLbnPXsxBCdAWLJE5gQH97J8+XKZCsGtt4pr6Nmzp8xoIMj9YZAX5NnssksqtddeMmHC7hy33x7sWqLWEYBzrFixQqbswc8MGiQTNvTr1y/Vp08fmcrk7bf5P9S76s+MDBtWrlzpeD/pbJyjzuta7c/RCI92zfMcdaW+zoF7cqPRz9icT5Sp27VUvel5HXi2vsrEjeOOc78On2BQHPU8uJeyMhbCXfD6CbQBAwcOlCkHPE6CtihyuQYg54r0fA3Uq1cv4sITS4yKz5Sl+TBgTbwyjCfqYAhjCXa6SMyKb6U/wOYhjbEVDeCT2Gnl+wMbrUYpz0K1VsuMBQz0xWIAHgewKargab2bjPjhcOFUwUHtxhfCyD3seMHEetzbBP2ArYSXXkoHQa/KQtQlXC/g5smvjgnqVhAj9kmBzQABXAtmALMnH3z8NNHqnWROBJonsGzoBVQhWiiFumjAr7+geDpRqYNesXVDgGJNf4rFPZsXM2dSY8Mf4eglj+mdQlngv9KBS1MjJ0LXn/4k/XgxM2bMoJNPPlko2z8T2G+JA0muiUMXCSbfTT0ZROtuna8k6hJShwZ05XNSeBtJUHJNK0+Xb8UNQYzWknMFdF3QSMbEbVkwbJ0Ya8NZXIdLGnQOUQQvoVGOSo5tglDuTwrYwbrkEuO3bQyVQu/ZY4d/ovixpZo0aidlmOevnPrvcXB4T+3wwxip7mWDTsrVRXhg//FQ1e2UnMp1NHMH/T79+mU4QRes5YE7iMs9mxOy4KOavEoD21dZ3BEItz+RRQIf7pySJqvNQj0P9bBDcf/99xczWYiDhQsXUnFxsUi/8MIL1Lp1ayopKeGK+77Iww5Gt92LvkklNNQcMKChJ8Pwtlw6YW6mFKnzgBJ7q+WFyjHc7kOACAP67IJnzf48Mg7XfB58sNEWobpG2pAgRhfdTF7IswgaeNjB8nh45n0X2QAmqbycSMPDAZqEfCVs/cf4spH7WWgpBeSkk4i++3AyV77MmcpQFPEDKXV2zeZOfA2B/b4vh/KR/WCaNfvxu+zTcHZU4mz8zjR23mbTnyGcl0QC7pzgLiaPyKrQ1ZyHVVg+NAcFhCqkn5Ke/ME999wj8rCDsZWb12A/FA0U9mQSAz0Zppfg8Kz2b3TR1b/78gbiSvPR3KAEr3V4p9E5COK22pxztiWqWyqMj5udEQQBkzONHBAXKm3CWwyE5yzliSnSMhjeaewuy+aMF3axwrihqf2wktRKJ0xSeTmRhjFiTH7nO9a+3w1llys90CnqT1QTrjP7vy3GUl37mDxxd3me64W7rTpHhAsmbk9iJD1X0OofRCtsDLRZ63C1NIDkx3B2FII87CBgizxs78SMr12/fvF0F5MseTgBHhNtr+IRRJana61gD3W5YQznjjs7BTdFYaUz9lxwzxgCdA6Cms8MAbSp0O1rolUBTFHYANtsmDQpWKodjAIHBJ6YMH2PcUJkwUuZs4gbSDinYW+gs8AFsNIZp+Hcpo5HcWYAu1zPw+Scos0VRKsD2h400bK1g25TUIqkV+8wrNqUqLixOaMoYJY17cy+Aw8S3FBCUOVuXJZmg2dZJOhD94MyBwXvFTHy4YfBfY5nYNIRzyeartCV7ZGDEzU8zJ13rcmSYo5Bw9imKWiM2xPWs8N5DmZ5CoLK3f17OPAA0/dK8Iq81AhL+XG62oCPGazl+ews0jbpssyttzpb+L/rLgcjoHmKnwkQ5dqsUSfYNqTXdniqyAa1IRW6S9Ruo+jA5l/GcljKZspG1WflY7Gd1eBZzGRrlksBPUvY8osRqL/htJHAKAEO6POMpit0KdZ7uJmIE2V9/phrxFJjX6qL7vql1X1EKz2USExg12IGYRvIvIUFyXWLhDHysdJ93QZHUA8HLqCjQPvk6q7GD1gTgC+txX5seHswc2Yj1z5uwLNEkqAzcLLwjzZeeQTKd/xOfMC1WYZxWAUspgWhkguu5S0iik2wsQCDpKv9mP834/PmA9ArvaVP0pIrQqmLmozwsfiETGQZvw87DBiFgFjXBIn695eRsGDAltRILABNW+hqfk6Ds+kkgPX5Dl8b8cMOow9efl1My0eiAw+p1/vXf4BaWfr9SsWwGSEf6fYxN7J/olNOCb67ZcGCAtfnqsmOKx7MYqDuRBoUY7oMLrK22Yboa/kehAEzXMcf77ujgAH0666TCU1g3J65sggAN0gZNDuN29fXZMIntSwctR9Jf/87pd3YRga7Bdf/UyZ8sha2P7JjViit3tjRZcqzRrpOaB92E4BPsj3LpUBjHFUPWwKXVbGx9dYykj80baGr7bksCIXf3hyINXJraiuTYiaU60FSFd9K1Uv8hP3PkhUa6OODgt1TmCErWCp2bBDsYwYqiXC5Eam6wkUWdCm2357oC3efkLbAZYfPGS4zV18tIwmB/T/wQGQGbn/uvlsmCgSvYoZFAEeH+e3GsvBiN7XuQfNudOWVMh4HRSGkN+j7trtDJuJj/HgSm3waYbfEWL4l0bd8TKJvyOYslwKbXWICO6sjO2fPhn5pTDRtoauYO6ikWDuYR1zSQ7yJbVkGm03zo71cMPbqY4kxo6Ku/Qs3LAWkYBKIHtxwGrsFYJ/WL9BPCWtqIm8wC/YxA0fRVl/OgWnXjoXDCmO95fPPZaYPYMQJUyoBOglMrOUC+NqzCu9wcH0uj/MKEbvnrWZssBvTluKAHtxtZmljW2IEa6XTbb+0ibp+lQn2fGCjbZrmf81cYlR6bXtnWRhKQqAzs9desfwmxlxjxshEWNCWwK5fHtL0dbpAfbmMZIkqabtAOn02g1WWI4hfbnjhD1shYezVxxLjP/5h0wkVWxUNmgjdfuObPVwYbMSu5Q2C2h9kJLvAl/Nbb0VsP2HyH06yd9rJn+B1//3GEkXAUTkcOReqoJMvOBU5NqTeIB1ruLK+SkY8WDOFqHWDiSDov8W2xAg7V1Xxz1wFJcNWaGebayrjAaPUaxNkUzhKYpZLgT4uJjBZEQnsqrRdE889TV/oajGOaHWW5/yrDuCXnnspNzAKgNniLI8+sLojsJvSboLAKCF0kfyAwU9BgyWJTslMm8PdyzvvRKyu2NGkBK8vXXTRJk82DC2G7CBytaQ3j/v5Y4814hiZOyqbFwjmZ630ajB75wr0Zv22r/V3GgNICR57bLTm9jX1L5nwoAK7IOK3LWUmw25cvXxv10vTCh2lqYVsCUW2O6oSIkKjEauVhyzYD4uDpi90lVxEVBenAoGF6gXGsY27RyvMQgkJIazg1f5DolLnrcWbbiojivLxTVqfS9GiaqqMeXPzzUQ/JDNZlD1axGTfyAd77x2T4AUbPjvu2GB7wAx2PmELaojOJ4tu33yx334N+juwEZanA2tfWIu/fXuiCy+UCTc6XEtUe5lM+MDGS0csckdRACXumut48JKpChIXGASgrUnT7ARaNFe6/1nJ70NzG1sIkV4yGxrtqEqQiL+JmdWLuMuOxPdyk0KekojQddddd9Eyk2LbuHHjaPjw4emg+Oqrr+jggw+m0aNHy5wYyLZT1UoWpNoqi3j2QG8hrW8FwQtec4O+ZHBsnHLzVLtJY28sddfzaOoemWiidF3HhWsoUHhZCQfQ686iq7CsclmOdj5D8Iq81IgevKrKsD3wP5PzdWiew7hR6Ib6JzrqKBnVxMI777yd9poyYYJxdKV5dxnxoJoHmzbAnVesPiorrVrsdrC03sI6So2PESMMe21pujxuHGul267O0sSCIm7hKLIWegyEbDAgrF5zjUyEBYbyHspfX8NZF7q22GIL2mGHHYQfRsWiRYvoscceSwcAt0CTJk2iV155he699146CdvM4qS+QkbiY5qaHvewg5VhJ3XPPWOYQsikc2cZUTTvKCNNFDm6xcDGr8mAuAeUSXEzdudByMwBWGrEUlqksmvTxhh9bLUV8XDAMN+NtatIFlmJnn1WRnKEYYcvRbNmiWRB09D3LxLKzIHwMk9TOZbbyUzfSBk7/aLQ4RsW7qL22NGBnqEdb2PfT7NTjIQdcTVOtsq9CRJRiIQ6aCSeeMLbQWoOKUqZHSJmifnz53NbuxX9Ab46mL59+9ICGEwy8eKLL4r87vDRwsDxtd2lQRhTgppffv2caKMeXN99Dsr8kvqdaMFCeN2XGa7gXjDF3LA8BFWkQLaIMUDiURRZ7oNLKh1T4NqKYr7ffAT3uYyLdZNeKAO3RgtljwLx37Dh3PlE7p/nqxzyzaVUTB1VJLzqXiGR2ZZ4UbaYqCOP79zaV/f2KL7y82r3yr4j6tTB/TvxgHu6iYOhFAc3jzA+7Pa7cZQCVMk24eB+HvWMo+L8K8FrEcC0NUZR0UohbDkmIAoJcqLT9csvv9B1113Ho+d5QrgCWFrshu0ykq09jJqhgPyGjXdMiYeg0muklqj5O4EDv9z1PEjve5DNZzYBO+ihvGnOO4yDuHs++gqXcLB8/4H7jbylS3/lpDw3hIWiQQ1pH2Eo9sAzdp/5DZVSC9LusyAhyDmoczltLPUlG+VnpLsL1SJznmsonyLO8RsUYLvx34cMR44cbDS0Np/5DauLK8Q5bK8zQAB2+f4DBC4MhnCe8AHnWL78d9vP/IaBAw+inj0347jddfoLq1atwsXYfhYkGGVi/5nfEM91EK1YscL2M7+hX799qE+fnW0/cwqdtmrcvq6Ueg7m71jT5gBjxQcemJnv9jdOwfo31jQELswYm/O8AsA92X3mFIQOL41Lp3c9uA/tc1S/Rt+xBi54ITDYfYaAZwvsPlMBAhdcNNh9hsB/zaGe4zhP+EAE47Ipqq93+B0EfKOmJuMzFUCZ6VohcGEnsvk7XqFnz57cFgxsyFuyRJzX/B2vsHy51LdLiJwIXUuXLqVrrrmG9t9/f9FR33fffdSpUyexxKhYHIcrkWyxAk1M30A6zZGnTM2kjKlj7MYzfMAZgmsjuiqP102c5mhFDR58UEYcgGqRL1Y/LHTFsj8a1mg2ABz0uRRQ83v9dZmIg0qpQ+VEEKX7kDSy1eWXRYuMY12dcQyK0t7nvtQOzG8YrnUiOAlPs7dYGsbsnaOzfCzxBbRSH3knMiT4PLd+nROh66OPPpIxfj9Y6MIM1+GHH04ffPCBzM0ScbjFgcBV1I+oW7hrVW6qQlPyCVFpW7FsHcKsUZNlyUcTaFQcvmvhP3PdacYsk0ajiU7lXkRtsTSdAB2+YiGvgLeRcj+YqQTsEyiQ/26vEwGBC4aP58+XGTGATRDwzADPILaC16OPGkc5o5wYI0fKSH6SVaELyvPjx4+n6dOnCyV5xMEzzzzDQvnNNHv2bNpmm23o6KOPpo022ojGjBkj8k488UT68ccfxXdjo9npLKwoI1YhkTNc1PVtIx0QzGJis1YkpBXoYcO0wJWm0zLacnPnfca+jadWPskNNo/OtMCl0QSjaBC3jw2zzhm09dYFtLpVCkWr7WTEhlVZNB3kgFwR9A984ICgpvpvu804mlR0FErggouvuIFWihK8bPsjbJbJ2OGVyYbUl2VV6GrevDldffXV9OCDD3KduE3EwfXXX0+XX365mN2qMJSdBAsXLhR5M2bMoM3i3tvf5X4ZCYkQuHYMPcMF5B6BSKjdPqk6h7e5NIdG8XKFxzovVzUh8LpSOZMFrhO0wKXRhEGoM0jDnyGorU1gVajuBhYAkpt1ufHGkG0+JJmgpvphgf2332SiAQhcAwZkR+BS4HKxe9fW9IdyaWBzbWbwt5HNv+Sxv0UzOVleLDiEwMV0C+BHzoX77pORgGBEISxgt3uHqMzhbU7N3mAFh8/fetBxC7pr4ydmuI7XApdGEzfr/isj7oRxXu/KGjljZCVBMzpY7QsFGnrgd7ZL6XJZLLBD4NplF6I3Mi11xM6QIUTPP2/8Zga330608cYy4Uxk8y+bbEJ0R+5dQXmhhS4v0gJXPB0ybEqFsf0KHa7jjpPTsG32NjI1DXRcQjtuNyrtlsU30OHSM1waTXZY3YfbK/9GzK64Qkai0P5jorWDZaJAQWPvd7YL0p1lKl8JPx9zUSTFYC7yl1+2EbyUifmffjKO2eSvf5WR/GXDErqKBrIQFWDZMmaBC2yxhYwEALsUbXW4ahOoxIVCyy1lpDFT3bwErX5E63BpNHFSeqSMmGg3REbcweZ1LMlFpvUuMmKi3I95/eyg/FgG4sknjaPj1kDJtdcaR9NUvhJ6cqEndfDBRK+9ZiN4TZlCtPnmMrFhs2EJXV2xsO3TYVsWBC4z6p3yAnoOtrsU277CDYmlEpflgfuHHLPglcbri9i6betvseJ+buVP1QKXRhMX3dZzQ/WCTAQnoHWBYNReRNTpV5lIDky8+DZVYwVTR17rrnDFUVoqE7kVuBQHHmjjwUIt79j4RTz00Bh8U8OxfoGglxftyLLA9eWX5MvNBvx3YUeP7QvU9iAZMVH/DxYsc+j+IdeUfE6773IsvWRxhZkxwKqYTFRzpha4NJpYsUxv1HwnI8Hw5fPRD1VzZUTSwluvKG4iqRhBScoNtZTWpYs45IPApYAzeJinaCR4YQYBdrQsYEnSQ8/eG9gmi2VtOvtooctKlgUusP32MuICdA8vuMDHC1RrciAMiiKaxShkincUh0GDxMGe8lu4MxirBS6NJttUbM3v5MMy4Q/ojisVoEi0e5OFrgNkooDZay+iDg6mOCZOJOFmg8kngUsBQ6yNBC9lP8tmtisWrhdeXfOeDVPoKm0nIxYSELjMvOhgNB4GVC+5xMcLBAXV8q1kQqN441ljqutxq2Hq8ptYSL1cC1waTTYpNWZeBCUuDp5tCGsXNIM2+8oIs9rDVUUCfPqpjATl3XfTglUjjj/eOLZvn5cClwKC19y5JsFr+nTb2a4NiQ1P6Oq2ntq2kXEzCQtcMMoP48NWYOMOBlTXr5cZbpgVVFduKiMbOO0X0IB9jKmuE080lnIFQuD6m3j+Go0mS3Stos72XmgCEavNrnWjxO7mXGGokkgXP2HZyGKLcOZMMS2YzwKXYv/9Tcr1p55qZEpFWx92U735z39kpDDYAGe6lMhtImGBC+y6q4yYgC4DbNzhBUqPDHww6XqiTfBOdjYczW7QtN5dRgyFXrGUW86SrBC48HwDFKxGowlGkTGivfYScQgFBpyxWKdnnlLCm8Pu5iTImHEPCjoEs0kIudxY1MqYFsxngUsB5fo5c2S/Bol6S/U8OlF1tYyGRNh9javCJEDWhS64AnriiSfozTfflDkG//3vf4XleXyuQPxxrqGLlOPPJBACFyzN56rmGmuM2FELXYbAL1DxdBqj7H41j2PY0DR44TE53K64hwUulmT1kqJGkxjX8CtHrSYbiYAEGXC60nYODbWxYFGodFUuflav5qFjShg+LQSBS4Fdii/wWLho1EhaT9uScsoU1Pi+LfdH9DiTIFkVumpra2m33XajE044gXbaaSd+mYy36ZJLLqHu3bsLH4tbb721yFvPw5t+/frRsGHDhB9GuArKJqXf8n9C4NqLO+R4LM0H5cMP8f8gscx99tkhX6ASOV2raaD9B3TEwf3p87d4RFVznha4NJpc0OECGQkOXMvw0FzEQ9OWe/mmguwc8D8ELrj2SdLwaVwccQR8LxM1p6/pWuojczcsilKMjGcdCF34OXUEZWVlwudiq1athL/FLaT1UPN3zJx00kn02GOPyVQ4hhxGNOthCIU8GMu5KpS6x/DDu5R0LF8Ug2/HpoIuE40mN5wzguieW+N496J3Tanfi+hB7i5GjZUZOaOOQ3MjGpl1HAp9l/p7HPYUMZYIxDEKcUyOJiUKJSZ0zZs3j5o1a0b9+/dvJFBhSfHKK6+kjTfemM477zzhJBt069aNVji4aJ88Ody0taKkHdHI4/g8D8mMnDKGQ7T7GcON3LMvE/2wVGZoRJnkx/PVaDYsenQlGnZkHO8f2sZojBkxOU/agfM5xLWwFK2/yB/G0Ok0g9qRHCGHpJbDvUY0NGPGRK9rfklE6JoyZYpYRhw4cKBIW4WuG2+8kbp27UpnnHEGtZR7hnHE8qRGo9FoNBpNUyDrQtfYsWNp3LhxQk9LYRa6vvvuO1q9ejUVFxcLAQy6X8BpeVGj0Wg0Go2mEMmq0PXjjz8K/asjj2zYQtKrVy+aPXs21dXVCcX5Hj16pIUrLCl++eWXYqdj+/bt6WB4z9RoNBqNRqNpAmRV6KqpqaG1axv7AuzYsaM4lpeX06pVq9KK84offviBOnfuTB2cXB9oNBqNRqPRFCCJKdJrNBqNRqPRbMhsgBbpNRqNRqPRaJKn4ISu559/nsaPH0//+c9/aC94YA/JpZdeKpT1w7Ju3Trx9/Pnz6d9992Xfv75Z/lJMGBG44033qAzzzyTZs2aJXPDseWWW9LHIS3mYQPDLbfckg5hwKQpyuTdd98NXbZ33313o+sIex783TfffEMPPPAAPfroozI3GHiuzz33HN16662hzwEOPPBA6t27t0wZ4PrefvttGjx4sKNpFDMwKGwtC1zfcccdJ1PeQJfSeo6zzz6bHnzwQVH3+vTxNlb4008/iXP8/nvDNm+YcFHvJFQDvIA+5yabbEL//Oc/ZU4D33//fcY1OnHAAQcI48sK2PyDHT9Vd15++WX5iTMXX3xxxu/de++9okygj/r3v/9d5jrzwgsvZJzDXIcPO+wwmesM9F9xDnNduOeee4TXjm+//ZY6dfJ2aIhyxYYlsx3DZcuWUd++femdd97x9WyuuOIKsZv8pZdeoj/84Q8yt6G+4l5WrnR3N/bVV1/RgAEDhJkgc7ng75CG3q4XUEvBd9G+op3HfQC0kw899JCor3/6059EnhswRfTqq6/S+eefT0899ZTIu+OOO8RzRT6MdHuB93fmzJn08MMPZzxLbAQz36MTl19+Od10002iXGGPEpSWltKpp56arie4Hje++OILcS3Wcr3zzjtFmaCNuuGGG2SuPVVVVely3XPPPem3334T+eb6esghh4g8N1DP8L7DzNPTTz8t8iZNmiQ8yqDdhTUCL/D+4plMnz6dDpeOiJcuXSp0vVFfu3QxOU534JRTTqGpU6fSv//9b9pqq61kbkN9PfTQQ0W74AbK87TTTqPXX3+9Ubni+SCN+4kVLC8WEuZL5kY7VVlZKVP+Wbx4cYobqEbnCgoLf6na2loRX79+feqss84S8SBwB5P63//+J1ON7y0o3EmkuOFOffTRRzInGPwSyVh4xo0bl6qvrxdxlC/KJQr8Eqdqampkyj8o07lz58pUuHLlRj/FjaRMpVJbbLGFjAWDO3VxZKFWHAE3vKlffvlFplKpzTffXMbs+frrrzPq61133SWOxx57rDh6gfvBu8KNi8wxmDBhgoylUrvvvruMOcMNf2rOnDmp5cuXy5xUigVbGUulnnzyyRQLZDJlD3cQqerq6tQjjzwicxo46qijfD2vsWPHiuOuu+4qjuDXX38NVP9ZOLBtB8444wwZS6V4cCVj9nAnJsqVO0+Zk8kRRxwhY86wIJJiobhR2Zmv68UXX0yxwCtT9nDnJcqVO1+Z0/gc3MGmnnnmGZmyhwc9MpZK3XzzzaKN4w5NlK3C610w14clS5ak3nrrLRHH8dNPPxV1yItnn322UfvKQpOIm+vrNttsI2P2oB3Au6NQZWG+PhYSPOvrlClTZCyVat26tYwZDB061Fd9NZcr2hXcGw/UU5988onM9cZ83bg3FipE3Nz3eNVXa7mOGTNGxM0ceeSRMmYP+k8WRGSqoVzN5cADEXF/bpjL1e4cqHOoe26Yz6HaWh4op1hIF3Gw5ZZbypg9LEzLWCr12WefpRYuXCjiLPiJuLkOxYF3bckzzA8FDT9LpzIVHPO5ooCG/r333pOpcKBxuvXWW2UqGHh58FLzKDm00IWyQGOw7777hq5kOAcESZwDHWsU0HiYhZ6gKEEGDfz9998v4kFAR2puKHfeeWcZC4dZ6BoxYoSMGfith3bf8yt0KaxClxm/12EVusy0bdtWxtyxE7p69eoljn6vA5iFrkWLFqXef//91H777Ze68MILZa435t+DMDx//nwheA0YMMC30O8kdA0aNEjGvLEKXXfccYcQDEGHDh3E0Qs3oWvNmjW2nawT6m+t9xbk+Vx22WVC4Ff4FbrMvPvuu+mO0EyQ60C52NUJv/VVYf7NMPUVqO9//PHHor72798/ddFFF4k8v1xyySWiXCHYQDgYOXJkoPoK8HdWoQ/nCALKVV07hHQIY+iPSkpKRJ5fWrZsKY7mskQbHKRc1N+efPLJ4qgI8nzQdpgnC7IhdBXc8uL+++8vY0Q86iB+MDKVG+Ccm0cPYqo2LFdffTVtu+22YmkkDDAke+6558pUOPjlF1PgMNeBJStMQ4dh0003FefYYYcdfC3vODF69GhxPWHBtDmWfLmRF0u4QWnXrp2YOsdyGgvU4n7iQk3p5xMw0QI7eWHB1Pzxxx9P3GjJnGDw6Fks5UYBy2cwwozlAiyRtWjRQn7iHyxrYRnovvvuE8v+cE8WBSwHhQVLNDzyJhYEQ7+P3KkSC+ZiJzmWsqEW4QfUB+58RJwFbHEMCp4B/O6inQ7Lhx9+SK+99lrGUiILS+nr8wJ9BK5hwoQJMofE0hjK5c9//rPM8QZLTdxnijh3xGJZOSjmcoWJpG222UYs9WG50299hV/i4cOHi3tiQVosKU6bNi1QfV2wYAHNnTuXeDApcwxQR/yiyvX2228XadwP6iuWCPEe+QXlivoJPvroI3FvSA8ZMsRXfYVKCtRjoCoAwtRXtMlY6sUSvXmJMSsYslfhYL5kjGyDjprMRL39qVOnilFxXLBwIGP+wRIrZgxmzJghpsoxBW1eCggDZqvMy3N+MZcnZqowGgsLRn9hQVnwiy9T3st3bqjp+t69e4tjWMwzXZjRNI+m/NZDu+9FnenCdfTo0UOm/GGd6TLfS2lpqZje98I604WlIjw3BNwnjn4wz3RZCVOuuC+8U4qjjz660f05YTfTddVVV3ku95hxW17EqH/mzJky5Yx1pkuBZX+cA0v2XljLDTPOQesrvlNeXi5TDQSZ6cISOma5zAStr1i2ZSFFpgzM94LnjXJ3A0vQ22+/vUwZ4H0OWl9ZqJIxe/yWa0VFhUwZS8Zo9xUsNHnW18mTJ4sZNiuXXnppeunRCzxDFqplysB8/Xj2s2bNkil77MpVgfq6evXq1L333itz7DHfK5avsTyI5x2kvpq/i+s2r7Do5UVml112SesN+amkbkT5e6ypv/rqqzIVDkwvq4YUDz7q/URdXlTstttu6TIOAo8eU59//rmI4wXA9HUYcB8QaMOCFw86d4qw5ar+Do2Dl/6IF2ahq6ysTCwdAQiHfu/V7j6iCl1hygb6RWjsFTiHarjQ+fjRU7EKXWaCXJNZ6MJy8Lfffivi6JiwVOAH6++pdJB30k7oCqoHCP0Vs9Bl7qRRn9W75YZV6MLARy05QecFn7vRs2dPGWsAgvSdd94p4lh+NesW2TF+/HixlGmHX6ELy6rz5s2TqQaC1A0IvErPx4z5HBCwcU1ueP2mn2vq1q2bjDUA4ee7774TcXT2Xkt71113nW25qt/3U18hhL755psy1Ri7Z28HyhUCmhXzb0N3EL/lht214nmp+orlYK/6aj7H3/72N9F34B1Swhr0IKHr6AbOgTYeoO2CXqoiG0JXQdrpwg4WGFbFDiNM1waFR1Bih40CS4PYBRGEm2++WSw9KeDGyDx97Rcsy2CXEozGYheG8j0ZBpQJliJg9T8oXLnp9NNPF9O6WF4x7wQJAnajYBcNlkoxfR8GlCt2cbGALXOCg+UD7ELDri8sFYVZasKuMSxxYgcUnlEY4EgVU9YK7ELELlMsm2BZAMvlcJXlBnYnYTlDoXb3mMGSg9vuNOwKvO2222TKWJLGbiPrsrTbfeI+rI5h1fdHjRoldgnBf+qgQYNEnhNev4nPvcr7ggsuaLQcit3IMLSMZz1nzhzafffdxU48N6zlit2gw4YNE0saI0eOFM73sWzj9k4uWbIkvbwCVLkCP/cB3Mp1xIgRwpA0dpkedNBBIs8Jp3LFMjl2/02cODG9c84J6zlQ//E3H3zwgWgXsOMMZe+G9Ryo41BZcLo+O7A0ibZModrXIOfALmq0RWbU9/F80V5CjcFttx6WydSylcL6m7gmt+sATuWKNh87GvfYYw/hLs8N6znwLIYOHdqovqJPdGvr0OZg+U+B5UHs5gR+7gOg7THvkAXq71R9Peecc9K+lu3AcjnaQjPqHKq+4j1iQVDkOVFbWyv6LSx1XnbZZaIcAVRCsBMTy8c4nxsQgfB+4TePOeYYOvnkk0V+kLoWBG0cVaPRaDQajSYBtHFUjUaj0Wg0mgTQQpdGo9FoNBpN1iH6f+LPzygUQwoMAAAAAElFTkSuQmCC;" vertex="1" parent="1">
          <mxGeometry x="-690" y="470" width="440" height="85.1" as="geometry" />
        </mxCell>
        <mxCell id="FQut2yndU6wkRieja00U-18" value="" style="shape=image;verticalLabelPosition=bottom;labelBackgroundColor=default;verticalAlign=top;aspect=fixed;imageAspect=0;image=data:image/png,iVBORw0KGgoAAAANSUhEUgAAAJAAAAD2CAYAAAA56w7/AAAAAXNSR0IArs4c6QAAAARnQU1BAACxjwv8YQUAAAAJcEhZcwAADsMAAA7DAcdvqGQAAE2ySURBVHhe7V0HYFXV/f7ezE4IYYQACSuMsPfeyBJwa7UqWq3a2tra1lY7/lY71Fqt2uGuiggIygYZygiEPRNGCISEJJC9d17ee//znfvuy0vyErIeSej79HDvPXfkvnu/+zu/c853fkfTZ/LdVtSDnoFeSM4ttW21HngfRFu5F/czUaC1Ld1wo0lwE8iNZsFNIDeaBc30RQ/V6wN18PFAXnG5bav1wPsg2sq9uJ+JAulE+xm1+HD5l7as6igpyoe3b4BtywEaK7RajW2jNja891eMGjEUY0aPlNsaTdWxVmt1znJfzbyaKCoqkktfX1+5dHY9NY/bde2veSzh7Hhn56vgvaj34QyOf0fFhk1bkZ1baNuqDqvFAlOlCWazGXykWq1Wnm+xiGuIa+n1BpH0tqMdYLUoS41rC5KOAd6YOWOa/Znw3qKjY/D1ph0KgbzEvX2yYo3cqUKrsYD371dciGJ/JwS6Dg6t/QCPLn3QttV8FBQUyKW/v79ctiZ4L429j9zcXKxeu9m2pYAvwmQyoaKiHJ5GPToFBaJbt2AEiGszPzMzC6lp6SgoLBYk0cHD01OSS4VFEI7Q6nRy6SrcsXgeunTpYtuqwqK7H6nygbTiHph0gkw6QZ5KbSUmZKXiYa3y4txoHhwtGkHrUl5eJlZMGD96OH7wyEN4ZOnDmHvLLRg/fjymTJmCO+64HU8+8TjuvnMJggJ9UVpSLK1UW0I129fZ+01MjDqM8ZdiYIQGxzp3gu5ksjiqujl2o3mg5SkrLYGPlxF33r4Es2fPkhatoqJCkKrcnrjNY/v27YtHH1mKMSOHoCA/T5DPVnS1NsS9VSNQZskvUBSxCHceTcOshX9C34zvwaMoGRMuXrYd4RyV4uOqEMlsT27C1QcSw9fbAwvmzUWvXmGyuGKidSFh1ESiVFZWSjJxe/bs2ZgwdiRKiovkdltALe/L3xyN090Tkfr0VoQkvYjV2V/AZ2+MbS/JYnUgipLo+OlFopVmqs+5/l8HX3xZSRHGjR2N0NCekiANsSgkF4+95ZY5wl/SyvVWh3jZtQi0P6grTqasQZfcl4Tj92PclnUHkmNWY9ab70nLQmqoRNFwWxRvrATIioBYN4h8J/UFN2woKSlB3z690KdPb0mcxlgSHkvi3H7bEhQVFohKTisXZY4EstjWNMLLP/TWSKTs3o7YP07CWu1WaBI6ouKWadLKGMRJOlglSbhuEJTSCYeQZPIQlkers0KnMykXcxG2bduG5cuXy7Rx40akp6fb9rR90BHu0SNE+jxNKYZ4TmhoKCpNZW3CF7ITiIRgDZEWJm33r9A7dDheLiqDfnAuxL1Ck5WLXs9+KmppJuU4Wh5ZczNDr7fAKGpurFFoBZG0gmKuBmsp9913n/iS++DSpUsy7+TJk3IZExOD+Ph4HDp0CEePHpVp586dOHv2LJKTk7Fv3z4cPnzY3jTA4/fv349jx47JbVfCy9MDAQEBTSKPChZnvYXvJC5iy2k92Akk7sZeNA0M6IKrvT7Fx1OK8cGpCRgkPH+PjEIUHksQd69HxO6xiDjRH0OuTFbOEZdhNVWn1bF98YYgPz8f586dk0Tp1q2bPY8oLS2Vjicd0w4dOtjbMDp37owtW7ZgwIAB6NixIw4cOCDz4+LiZF52drbcdiV8vL3g6+Nj22o6QroFi3/bEIH0OhIAMnE95Ynt+OE+b2yZuBD3mTrgy9d34mp5JQb+8zZYLvvCktAJ5ReExRG/QQNhgaxmYYXyEGLYUq2xy1Xw8vKCt7e3JM+VK1dsuc6htsGQSCEhIXLZtWtXXLt2TebzGiQXr+dyiHup2SbUFLTENVoC9jfNlmfHdOrZD9Ffr8XAtzZi7ez+SDNbEVlaglNX7xfk6YLyRAMS5x0WP0QrCKODWSSLLhDZlsXSkXY1jEYjwsPD0b9/f1y4cEHmqcVCfTUUOrEEj/H09JTrNxLFxSUoKi62bTUdaWn0+1qbRA7tQDrhwuitGnsa+sYzePXrH+H8lHAU6wyIsppgEOYp++gFlF72Q+rze/kxSYtFwhhYDbNbVNebVvorX331Fb788ktMmjRJ5sXGxuK7776z9xt5eHjg8uXLMBgM4oGn4eDBg7JI4zF79+7FyJFKP92NRGlZOfJy82xbTUdCYpK0Zq0Ne1/Y2nUOfWHCAvFjXngoGl3OJcLv79vRW7jZAz28MWZwV3Rb+QvbgVVQf4u6/OZzd1+YI/Ly8vDl15tQVFSIXj274ZY5s5v8W1gR+HzFGgSIj0HLEqC1+sLucdIXJpPwYayi+LqqN+DJ1Vuw/L8P4bnYd7A4+lWErPqFJImS2CPP49Vt28XagHPXVuHt7YPLwnokJCTachqPbdu2w9fPXzxv++trNdjvgLUn8lgmQYSZd7yM6Uv/hskeneHv+SC6PfM9saOqpibLPy0dwiry8EPQCq9axwYjN5yCH6fB6IXjJ05KS9IYsN1n//4o5BWWimuwt7L1YScQfRmVCD9d9w0s2cW4BQHwELdpHJyJwn+/DwNJJoo3JqMgiTBS1ZL4XxBQVOrdBqheUJaRW1CMXbv3NphEdPoPHTqMqINH4ePrJ4qutvGR8p1LyP4sYUGYdnXqDnNIR/TRGKDtmI9rvoUI2jJVkIw1LiXVBLNkM4A4n0s36gZfPouynPwibPlmBw45NGrWBBsNSbINGzfh0NET8PUPEM+Y5UTbQBWBHF667vQlnF31awx9ZioMYXkwWUpgDmWfFxVzooiykUUlHBMJqFowpua0tN6MqPk8+BF6enqh3GSRVmXN1+uwectW2ULOlvFTp05h9+49+ErkU82YcOUaPL18nCsTWxH2Wtj2bavFixdvvgaKCvLhF1CXIlF5KNXNqZL3yVtvY/TIoRg5Yrjcbi4KCxU5qJ+fn1y2Jngvjb2PzVu3ITffefsPrQxbzitNFZJYOvF1knCVIp+t/Czy2O5VE62uSBS1sDolrSrq1ETXgE44PlYHIn37+Tvw9DCgqFgd9NY8i2S19Tw3rObB+6jv79Xcf73jq4P30vD7UEBSeAiL05Jo+wQSD6qkuLAWgWQxdZ3n9+3nb2PG1IkYNaplGuvUfi52RLY2eC+NvY/1wodJuZZp26oOWqDS0hKYhAXyMBpgNBhEjcuKMmGVzGLJLhYPj9qt5m2SQDSdsmPUbIXBy4qnyq/hHX0Pua8xcIvqq8OZqJ7V8rKyUmGnLAjr2QMhIcEIDAyEt5eXIJVF/p2MzEwkp1xFeka2bPtx9IHaAoHsdkRtRNQbNHihIA090n6DMYlJqCxqXtHjhoKa/qW0OiXF6BLUAQvmzcHiRQsxbepUDI6IQO/evdGvX1+MGTMa8+fNxe1LFmHiuFGorCiTcti2hGoF0Qh/D1i0xdi/7ST6npiJkoCJ0EQnN7pdhzJXN+oGLQ/JE9YzBAsXzMOQwYNlxy7lJ2zvURPJwmOpFJg5cwbmzpmBirJi4Wy7VrDXGFQjUHRhGfpl/ByFI5+C9+qjGPTkA3i99A1Mio21HeEcNTXSNT42N2qgrLQUIcGd5GA9kkMlDMlCF8Ix0VKRWFwfOnSosFa3oKioQB7bFlCNQOIekdrpffiXbELCfduQ8Mz3MOCKFdqDZ+X+mkRRk3SqmYSpYjHYBrpo2ixICA3MsnLRqVMnSRyS43ogYXju8OHD0Cu0u23ITxuStBLCfQZbKnKO/wo9cp9HSccHcHvurUg+tQEPvfWJYEZVXxiT4jdZoWO+IA/10XrxLJjccI6S4mL07dMboT17NtqKkGgk3JzZs1BUmC9c79Z/0FUEspGCJNr5ziA88NYemIZmYq3hO4w66YfEKaNRrrVI7TSTHH1Bsojj2QptFCeTUDq9GXqt60X1mzdvlumDDz6QslZnoNDs4sWLciw7NdFtASZTOboFd22y+pEkYrHnYdDByrHnrQw7gdSuCL34p/vZt7FmYX+Ez3gIlUPSEGPUQ5eVjdGPfQi/yv22okpRLuq0ZtmIqBXk4rb8KG5AGTZkyBAsWrQIkydPlmIxYs+ePXJ55MgRqZc+f/68FNLv2rVLtt2cOHECp0+fxsqVK/H111/bOzKZv2rVKjnCw9XwEs5yQEDTRmSooOXqFRZKNtlyWg/2N03yUEjGREJs25WE2JA8eMQFINzTBxWFpbhyIh75nlMQ8c1YDDwQgYExEegv1kkYi1UjJSFaYZH4n6tB9SEtEQXx/fr1s+VWR1BQEAaLGs6IESNkw9+wYcMkge666y5MnDhREo3IysrCvffee0O6Sby8PFtEe92pU5D4tw0RyCB8GYNggF6YInaUGk/8Gc+nBGHx2OfF594H6175DtfE/fZ96XaYEzrAdKkjLo0+j/iFx5VxYtKCiXNZCJJJLsbAgQNlEILhw4cjKirKlls/2AjHhjr2K5EsVAkSDNXCPqgb0VFJ69ESNSj6Qm2APw4WSLhk7JJXxnVZETf0OYRkAf8Z1x/W6FikCnN52mLGqfiZMF0OROrje0WVQiENk14wyCjIp9fpxFI4QzcA1DwzFdtE6qylEOp2TbDYYIswHz79IuqjbzQoqi8sVGIdNQdsnVaKjdaFnUA6q1YKxlRRfUT033FP9Ot4+sMdMI3qhyNWEymGwpRs5PzpM2hMeuk4K4J6cSGHj+pG/C4OFuQYLw4mnD59usyjn0P/hlaGZCFBOLiQFubq1atynb7TmjVr5ODCcePGyfNuJMpNJmTn5DTLB+KHknI1tU0QSIa4o57n9Xf+acsSoC8k8MvTcfCKTYTnuih00+jQU6PH3BW/Ffdt550NLLYUeauKPWu/wL1332nbaj7au5yD/Vqbtn6LsvJSBHXww/RpUyXRmwKOxN25KxLePj6ixFCGVbkS8+ZMk21WNfGjn/2mqjN1/cbqvfF5GhOeOBuP9b/8DAF9E5H1r2WCWAbbXkIhTW0o+VuXuTtTHaGOyiCyszIxa/pkTJgwXm43BrRcr772OgI6drFXVdpGZ6q4Md4GnWGmhY+/hwW3v0chC3yfPogu7/9E7hcVNFnlZ3WfP4Ac4v3LJIhIQf0NcoHaLfwDOuDIsRP2AZENBYuudevWwdPHXzr9bQFVBCIrpFtvxZBl30CXkoGezNNVQDMyCXovUdPRmKEXRkhKWEWSclZxBV5EJpLLltyoGxzoaBGf4/Yd3zWYROwP27R5My4mpMDLy7sO63/jYScQyWAQ1oPj4kuGhiJy43PC5xG7Oxciqbwc2lCxT7BGvW2rLKqU5KiTZuK13Kgf1ENr9B7YuHkbNm7aVGdgB9YY2eb1r/+8i4SkVAQI69VWyEPYCaSC96Y5m4zOnn7oH/86PMNyBXFE9XfucaUF2kYSgwzGoKSa48NouDyMRlnzcUNBfHz1MIF8TrREPn4BuCSsykf/XYb/vPs+NmzYIIdd79z5LZZ/sQL/ePtf2LhlB/RGnzZleVQ0Q1SvFHesBTiCMYOY//Ebb6Nn92CE9+sj85sLhmwhGJWjtcF7aex9HDp8XBRbtb5XCTrGZmFpzJaqiGV8E1yTInth0hk6pyZuClG9LMZocmpAFdW3VLxEs1mJuKGjp97K4L009j6KS8r+B0X1MAsCUVRva7HVsMNUEKIBZjRy1b8xa8ZUDBw4wJbTPLT3avy33+1CXHySbas66CAz5mFlpQkdOwTAz89HrJuRk5sriecnijm2+dREmySQtJSWLEGSThhTlI5xnlr8x9BZ7msM3KL66nAmqme1vLi4CP6+Xhg9cgRCuofAx9tbqaWJ4qysrAz5+QWIu3gRx09Go0NgkNynok2K6t9Nv4IxuaUYcnI4ZhSagDzn8zu40TjU9C9pdUpLijBi6CDcc9cdUkAfFhoqFQQkJ7thGDmNFnz2rJl44L67YdRZ7QGy2gqqeXX0Mv4TOAJ+Kw8g6NJr2G4cJWpkKXj4WoJyQANAlRxlrm7UDVqeivJSjBk5DNOmTpFfN51lVtm5j0s1cZsOe3h4Pxne19OgUeSstmu1NqoRyGC1YFjJaWRNfQGBKw4gOHM3vs5/BZdznLO+pjZaRqi3VendqBuMNN+/X2+MGzdWaoNIEhZZrIE5drJynfnqfk7Ecucdt4macZ6c4actoBqBrKJKfjp9BjqWrcH5B/cAD70Ia4o3fPafg8ZgqkYUZToDNiQqPrVsUNQJ8ogr1qjZu+EAOc2BjxeGDR0CH+EYkxyOpKkLKpm6d++OcWNHiuKvROS1PolqveqYgfHIPPJzaPd3QtpHMbg39xbEH/wG7wrHUSWLQfpLlHJoFI0087gunoNekErXBn5YW0VJSTH69u4l/RsSojEgiUi48ePGySHnlgYQz9WwE0glByWpZ378Lf69tyeWfT4Ua7SRGJLWEStikuFrUSLUa6wKWeQ5WkEYmwOuY9BxQSAjBUIuBKWs1DEzrV+/XoZDcYYzZ85IUT17wimq58NvdQjSdOnS2Wm0jYaAJKKUpEOAb5soxqoRiN0UTMNyQzAp8g/43ekw3OUzD3G3XYZHTh5C7vsHQot/LQ4qx9BrY2DRCsKImoEaGljWNASR5Ex1LgYDhVPrzKmQ1JpJTVE99dJcUjzGqjf10IzQ+s0332D16tVScK8eT1JyhIer4eXlIQnQkGKrLvBcTtRCF6K1YSeQbP9hq7JYxgZnoXTWn/HbQi0WRx7BMWGNcg+eRdK1TEQ9egoDv56G8osVGH4yHOHbxiH8eD/0yZonfChekE60ay0QERkZKefK4IgM+gXOwOEvERERUjfNqvGoUaOQmZmJBQsWgFMnkVAE21vmz58vddauhiLDbZr1cYR/GxDWEXYCGURRZBTkUYT1VkzdvAI//tU+RCAAv45OxoYtV/B8YRK6WkX1Mj4IlksdcWH0JcTPP4r40fFI7LRDFF9Uxyk9867GtGnT8PDDD8tYz7t377blXh/qiAgWISQOoYrpbwTx2f5DR7q5KG4j7UFVFsgsiiKRNCIRu/70G1x6MAqvfW8SLs6bjmgfDWZpuiCnfAZwJRBJT+4UD5zRtDTSB6KgXg42FJesEn24DjTjHNdFC8TaDEFC0N9Rx4k5gsdTMpGamoqcnBx5DKc9uNEoLilFoW0C4eYgKYlj2lz/nK8HO4H49TGxr8sgsvu8/wtohJOmyRNMD/RBcn4JzKJ2RUc0+b1PBWEMkjDCBRKp6ofwI3b1h8ziiEQggfg1z5kzR+Zz7BdF9r169ZLbPXr0kPNosHWXVoZR6+fNmyfjD2ZkZMixYQSLFaIlxmtdD3R9OJkuLVFTQZ8vS/iknJqrtWHvC5OR6ukIsyHQxuzBe09jVEICvF7ZhnAYMbp7V8za9Tu5TwHbgZRja5LGHam+OlRNNCfa9fYwYP68WwTBnftu18OBAwdx4PBxSXiWAm2nL0wwWiVPpK4cQT94AdtWnMO6W/LwQtxrmL3rt/aampJotVTyODYqyku44QQMVZedm4+zonaoapwaA3bK7oncB29fP/GcW98C2e+AHJY+jC39/Fcr8LghHAWGEnj9ep/Yq5dCetlwyOOFKWbrMx1ufgCqmF5NbtQNhqo7e/4CTkdH2x3564E+HMmzbv0G+PoHyo+9LcB+FxpaELGk/iti7W54X7yKUJFT6VMK45AsdF0zDVrBHFbz5UyFYp3DoKXfxPMEoZjU6TDdqBv0xzjdwf4Dh3H8+Ak5zqyuRk4ShyGA6bOt37ARuQUlMAorxnfVFmAnEIcmK8UY4LPuCI5v+DX66IWj3CUf14pKoe1WYAueoFieusT0ikZauaYbdYPNCN4+/th38Ai+XrsO8cLBp29FB5lFGxOHXzPww9Gjx/D+h/9FYYkJviy6bNdoC7A70du2rlYySARLJczCxLBBWf+X+2H5wyq5T0GV41wbJJWyb/UH72PG9Mno26dlNNHt3Ynetz8K5y44n3+fNcm8vBxYzZXoFtwFgR06wFRpQlp6BnJy8uHfIVD8vdqy4jalSNyxXVEk1uRGUX4+fGuI6lnMkWiOfabSn5PnChKJav1H/3gbfj5eCPBvmRZTtdrrqMhrLfBeGnsf11IzYHAS67k5uClE9Vr2qjq0A6nY+fnb6NSxA4K7Nl4O6wz0Awi1zaY1wXtp7H1ciIsXz6r+Lgz6O7UgvujaT1dBuyBQWXEePH0CxE1qwOjpDR1lcXjdh6IIm4JeYWG2nOahvRdhBw8eRvS5ONtWdVQIQubm5ggGmdE7rCeCOgWJvAqkXL2K1PQsdAjs2GaLMLu7yyLIXgXXmsTSiil5qfiVoUiSh2jMEB1+TS1FnpsBgwbVHp1SWVmJ3JwsdA7yx4+eeBQvvfh7/OAHj+K2JUtwzz134+c/ewYvv/g7zJs9DempKbIRsq2hikA2bkw+dRaTBPO1VhMOBHWC9nyWMKFOTKsbzQKLQQYNv3X+HNz/ve/JfjlWTlidVxM/QhaVVBH85rlfoHNHf1HlL2hTb8NOIMIKCwr7zYLvqn2Y/sW3GJncG9bsHEy/eN52RP1QpK6K7NWNukHLYzWbMHfOLBm3kZadeUxUKapJJRLX2W1xz913oXvXIJSXlbUZElUnkHCGvS1nkHHLX+Dx93Xwzd2OTXlvwhCbajuiClX66KrEL4iWTLVmbjgHBxGOHD5EFGsD7VbHqQMtwHyVUGw7YoDQUlGxUf2f1oY9QtmLf1cilPW/cBtuT/4FkFyIjZ5bEZXfEa95jcHgRZPwUCcHR8qRJLJhUcnQSTWiBse3uiOUOYKONyOUsejy9/PEzOlK1K+6iFMX2IVBqe6+qCPw9PZCa0coq2aBLIIDsYPW49UuYfjqyl58lFqBj4r6YnXMccQUsONPfA0ki7hftoJQ/8ykRqgneWQEDxf3ZTA+opoY+qQlBFo3CmVlJegR0s0ex7GxoCUKDw8XRBTvow0MXrBX45etZjVe+UEzvj2AF55djS9NCdj5NwNG/r0b8v+yFCenj0UhTIIuBnGkrTvD1m+hpZllN4Y0RFbsXfmRy+Qc1C8PGDBANuYlJSXJviVnATOpDWKATQrOqH+mhpoy1+aiKdV4Vc5RkJeDBfNmy2CfTQWt/QcffoSyCov47YY2Uo2XZGA/lgbHpnXDs78/huSuvbHk3ALE3pEMz4J8+N/7BnSaYgw8NgJDEiZhcOFSQRhbhHrxG2SoYEEkcSmXgw+RNRSSR23UqymqZ18SX5wapyg9PR1ffvmlFJRRaH/w4EGZz3g8LBYYrd7V8BbFTnOLYVqunk3UErU07ARiZDK1U7Tcuw8u370dz+Vr8czRC7Ae7ov1/z6B5OQc9P/wAeCiDyyxZUD0OYT97Vb0SPoTBiSHYaDxQWmRVH/IleD8GNHR0dIC1TcNNseYd+3aVa7zq6cjSkvEqZM4aoMgCbmvLnF+S4J/i6m54PxiaonRmrATSLUkagrP6ovnfrcfPuKQ0WeScTU1DVuLCnF8UxnMCYEwX+mAi9OElfr1VlwL/T9cCk3GRdMKKfEwVvOwXQMO5+HIirlz59otiYr6fAuV3CS62r92Iwivgvqf0tLmNwjm5jLK/o2777pgJ5COpZBIDDIunigSe6Qj6f5DMP/7cWTPnYYvrPnwFt5zXtl0WBKDcOWnu3mYXVRPMZqcsYcXs1/VdaBA/vjx4zh27Bj62Hr8KX2gZVLjDZIkdLBJEJKFAS0ZjJyWhwMOBw0aJI+7kSgtLUeBqMY3F1ekqL71YXeiv15bO8TdgdxMvL96Lwr+uQVTLL4YIMrv4X26IuxrUc2vxX61Kq8s3Zro6lCd6Pz8PAwZFI6ZM6Y3OVwfR5X85/2PZR8ZQ9+1CSe6piSV6am4NPQY0BldTf7oPrkvFp98TZDnl5Ig5IqaWBGj861sk0Ru1AVvbx/EX05ECue6aCKiDhwQNUs/4Wq0/rN2Wtjwvg7oy9Dlsd/jxbd2YtOzl/DkS4vEwYraUCFKVVKsTtW2iz+Idg02PZSbzDgdHSM1zo0BfTtOc3Dm7AV4CuvVpkT1BrGmCur1won+fZ8n8BT6wk/4o173HkZ5aB/lGHGsmjivGCN1kDAckSoTySOu4UbdoBVKTLoqnP9DsmhrCNiAePlyArZ8swO+/h3Es2598hD2u+A7ZyMgU8Q3R1A+ciBCmedXgJSuV9Ft3RhJDlVUL4X1ivlRLJNIGvGFqHOHuVE32OzgJUh0Pi4eu/dECoc4qc7RGSQOScZx/Nt27BQPXt/kyB6ugJ1Aih+jJP2hC4he/VsMNHhLMb2B7RYhhYIiwsKwK8O2rBLUC9IIQhn0WrEuyOQmUC3UbFpgW5CXjy/iE5KwafM3wq85iPOxsXLIMhs8OfKWwclPCeIwwuvW7d/BqjHIoqstwV4L2/7NarEl/hdWhT9V5YB518fQzXpMrtsMjlPUJM3yf/0T06dNQkQLVZXbey1s+45vkZhcW9VAsImhqKgQ5kpGL/OBtyCJ2WIGJ6YrqzCJPL+2H+aXonpnBKkpqndmXRRBvbBINoUBh0d/8I+34WHUi4ejBAhvLtRgStcdD84vvT6mtwB4L40dl0458E0daPyxu5QABTXBm2zKDU6560nbWmNgc8Lt9q8KJYX5OLj+EwwbGtFiQ4WaCvaxsZO2NZGQkIjTZ84Kl8N5Zyp9J1o2i7BkBJ+oWohS/qE36IW70bD32mYIZBTGKNtohr9Vp1gtCccCs26QQJkxuzF/3lxbTuuhKUWYK7Br9x5cuJhY7f3Q1yJxKsrLYBRV5C6dg+zz1HOwYmpqOtIzs1BhMsPIzmiDUZQq9T//BjUktjRI7qokHG99ASo9rJiXloKxunzbUUTDixsXl0ztDjUbbWl1yspKobVWYtaMyfjxUz/EI0sfliFtpk6dKvsNly59CE//6AnMmTlVvHwzyktL5HlNhcsIpMJcacLU3Ycw9fRV6Tss6+QDj5zGR6Vwo37Q8nDahK6dAvHwQw9g4oQJsseeCkg2EahJHdM2fvw4PPLwg+jWNUg68PV1QNcHlxNIbzAgf/Bd8F25FzPfXYu7L42Hx4l47C+4XgNalUCfiUpIN+oGh/yEdO2EJYtvlQFISRTFB6oKYM6k+kbcz4BcSxYvQs+QLnW2Q10PLicQb9q38hCuLv4Ujx1fi6DcZUi9+gJeiLtiO4IEqU4WNdFC25O7calO8BmXFhVg9qwZUqxGgjCvPnA/R4GwMnDLnNkoLS647jnO4HICiVePvIvT8VLKD/HRrIex8+SHsKYEwmNvDN7QFEii8Bgl4kcVYRi4nI62XuQr2ms36kKhcOqnTp0sddaN9Wc4IoSkmzljqqgcOPqmDYPrfSBBhviZl7Dwr+eRuXU9LhRkIiR5HBJ3H8Sq81cFSZSqOw0MScJEbRFJROJwSaUAW7xdCUpdmdasWSPlrvyK2wuKRA21d69ejR6vr4Ln8XwON2osXPZaFI21QgYTdJj63HQMDh6GP67wRur3lyMiJQ3hBSUwG0ySKBw9rdFaZI1N7R7RoNIeyBxinyvB/qaFCxdi0aJFMkYPA3g6A6fdpt6a0fGprSYoYqMqkvkE9dUpKSkyT5XNuhKdgoRF9zA2qQgieB7717p07mjLaThcRqAqfZCSjj80H7F9NyN6eDeEfPNzHBiQg8yPdyNs6UeCLZWIODAeg6MHIOLaDEEks2KZBAPpO6vJ1eBLZyRXRgOjg0kCcNgQQeIQdDbZBkQnlP1ZPIfabKoiKfQisaiI5HV69+6NXbt2yfNcic6dOjW7g5Xn8zqNhesIJN54VWerKI50Bvz1swG4J7oCb22KxfjUHlh/PB1XolPR752FsF4ywpLgD2tcOoPFwmI1Q2fMQoT38wqhyEIXQ/UfWIthh2ZdcGxEpIy2Z8+eUrjP8e3qeRToBwcHSyK6Gi3xbGiFmiJQcxmBWATVFOr3C/XBUL0Xfmm6iDLhIaeYLbjcrwOQGASzSAl3HcKlWecFYbQwsIne3AVxFa/BqGFMatcTKCwsDIMHD5bTI6hDgdRigTUWZ6BATPWXeExrSC04t2pzfTbee5awoI2F6wgkPmYK9B3T2A1/xuuf/hyWHz8I/fBROGSpQPaZJJzOmIT07/2BnpAUp1VFvRfOszjvRoFTJmzcuFEWO/369ZO1GhZhHG+mDKNRHE7mkTiUXDCYOf0cFneHDx+2C/xvJDIys5vcjqOirKwc6RlZtq2Gw2V9YQu//0Qt08qveeqOKFRczsG0t7ehl0aHAT5eGP27W9Hp7um2o6rA09VLcP76+CO7MW+uuy9Mxe49exEbl4C8/DzMnDYRI0eMaFJNjCNX6Mft3LUfHYOCbLlVaJW+MGci/c3mfBT5+SK9/J94M+7f+GncO5h38jV0vme6nSxq7Y2pOv9ugBfdTsHoZUeOHJdDlpoCfhAHDh2BfxP8NZcRiOD4ea30IdieY8Xf7v83nvjBJ9j1984IeWmJ+OsV1WprPM5xu0pnzcT9bjgDa4MVZisOHT4iydAYMNIIz6swcZx945trXUYgtiDT8SUhGOF+zNsboE3NQndBhgmde8PwfKRwlI3iBkQRaUtGYbX04o7UpBPnsQbHovBGzADUnuHj44sLFy9j//6oBlsikm1/1AGci70kp05oClxGIFYJBXeU4OOwwBAagL17/oI+bGvulY0c/wwEbxsqiELHWUk1QatFElGkTyK5UTfYZubt44fzcZex9ZttwtG/UKdjzfwLF+LkcSSPjyCPjj5DE+A6Aokrq/fkxTblhFxUjn8ZY+Nfh6F/Nrb0/S10XQuUBkP6PSSLOF4V6KtR7wV/JBFpf2w1ajdsqNnyzCLIW1iia+nZ2PHtbmzYuFnUIPfi9OlonD9/Xi737o3Ehk2bsX3nLlwVJYKXj0+Tii4VLquF3fv4k+Lq9H346qtDS+/ISb4jSBoV7FQtFLWwjZ99jimTJ2DAgP62Pa2DtlALi7t4SRY/Zovz6Z7YLkRxGd+fQXyNPIbrpkrlfXp6esmmiIagXkmrGuJuwYwJtuzqoKa2KSHUxiz8vm2t6XC0qpQrnN61vkn30tJo6jNpaah659YMcXfDRfUai7A+jubFBta2ZHlVB6iJPr71c0yfNhWDBtaOuXwj0RYsEH2Yvfv2C4sinl19FkiQzCgsjU74B2azIibTCMK1lAVy+MZdDFFeP+FRCI2uEhYde935w6tSfeRREdqzBwb0D5d9Vv/rKTy8H/r0Vqb2dAT3UaIKayX69uqJaZPGy5B6ixfOl8upYrtf71DhXZhRxGmmbFasqXAZgVRiWKWg3gKdoRIfmn0w6WoqJpqb1uDVAI79T6Gmf1lZWYnSkmL06tkNixbMw+23Lcb06dMwbOhQ6TdyyW3mL1o4D71DQ1BeUlJnP19D4HILNNLbiBnb9mHivlPCCIkf6DcSnidTbHsbjhvYJdYuYRaWp7SkCMOGDMCtCxdIC6V29LKrQk3cZq2rX7++WCiOGz50EEqKaYmaprdyOYHOllYge+h9uHPXJiye+WtUXu4E7bV0TDp71naEczhqo5ncBKofJcVFGDKov6ilTpZRaWlVmFiksbqvJm6r+3x8vDFZHD9iaARKWOw1AS4nkMVaiqDSw9g2fBYSnzmKwLxPkJH6KnzOJ9QiiaiR2pe0zkxqUVg1ENGNmiAZOBP0uHFj5QDC+iLfq+B+Hufl5SnP8/Eyyus0Fi5/LVZ4Y3tEKJKv/RkhWb9EVvcfoHv87ehwMQe/ybtmJ4pSnAt/ibUxkSRh2KgoNtUg5m44B8Xw48ePkeJ4WpjGgMfTYk2aOB4F+Q2LVeQIlxFIIYSyNJo02PHRMJyO/Ar6PplI7fwN9u3Zi0MJOWAFjO2gTOw7Y9R7GflebHuI6r5UM2rY0edaAr3//vtYu3YtvvrqK6xcubLO/qTIyEhZjb9y5YrUPrcFmDgmLCSkyWI2+kohId1hqmi8psilBGJDIJckQ2jsaxjReRL671oLDEnFrkul6FlWJnybMml1dOIgDXvn2aUhjtdpzWKdUTDEF8WMGwAO/b377rtlm0dmZmY1TTSj4xMkDqPDUkCvCu8pJCPxvvvuOxl4gQI0aqOZFxUVJY9xJTj+3UOQ53rFVl3geUajAV27ND6Kv0sJ5Jh8y/VY98M5OPrBKmjPd8OzSMK6D6LR5dGPMXDVaAzcPhIDjw3FoKQp6JLwpjhHU01QLy7hcnDuDZKAQQhqBh1nHsEazOjRo+WUCdRCc0QGLdIdd9yBoKAgSSzeO/2JJUuWyJiGrgYn6W1oo2BdYGd2x8AOtq2Gw2UEYg+6RiOqjFqTuDmznGGjy+CeeOQi0HHU7+AzfhpSos/jn3HiC78WDHNCR1iuBCK2VySy+z0rbowdqUqilIMdq64G9dCMYN+tWzdpQRoCkocifL4ACujVoo8t1SxSboRG2tICk67wOTelKu86AkH4LbL6pJdkMOrLcWL4/2GY2Dp02yQY4/JRUKFBX4MPkg6KamVCAC7fEwWd8J5V4nCqTeqj5TQMN8AGMW4zp0bgsri4WObRyWRtRZ1uqibogLLYIjierDXiBmVmZslhRs0B24gyMjJtWw2HywhEUEhvEMUPlzAbMersG7j3/JuY/PJKFEwbgH2aUpiKKpDmuRBX3/xSWBmOxlAGI0pRvUORLvjkUpAIFNRzdCr9HNUS7d+/XzrV6vAcFlMU3ZMo9H045QJfHv0dRsKvGf2eH4KrkZWTZy9imwqen5XduLDDhMs6U299sHpnKqfT5LQIw7YdhEdCFqa+uQ29hXUa4K3HvNNvCkfOdqAN6nNXl25RfW2oovqi4iKMGzVMtuc0Jfo9BWZHjx7DoaOnnOqi20CAKTppWnxTWYo5fbph76FP8Xrc2/hJ3BuSPASJwqQK0dRtFY7rblSHn38A9h84hOzsxo/rIhjwfO++KPi1JVE93zftFhMdahZJf7v19whf/A48D4Qh5E+L0eOVuxS1oUgkjUGYIZU43Kbhk0lYSJLQDecQjwu+/oH4btdu+0QzDQXJwzDCfuJ8XqexcBmBqDpUrIZYijTkoy0oNxlFsQV0DtTD+487kPG7r6V0ldHuKaLXCJZVCeqVm5NJFG9MbtQNjgfLzM7H1m+2yzashoBk27L1G6Rl5sLDNnCyseD7cQlUXbNBmB8P8VcMkTH4b1hnDJraE+idh59NeAIhu4fLNh7FAVKSOi6MLdA1g5m7UTforFMcn51biBUrV0sHX61J1gTzjxw9iuUrvhQOeKGoEPjJ85sC8WpcA8cbMoty6ne/vBs9I+Mx8LOfw2NAJhb6dYG1a7nSCs1qulpdF8uqYk0R1avrTWxovWlRs+WZz4iR7LUGT+w7cBQffvwJln+xAt9++61sEefyiy9WivxPEbn/MLR6D+V4frFNhOtE9T+sPbS5CrQ0zvfR6ojbUjYE1F74woI8fPXRJ4gYNABhoT2UzFYCv2BW+1sTySlXceZcLPSCBM7eD9uvqP1RddN8oirdZJxovV58uA17r/WK6l1FoJYG74NCfW/fpoVLYdHoLM7izmVvwUAnzA71GPVxO24r6xZLpXgJ4qFVO0Zdrw81r004y3NEzb9fdZzS884i3/FeasLxnOrn19xmd0hpaYWMH+2Im55A5ToLPMxVZphDqhVf6vqmOTFqPRbdusC21TC0lXYg3gfRUvfCwYi79+6DVUNCVqFtiOpbACqPrVZFlF+pK8e0imxM9THJbTXRp2pouT582FDZVeFOZimDpSCtMWhXBKLPSILsshThncp8OaP0fq8gGM8kY2xZ49o/3GgYODSoPrQrAqn4jWcIvloThdFRJ4UfYEKyYRqMuSW2vQ0H5bNu1A064TpN/T307ZJAOkMassf+BNm+P8YdU36GgERhhY7EIcPiTFFXO4i5or2mn2Q7xI1asAhzX5Cfi8XX8Q/bJYFyMyaiU8YXCMt6H3FPxyAo+x1kxL+De/efqkUWJrUtyZ7Er6ZUxC3Udw62L5WVlmDk8MHo1av24EVHtMtHeCkgBt9Nm4jkQy+he/rPkOb3PCYc6Av93hjsqsizE0VxqhV9NRMbLVWZCGNTGxyqsG5UgQSi+mHypEm1Gitrol0RiKSgtAg6K4ymUqxdOwB3fr4aiIjFvr5X4bdgPI6l5wqCKFMjqCM6VM01xWlUR8puEgYxr15bbXGsWLEChw4dkpHvly1b5lT0xRf0xRdfyFrQgQMH6g0vfKPAWZV8vD2luO56aHcE0rF9hx+FzgvTd/TDlmGjEXLgK2iHJyP3WiYO/XET+uTPlYQJT/4lBpc/L6r04lyYlSQuIiPii/LLam6+FLQ+sClhwoQJmDhxonRImSg8Y2xpanA++OADKdxnp+bOnTtx8eJFOeqD0V8/++wzbN68GRs2bJDEW758uX3UCAnpSvDx9grraWuorB/tqwhjN4dsUVYsSvkzWXj7TBoOvLUD2rOhsGQXYtPpq8j98XyEr5wIz/N7YD61CX2PjUf4vhGIOB9oF+nz5TanD6ghIDH44ml9xo4dW0vuSutD5SPVjvPnz5dhhadNmyaVjZNE8cFpF7hPHf2hThrHKPiuRkOsD9GuCCTjLopiiLJXnbAmFatfwB3/3o6et5/F09uC4ZGej/RKC057Ce8mvhPKLwfK6PdXxh7G5WnRuBCRLy2QQh5xDeEfuRKUv95///1YunSpnItDHSJ0PVBbrYbrZXxqNVQd8+ruX2xBCGKXljZsjFj7IhCT+HHspmChVDT8eXzy7r1I/cNmPHfudejPp2C3xYTCzFyYkgR5LnVC4oMHlGJLnMPQw9WDmMvLuhScd4OJBFJHaFDAXlOzw/0qGMyJ1otE4rkNtQYtBvG8OH99Q+CyCGUtDd7HxHm3V4smSmKwGHhm20GYr6RjQGQ0ggUx+hi9MKh7CPxecR4lzfEjtmYmIji4q22rYeAIDQ4jvh7o3xC8T5KC0e8p2OdYMpKCvg39IzrPdKI51oz+DwMeMPA3+7o4Pm3AgAHyWkOGDJHX4pAjnqeOFGnIvTQUa9dvRFFJOXKyMvDUE49JC0ifrc4IZe2JQJPmCwL5seNQOHcc/iPWKjQWPLPzKJZt+hh/Se+OEJF3//JfwaJ3lFvQaimscSQPYclwHYFcDVcRqKS0QkpWxo4eJqPf0xre8BB3LQ3ex+y7vw9ff8feeCveKcrHdyOewsmXkmCauRUFwQdQoqtqPVWJUx1VhDKnxiMkpJtcbyhu1t54girFYkEg1sCyMq7hp0//SBa5N0VvPKPe68TLp0ifadxvluHrEc/hVl0naEYVoWLVvbAmC39H/MdADfSZyBMmtvnwO2DtzXEaBjecgxWNgA6dsH7DRluOc7QvAgkHmHZDJq0FlqHd8Gd9Bzy65TkUPjUbXl0LYe63AAZBEg0JIoiiivRl1Z3X4FIkckfbAkOCb2ZQaJ+Vq4y6rQvtikBsQdYLUtCS9Iu/Cs25q+glquJ+A0Nh7JWN3B9EoUvkQEkWVkWlClEkWWV3SPT5lKX4x416cT3/ql09QcVtkexAYv8QnPn7I+hFf4bWpn8GLFYtSkfcKYsmWVyx60Ik8b+9KFOSIJVYMsVdvMiLuiGQKGqIrA02Bu3KiV70wAPwC1DbREgkBc4dZYUoSqHnCIVwtlV8+tY76B3Ws9Y11E5EZ/nsknCMulHfsY25bmOPpXNL8F6cHdvYv5Wbl4ec3AJRdFUfHn3TSFrT8jS4mg1b4rqSUrLgNCVnapCUCZlSctSkkfkyZfEhctij8gAdkwpn+c7yCGf5zvIIZ/nO8ghn+c7yiOvlqfnO8vgsBLNs6w3DTSGqnxRsxYE05YfT6rDHvqETyKaf2IaZM2rPllgfbtZqfGLiFeyJ3I+yiurF2E1jgRTvWJBD8JlphLEzDlhL4XEuDRq98GtEHofuNGb24f7h4bW+xv/VFBYWKnzHxhmLdkUgOQeZ+H2lZgtSLYUIuHAIU/WeKM8pwNjCDNtRbrQk5LQJ9aBd1mPHa8IQ6GOF5+e7MPX9dSjRzUWn00m2vfWDHg8NtCp3daNusK+uc8f6i8d2SaBg7RlkFluRNv8fCP5oL8yXOqIkOxNTTp60HVEFR200U6WwYtRCs5RrREn3Pwd2ZRTm5+CO22+z5ThHuyTQFnHb86JuQcei93Hm6XPomvsKMmI+gOF8sp0ojiMvHJPiJ4mLiERdtBu1QX+ouKgIc+fMvK6D3i4JZIQvrv1iFjIi38aTawcizf/36JU2E3/fcwKbyrIlUYxsLHQQ1EsRvchXBPUMYk4iuZZADBvMxLjS165ds+W2fdD6FBXlY/jw4ZJM9aFdEUi1Ivwn6/hL+Pp37yI4UQf9kAxcsh7Db5Yuwd4rmbKfS9geSRbW3BQJLGtn7IhlrEazWLfILg1XgrofyiD4Fa9bJ3y1ktqDH3NycvD5559LgRkDlLcJUb0gTZdOHe2qyPrQDgmk9G0ZxX/3nZ6Mvzx6Fr7HP0Gv9EBYU3Ow8b3DgiBlqBTHDI6ZjGHpk6HTVkrCcP55sktrFX6QWGVyNahzpniMrcVs/XUU1XN6BZKMLcoU1FOVyMDkzKOA/sSJE/joo49k7Glqq3fs2CFHeVBs71IIAoX27Hld60O0KwLRYihBqJTlhSlxWLViOPb9dQcei6+AObsAsXtj4XXf+4j4ZDqsCSaUxxaiz7znELp7PsLi+2NAXldYKEYTL7Nmc35Lg7UYKgkZLSw0NFQWDTUxcOBAGauHInpKKKhaJIFGjhyJUaNGyf1q8Td+/HgZDJ0CL5dCPBdv74ZFe21nFoidoEwclqOkB97dhP73RqOTxQv6zDykaUw4JyyOJSEAlZc74+KsY7iy4x9ImbkdyX0v4lJgJozCEtE405K5EiwCFixYIEdXsFc7ISHBtqd+kGhqXxtJpRLP1YR3RF2TzdREuyKQ1iJ8GSarVjjCWrEOXJgci+7TXsHfb+8PfWImDlRWoiinAKVxHsjruQRGLakiCCN+qVG8ADrSOlGEceJfCutdDWqbT506JYsoDtFhHGcWYdwmSAp2ztLqEJSScg4O7r969aokHbXSNxoJiQ1sV2tPfWEz73gAPn5KX5jj1zj56x0wXc7G3E8OoZcgRX8/T0zr2xXaL5+1HVEdPFU93ZLmlrQ6gpLWwuIyZGak4ac/fkL6cBwZclP0hbGfy16jojMs0kdFOSj28UF68RfCzlhw5/JHMePYq9XIoxKGicWWSh43nIMfp5/4UA8cOOjUb3NE+yKQJIByy1ynM/3FvJdw389WQD+iCG9cfAujp06UJHFMjsRRE+epbwOGtU2CBPL09sap6LNyGFJ9EI+1/YDvWxgfmbg+4sVPhdNgQpiHAZfjPdHp7Vtg3jbA1nBIX8cKvSCKGshcxynISSqxrQTcvAH1+HYKdlz7d+iILVuVifbqQrsiEN85O0O51GpN8N8XgzdMXlh66VV03tkP6FKArNknpXVRRfWOvhJHkjmSUC9J5EZdYE2wUlRY6kP7skDi7SsBNIH+ORnImzIUoVo9DJWe0IZnoHTpYXQ53l8pouxVflFUieOVtiMlSQLakhv1w8ur/qCb7YpABJ1opvjOIbjwyiPo89NpwtIA5T95BOVWHbLGx8niiUOA1ERCORiiagQ6Hd2wmQn/F3AhLg7FTrpb6kO7qsYv/v73GzwlEcnhCNkDL1fYjqTs5L8fvPmWMNX0mBqOtjTcm2ipe9GJ65SWV8DDo/rEK/+zkepVDtlHYThB1Jr3MHP6ZNtWw8BO0cbGU3YF1M7ZlrqX2AsXEZ+Q1KhRGTcFgcZ1MuFwFud+qGF2GoCC83sxftxY21bDcLM2JKampSFyXxTyCqoXYzeNqF6264iqOC12qacZo4q6ody7HMZzqcIPqrQd1Tj07NG6E7e0JXQLDobJVP053lQNiY5YsHEPfC9tg1e5EdqcIozLzbLtcaOlQDlHQUH9nartkEAaWGBCzsil8PsyCrPeWoF86xL4RZ0X++pvGKTE1SKSo0baDefgkywrLcXgAX2VjDrQLi1QsfDZ/MsikbzwPfh9dhC4ZIV/ZgWmHouW+9nYKEdfOBDFThZRn1er9a6WtLZnMNRvSXE+lixZbMtxjnYVoWz4rNvh5esvyRG+5z7cbvoZlmetwIOGJVibsgV3mobir88/Bi0V9SphHMDKOmeFklJXG7zz3RHKHMEIZQwwVVRYgIXzZiMsLKz+EHftqRY2btH34SFqHOzX8hv+AlI+mYUJf94M6/ci0XvHg1i2/wT2H34Ht3VQfiz7wjjO2bERke1AbFy0rcIrx3VyjvXr18slFYecMoAxDlsSrpJzFBSVIiPtKl568ffSD7p55BzivdOKaAQp8k++gttPleM3sVbohxXikuYM7vznj/Ht5Wvw0+6UwjMW5DKouOA/a2+qFFZVM3KfK0Hd8+zZs2XQzP3799tfuCPi4uJkHOlz585JzTOXBAVlHM2RlKQIu5jP+NDMc7XwnqQJ69n95tNEO0oy2BF6bokv/vxQIkLvHIfehpHQZhdh2Y++RKllBoKPP4Qhp8ZiaOwgDCh5VRCGXSAkjCAOiWVLrkZaWpp84RTWs8Gvpqie00zyRVH+yjwuqWJktNauXbvapz+gwJ4EpMBr7969tqu7ClZ0785wpddHuyKQakHUztGcLjPx1y/6oadgwktRiTCkFSKjzITM772FDsfTYL7gAVOiL6wnPoeBRZn4L8z8JsJ9/iRIyKLNsWxzDYqKimSLMUdecJL/mlB9i759ldoOo9lTRM8ir0ePHnYfhOjTp4+Ut5aK2pFroZHFbkPQrgikcRDTK8mMwAGeGKXpjHUeZfB592Oki0IuXxga6+VAkQKQuOAoLk89I2th1Lik6H+BhPIXZcBxJldDHV3B0Ra0Rirqa6BjhIzKSqVBj8uGvsyWRLrwexqC9mWBxDPXC0tSlbRYtOkvWPOfB3DstvGonHoLDplLYMouRkGCBskvb4FV+D/s4lAj1Bs0WuFc2y7oYnBYD/2abdu2yfFeISEhcvqD8+fPy6KJRRfJQiE9t0kUiuhpjVhkHTt2TIrtu3VrnJPfXNAy37Siel//2mH/h6/dBY8rWZj34X70Et/EAF9PTDj1KoxOwv0ppZbwh2zFl1tUXx2qqD47KxM/WPqAJC9Hzd4cfWGsQckaVVV6Mu0adD5euKb9GH+JextPxP4D00+8Cg9hrcgRNcl+NJGUbYU8bjiHRjwo/4AA7Pz2u+vWxNoVgVTwphUiWHBh+lP4/rMroR2ZCqvWBIuuwravKjnW3tREo9oGDGubhHg8MBo9kJqeLYvS+tCuCMRpnqhlpu/Ldz/69a/h6dERoWI95qlx6P7uHPgWrXbQPFcJ6h0TLRefklh1ow7QSvv7B2D33ihbjnO0q2co3rkkD7tefn8uFsZzKXjDGoill95C33DhJHcpRqXf3fIYKhCdFVUcHq0404KEbgbVC51w6j29q0+SVxPt6hGqfgzx8oi+CB8dhjCtB6yCLYbwfOw5+AyCoyMEeWoK6q12QT0DjzsWZW7UD8d42M7QrggkrQrJIZaeMGDNL+5EcNyr0pcpenc1hry9FFmjE8T+moJ6dl8o1ktNFC9ynNihw0dsV3fj9Olo5OXX7m6pDzedqJ7TYlpkYVcdJB/36MQ3o7GwW0M5hqJ6s33yXdY4mF9/zcNqFX9BCq3V4xzPUf92/deo/XdqXuN654sjZA2JTRKO99IQOP9bvj7eblG9I3jb13usMduW46476w8kWRM3azvQyZOncejocRiMDSdQuyrCasOKx5CPCR0q7O1Cjqkh3+SUyRMF0XTuJNKYMaPQwd/P9mQahnZFIOlES3JYMVdXILYr8ZHOD3pRG8u11J7U340moEbNgrGL6kM7tEBW+GkjUbnhCKYdOiXjHfpkl2BRTuNF9VQ2ulE3OPVTSfFNF6leg0LrdOSPehSeK6Mw92/LkW65B7ojcYIOdfdw19RHy2RzpN2oDTrolLVOn+Jc6qyiXfpAGrMJ3uW7cOWOT/DIqZXwv/werqX8BdMPn5ajLoRRspNECTiuWOZqSeQzueEcLLqCAv3k9OL1oV0+QqvWgOzYh4CzvfDejB/BIz0dlZe7wmvncSl5JYFUorDI0wifievcxwDksiVarEvNtBu1QK1SQX4eFt268OYaWGgnhdaK8/P3YeMn4bi2YSfS/N/FgKQI3P+DW7AyJ1UcYJVkYZKzNwuecLZnalitItEJZ8Bxtky7Eu+99x5WrFiBzz77DN99950ttzYiIyPl8kbonRsCFl9Wi6lBOqR2SSAZKMpowBM/mYNBob3QMehlJN27Fh/HJGLL5QyMLuoqW6xJIA5DZKszNdR6nUIadnGwN5b9Yq4EddAPPPAAli5diuTkZBlInERSNdFcp5CMYvndu3fLqKxnzpyREth9+/Zh06ZN9t5wHnvkyBEZZFyN8OoqkEB9eoVd1/oQ7Y5AskiyESnqyfm4FLwL2fon0GvD3TBkFWHtk6sQ65OEgesnoH/kUESc6I8hWUtQqS0S52iqCepJRFcjKipKkoOBxkkoR100VYoMHM77ouyV4NCfmJgY2Tg4d+5cKa5nnEIuqYemT8Lg5a5GQ8fKtTMCsVO0SlQvjAz++mUfDD3+S1huHQ5Dej6SYMblp96HJikASOoIS3InnOv8NTzgIwkjnWdNJRis01lvfUujd+/eCA8Pl+J6ZwEr1aChjCGtgpHoOfqCIzQogVUHEHLdcYJdV6Khf6JdEcggrA/F9AaLshT1K3T31mLe6jPY/+At8BbV+lfLk1GUXQJTgiDP5SDE33VQvCSDjSzsndcIR9pol3S4GvQjunfvLq0Ptc8ECcAirC74+PhIPTXB4ozByW80klOSbWv1o10RiKMqKKanFeHSKG7/19/9Gr+M/Rsm/mklPAd3w2hdMMzZZchJ64bEP3+ltF6LRLIYxYqMTiaJoxSFrgQtx7Jly6QTzWE9HJbD4To7d+7E9u3bJZE8PT3lkqNYWWxxAGJERIT0dzZu3CiJxKE9jlCtlqvAjy3xSoptq360q87UWXd+3x6pXoEVZlGjGrM2En0KTIh4ZRP6CAszpE9njN/8extRqkO2HTrku0X11SFF9SXlyMvNxn133SaL4JtGVE/LU73DVIOfpWVica8gHC7/K/4U/w4eO/8WJmz9vc3XYVL0Q2pSyaPsU9bdqA4ZI9q/A9at33hztQPRs9OKxDYdJrPBhHOT/4Cu930IjE1G5z/Oh4e11EYMFlH0BB0ViByHRSKxLUgsRXLDOdg7D50RO3bstOU4R7siENtyFJWhYjrGvL0FlV7lCDUCVx6fDM/gQlGkeUohvVGvEUvhJ4niuUpQL84X5+kEqViDY3LDOfiMvb19cPpsrC3HOdoVgei/qNrmPvFXYIxNxWfWrrj3whvo3tsDlWEe8D/xhNOgCbQ+anEmPy4SSizdqBt01lmU1Yf2RSCHu00eGIqY/zyOEJJCo4OhfxY2PRIKP++tshW6pqCe1XcmkpAGTEbrEMWcGzUgXARHyKKsHrSrWtiiBx6AX4DzL8JWqjkFSeMIey+8INGa9z/EvFtm2TIaBjYKMopGa4P3QbTUvZw5ex6xcfGNixPtqhB31C83B/KlO7z40qICHNu+WkouCwqVB1ftgBsIRVTvaLz51ar34rjuCigWIiDAF7m5BTAYPZr0fhqDeXOm3fgQd1PuetK2Vh1FWhN8LRRTVMf1nkFJYT5idqzC9BlTEd6vny23dcD5RB27HloD8fGXsSdyP0pKqQev/fAqKspRLC2UFX6+PjAaDSLPJKxWscgRDrKPr+wqaQjqs0C6wNCIP3LI8KiIPrbs6mArKQfbNxahEaPFv7YvUfghFdYKeIqa0QuleZjhLXwW6JW2Glu6HkzigehKMzFm9GjZNtGaid0QjCzmbN+NSh06BAgLlIOs7Lxq74cyVGp5Ajv4YfSIYRg3djRGDB+GIYMjMHBAf/Tr2xudgzpKtWF2do6wYEbpLNeHQQP6ye6VmlixZr3rnGg1koYUcwkCJVvN0FToEJVZgGm2PiE3WhbsLqkoK8H4sSOxZNFCTJ48CQMHDkCPHt1luDwuOY048xeL/RPHjZLH87ymwmUEUjHSwxcHrl7B4y8vx6TVG1HiMxn+e87a9jYcltZxd9oNaHlM5aWYPGmcSJMQHBwsLUtlZaVMlKiq62zjoVxj0qSJmDp5gjyP+U2Bywnk7ZWDJ8yjkXDfmwhcdQiWy/7wrCjFpOgztiNqwy56l4kBw4Xj6CZQvSgsyBeWZ5QorkbA09NDEoKkogvCRKjrzOd++kDDhg3FpIljZZHWFLicQIfytTgRchW9cpfhwtK96Jj7Pi4nvYkOn++2kaM6WWSMcLFuT2KbxaGBJHLDKSrKyxHcJQhDhgyWzrJKnPqgEokkGhwxGN26dpLXaSxcTiCL1SAcTg+kHX8RYVnPIq/jM+iRfgdSrkXjt7lptcjCJKWotqVBmB4ZWV7sd8M5OCHK6FEjZHvQ9YhTE3TIvb29MHbMKHmdxsJlBFJJwcY6rVWLnZ8Nwj0f7oC2fwauGLbjQkYRDsRnSJJIoohjVbLQ6WbNUBG/swPUIluUXQnGbKa4nTGY//Wvf9Upbt+1a5eUUTD4JfXLbQHUfVPu2tRormxt5vkQFZ3GwoUEYt+T+AO21Pv0a1g7aQi6zbkVumGpOBajRefCMli8RO1MYxG1NQt6VH4pux/0rLlZTQppxDpvklx0NahLnj59uqypsKpO7XFsrNKZuG7dOrlkhFVqnCn4onaZgq+tW7di7dq1WLVqldTO7NmzR2qh16xZI4XxrkaXzkGyKGqs9XEEpbLBXWu39VwPLiMQ37hSJAkCCBJ4avT48NAVJPT0g+lMF/xfYBZWvLgVHe75F/qtnIGBm8bB98jLGBzdGwO2jUL3K8PBwPIa8VBYm1B74F0JjnjgMBxOXuKs4Yzo2LEjZs6cKXXOQ4cOlWF5WXTceeedwiEdJqcu4L3yuHvuuccu+nIl/Hz9rttndT3IjlO/xneJuIxARvG+DYIBsggSJpbO8YLV66G79Rj6DvsRTAvmIb+oGDF6DTSJ/rAkBMCSFIRzI+Jxcf5JpPcWVX1huthMbxWmlR2hrsatt94qiUACMUZzQ8Co8WojG7XL6jymamSv6zXStQQqTBXNsj4qypvQHuSyXycH8glIDbPiDGH9PXci6YntKMm3orIYeKrsPK6eSMC1M16ovByExAf3QifMFo9nI6ReXEPRMutuiHaHxRE7KNWpBNR2FGqb1ekGaoJdGhxFweM4ZIeW50YjIzPLLsJvKsrLK5CRkWnbajhcRiCSQCWPElXeiojov6FUuMqGvEL4dPTA7fo+0Ad44ZpmEq79a7VDNHmFeMrXS+Yo/pQrQe0vB/ExsXo7ZswYmZeYmCj9GYrhCUaRP3z4sOxc5AA/CuVJGvo6JB/HeTmCQ3FcjcKiEllUskbVFNB6FRYVokBcp7FwWWfqrQ8qnalWjeLZc05yi7jREd8dQafMPIz4vw3oozVgbHAHjN/7R3FEFUNUsjiSpkhUMeOP7Ma8uXNtOa2HtiKq371nL2LjElAiLObA8F6YMX2a0z6r64HDjfbt24+zF+KFP+dny61Cq0QoYxHEROIw0Yps1xSh96N/xOuv/RdvX3wbfz25AhMiX5JEUdWCTMq2ch3V+jiSyY3qoBN/8lSMnOWH1rMxoNVKS0/H0ROnnJLnenAdgYS1IW3UoN9GfTn+1vdxLPEOx0xTGILXzoD18wh5nAyAII7lxChsN6J+mUZPJzJ14mSVjG7UjYDAIHy7a48cAt3QokySJy0NO7/dhQ6BtfU+DYHLCGSPxyzWWYGK+HQfKrv3QE/hJHsEVkJ//zFkPb0HeuHwMMioVhCF9RaD7TzeGB1nNYlfK/5xoy6w1ldWYcamzVuRkpIinfq6ambM535arI2btqC0rNJea2wsXEcgQQqpRZaWwwT9yYtYVeSBh8+8Cm2fLLzU/0cI2TuEBkcmFlVqEValZ2biuhVGbrhRLziKwizM+GfLV2LX7t1S+MYijZaGpOGSiT7cHuE/ffLZFzBZtPBugt+kwmWCssGjxsiltCaCRT9ZNAJeleUwT4mA39kPMWHtchR17gerZz/Z4Gi3WDJVX+c+KuwuxsQgqFOQLPNbE6wyN1TN5yqwq+VC3EUUl5RVez9sUPQWvszVq2nYszdS1ippka4kJeHUyVPYvnMn9kRGIa+wBB06BomP/Pq+Qd2Csg2uq4Xd+8Mn5MuvCSdZdrCooyUSR3FFgoI0krhIfDVrPvwEPXt0Q0BA69aA2gKBCguL5Ph1o4en0/fDpyiLMJHk0gb5TkSSH6kt73qouxb2aPsalUG0lXv5X3om9RHI7Vi40Sy4CeRGs+AmkBvNgptAbjQdwjl3E8iNZsFNIDeuC8dmgJpwE8iNZsBdhLnRAMTEnJFdIo6JevDhg/oqDYlDQnxw3+3zMH78ONspVbhZQ5k0B+3tmbAISk/PkJ2nDDfsDFbZdl0bl+ITkJJyFT17hEDLPicB6roys7MReThGIdB9MyLw06efchpxoq2Ip1Rxelu5l/b4TKKjoxsdVYSjU3Z8uxtGz9p9YR9+9a1ShN2oUQ9utC6a+o7rGxgg97i540bTAPw/k/PmtR67bG4AAAAASUVORK5CYII=;" vertex="1" parent="1">
          <mxGeometry x="900" y="504.9" width="144" height="246" as="geometry" />
        </mxCell>
        <mxCell id="FQut2yndU6wkRieja00U-33" value="" style="endArrow=open;endFill=1;endSize=12;html=1;rounded=0;exitX=0.5;exitY=1;exitDx=0;exitDy=0;entryX=0.5;entryY=0;entryDx=0;entryDy=0;" edge="1" parent="1" source="FQut2yndU6wkRieja00U-6" target="FQut2yndU6wkRieja00U-5">
          <mxGeometry width="160" relative="1" as="geometry">
            <mxPoint x="665" y="75" as="sourcePoint" />
            <mxPoint x="865" y="80" as="targetPoint" />
          </mxGeometry>
        </mxCell>
        <mxCell id="FQut2yndU6wkRieja00U-36" value="Horizontal Container" style="swimlane;horizontal=0;whiteSpace=wrap;html=1;" vertex="1" parent="1">
          <mxGeometry x="-240" width="1280" height="170" as="geometry" />
        </mxCell>
        <mxCell id="FQut2yndU6wkRieja00U-35" value="Vertical Container" style="swimlane;whiteSpace=wrap;html=1;" vertex="1" parent="FQut2yndU6wkRieja00U-36">
          <mxGeometry x="40" y="20" width="730" height="130" as="geometry" />
        </mxCell>
        <mxCell id="FQut2yndU6wkRieja00U-53" value="&lt;p style=&quot;margin:0px;margin-top:6px;text-align:center;&quot;&gt;&lt;b&gt;Component&lt;/b&gt;&lt;/p&gt;&lt;hr size=&quot;1&quot; style=&quot;border-style:solid;&quot;&gt;&lt;p style=&quot;margin:0px;margin-left:8px;&quot;&gt;+ RectTransform:&lt;br&gt;+ VerticalLayoutGroup&lt;/p&gt;" style="align=left;overflow=fill;html=1;dropTarget=0;whiteSpace=wrap;" vertex="1" parent="FQut2yndU6wkRieja00U-35">
          <mxGeometry x="10" y="40" width="160" height="70" as="geometry" />
        </mxCell>
        <mxCell id="FQut2yndU6wkRieja00U-54" value="" style="shape=component;jettyWidth=8;jettyHeight=4;" vertex="1" parent="FQut2yndU6wkRieja00U-53">
          <mxGeometry x="1" width="20" height="20" relative="1" as="geometry">
            <mxPoint x="-24" y="4" as="offset" />
          </mxGeometry>
        </mxCell>
        <mxCell id="FQut2yndU6wkRieja00U-59" value="&lt;p style=&quot;margin:0px;margin-top:6px;text-align:center;&quot;&gt;&lt;b&gt;Component&lt;/b&gt;&lt;/p&gt;&lt;hr size=&quot;1&quot; style=&quot;border-style:solid;&quot;&gt;&lt;p style=&quot;margin:0px;margin-left:8px;&quot;&gt;+ RectTransform:&lt;br&gt;+ VerticalLayoutGroup&lt;/p&gt;" style="align=left;overflow=fill;html=1;dropTarget=0;whiteSpace=wrap;" vertex="1" parent="FQut2yndU6wkRieja00U-35">
          <mxGeometry x="560" y="40" width="160" height="70" as="geometry" />
        </mxCell>
        <mxCell id="FQut2yndU6wkRieja00U-60" value="" style="shape=component;jettyWidth=8;jettyHeight=4;" vertex="1" parent="FQut2yndU6wkRieja00U-59">
          <mxGeometry x="1" width="20" height="20" relative="1" as="geometry">
            <mxPoint x="-24" y="4" as="offset" />
          </mxGeometry>
        </mxCell>
        <mxCell id="FQut2yndU6wkRieja00U-57" value="&lt;p style=&quot;margin:0px;margin-top:6px;text-align:center;&quot;&gt;&lt;b&gt;Component&lt;/b&gt;&lt;/p&gt;&lt;hr size=&quot;1&quot; style=&quot;border-style:solid;&quot;&gt;&lt;p style=&quot;margin:0px;margin-left:8px;&quot;&gt;+ RectTransform:&lt;br&gt;+ VerticalLayoutGroup&lt;/p&gt;" style="align=left;overflow=fill;html=1;dropTarget=0;whiteSpace=wrap;" vertex="1" parent="FQut2yndU6wkRieja00U-35">
          <mxGeometry x="380" y="40" width="160" height="70" as="geometry" />
        </mxCell>
        <mxCell id="FQut2yndU6wkRieja00U-58" value="" style="shape=component;jettyWidth=8;jettyHeight=4;" vertex="1" parent="FQut2yndU6wkRieja00U-57">
          <mxGeometry x="1" width="20" height="20" relative="1" as="geometry">
            <mxPoint x="-24" y="4" as="offset" />
          </mxGeometry>
        </mxCell>
        <mxCell id="FQut2yndU6wkRieja00U-55" value="&lt;p style=&quot;margin:0px;margin-top:6px;text-align:center;&quot;&gt;&lt;b&gt;Component&lt;/b&gt;&lt;/p&gt;&lt;hr size=&quot;1&quot; style=&quot;border-style:solid;&quot;&gt;&lt;p style=&quot;margin:0px;margin-left:8px;&quot;&gt;+ RectTransform:&lt;br&gt;+ VerticalLayoutGroup&lt;/p&gt;" style="align=left;overflow=fill;html=1;dropTarget=0;whiteSpace=wrap;" vertex="1" parent="FQut2yndU6wkRieja00U-35">
          <mxGeometry x="210" y="40" width="160" height="70" as="geometry" />
        </mxCell>
        <mxCell id="FQut2yndU6wkRieja00U-56" value="" style="shape=component;jettyWidth=8;jettyHeight=4;" vertex="1" parent="FQut2yndU6wkRieja00U-55">
          <mxGeometry x="1" width="20" height="20" relative="1" as="geometry">
            <mxPoint x="-24" y="4" as="offset" />
          </mxGeometry>
        </mxCell>
        <mxCell id="FQut2yndU6wkRieja00U-45" value="Vertical Container" style="swimlane;whiteSpace=wrap;html=1;" vertex="1" parent="FQut2yndU6wkRieja00U-36">
          <mxGeometry x="830" y="20" width="340" height="130" as="geometry" />
        </mxCell>
        <mxCell id="FQut2yndU6wkRieja00U-30" value="SideMenu&lt;br&gt;&lt;div&gt;RectTransform&lt;/div&gt;" style="html=1;whiteSpace=wrap;" vertex="1" parent="FQut2yndU6wkRieja00U-45">
          <mxGeometry x="30" y="40" width="125" height="70" as="geometry" />
        </mxCell>
        <mxCell id="FQut2yndU6wkRieja00U-47" value="Logo" style="html=1;whiteSpace=wrap;" vertex="1" parent="FQut2yndU6wkRieja00U-45">
          <mxGeometry x="184" y="40" width="125" height="70" as="geometry" />
        </mxCell>
        <mxCell id="FQut2yndU6wkRieja00U-37" value="" style="endArrow=open;endFill=1;endSize=12;html=1;rounded=0;exitX=0.5;exitY=1;exitDx=0;exitDy=0;entryX=0.5;entryY=0;entryDx=0;entryDy=0;" edge="1" parent="1" source="FQut2yndU6wkRieja00U-1" target="FQut2yndU6wkRieja00U-36">
          <mxGeometry width="160" relative="1" as="geometry">
            <mxPoint x="-80" y="150" as="sourcePoint" />
            <mxPoint x="80" y="150" as="targetPoint" />
          </mxGeometry>
        </mxCell>
        <mxCell id="FQut2yndU6wkRieja00U-38" value="&lt;p style=&quot;margin:0px;margin-top:4px;text-align:center;&quot;&gt;&lt;b&gt;SerializedDictionary&lt;/b&gt;&lt;/p&gt;&lt;hr size=&quot;1&quot; style=&quot;border-style:solid;&quot;&gt;&lt;div style=&quot;height:2px;&quot;&gt;&lt;/div&gt;&lt;hr size=&quot;1&quot; style=&quot;border-style:solid;&quot;&gt;&lt;div style=&quot;height:2px;&quot;&gt;&lt;/div&gt;" style="verticalAlign=top;align=left;overflow=fill;html=1;whiteSpace=wrap;" vertex="1" parent="1">
          <mxGeometry x="-230" y="-150" width="160" height="40" as="geometry" />
        </mxCell>
        <mxCell id="FQut2yndU6wkRieja00U-39" value="&lt;p style=&quot;margin:0px;margin-top:4px;text-align:center;&quot;&gt;&lt;i&gt;&amp;lt;&amp;lt;Interface&amp;gt;&amp;gt;&lt;/i&gt;&lt;br&gt;&lt;b&gt;ISerializationCallbackReceiver&lt;/b&gt;&lt;/p&gt;&lt;hr size=&quot;1&quot; style=&quot;border-style:solid;&quot;&gt;&lt;p style=&quot;margin:0px;margin-left:4px;&quot;&gt;&lt;br&gt;&lt;/p&gt;&lt;hr size=&quot;1&quot; style=&quot;border-style:solid;&quot;&gt;&lt;p style=&quot;margin:0px;margin-left:4px;&quot;&gt;&lt;br&gt;&lt;/p&gt;" style="verticalAlign=top;align=left;overflow=fill;html=1;whiteSpace=wrap;" vertex="1" parent="1">
          <mxGeometry x="-360" y="-257.5" width="230" height="65" as="geometry" />
        </mxCell>
        <mxCell id="FQut2yndU6wkRieja00U-40" value="Extends" style="endArrow=block;endSize=16;endFill=0;html=1;rounded=0;exitX=0.5;exitY=0;exitDx=0;exitDy=0;entryX=0.5;entryY=1;entryDx=0;entryDy=0;" edge="1" parent="1" source="FQut2yndU6wkRieja00U-38" target="FQut2yndU6wkRieja00U-39">
          <mxGeometry width="160" relative="1" as="geometry">
            <mxPoint x="-80" y="150" as="sourcePoint" />
            <mxPoint x="80" y="150" as="targetPoint" />
          </mxGeometry>
        </mxCell>
        <mxCell id="FQut2yndU6wkRieja00U-41" value="" style="endArrow=open;endFill=1;endSize=12;html=1;rounded=0;exitX=0;exitY=0.5;exitDx=0;exitDy=0;entryX=1;entryY=0.5;entryDx=0;entryDy=0;" edge="1" parent="1" source="FQut2yndU6wkRieja00U-1" target="FQut2yndU6wkRieja00U-38">
          <mxGeometry width="160" relative="1" as="geometry">
            <mxPoint x="-80" y="150" as="sourcePoint" />
            <mxPoint x="80" y="150" as="targetPoint" />
          </mxGeometry>
        </mxCell>
        <mxCell id="FQut2yndU6wkRieja00U-42" value="" style="endArrow=open;endFill=1;endSize=12;html=1;rounded=0;exitX=0.5;exitY=1;exitDx=0;exitDy=0;entryX=0.5;entryY=0;entryDx=0;entryDy=0;" edge="1" parent="1" source="FQut2yndU6wkRieja00U-53" target="FQut2yndU6wkRieja00U-3">
          <mxGeometry width="160" relative="1" as="geometry">
            <mxPoint x="-125.00000000000045" y="120.00000000000023" as="sourcePoint" />
            <mxPoint x="80" y="150" as="targetPoint" />
          </mxGeometry>
        </mxCell>
        <mxCell id="FQut2yndU6wkRieja00U-46" value="" style="endArrow=open;endFill=1;endSize=12;html=1;rounded=0;exitX=0.75;exitY=1;exitDx=0;exitDy=0;entryX=0.5;entryY=0;entryDx=0;entryDy=0;" edge="1" parent="1" source="FQut2yndU6wkRieja00U-30" target="FQut2yndU6wkRieja00U-6">
          <mxGeometry width="160" relative="1" as="geometry">
            <mxPoint x="290" y="80" as="sourcePoint" />
            <mxPoint x="450" y="80" as="targetPoint" />
          </mxGeometry>
        </mxCell>
        <mxCell id="FQut2yndU6wkRieja00U-48" value="&lt;p style=&quot;margin:0px;margin-top:4px;text-align:center;&quot;&gt;&lt;b&gt;TextImagePannel&lt;/b&gt;&lt;/p&gt;&lt;hr size=&quot;1&quot; style=&quot;border-style:solid;&quot;&gt;&lt;p style=&quot;margin:0px;margin-left:4px;&quot;&gt;+ bg: Image&lt;/p&gt;&lt;p style=&quot;margin:0px;margin-left:4px;&quot;&gt;+ mainImg: Image&lt;/p&gt;&lt;hr size=&quot;1&quot; style=&quot;border-style:solid;&quot;&gt;&lt;p style=&quot;margin:0px;margin-left:4px;&quot;&gt;+ InitTextObj(): void&lt;/p&gt;&lt;p style=&quot;margin:0px;margin-left:4px;&quot;&gt;+ SetText(): void&lt;/p&gt;&lt;p style=&quot;margin:0px;margin-left:4px;&quot;&gt;+ SetBgColor(): void&lt;/p&gt;&lt;p style=&quot;margin:0px;margin-left:4px;&quot;&gt;+ SetMainSprite(): void&lt;/p&gt;&lt;p style=&quot;margin:0px;margin-left:4px;&quot;&gt;+GetTextObj(Pannel text): TMP_Text&lt;/p&gt;" style="verticalAlign=top;align=left;overflow=fill;html=1;whiteSpace=wrap;" vertex="1" parent="1">
          <mxGeometry x="-159" y="240" width="229" height="270" as="geometry" />
        </mxCell>
        <mxCell id="FQut2yndU6wkRieja00U-49" value="&lt;p style=&quot;margin:0px;margin-top:4px;text-align:center;&quot;&gt;&lt;b&gt;TextField&lt;/b&gt;&lt;/p&gt;&lt;hr size=&quot;1&quot; style=&quot;border-style:solid;&quot;&gt;&lt;p style=&quot;margin:0px;margin-left:4px;&quot;&gt;&lt;br&gt;&lt;/p&gt;&lt;hr size=&quot;1&quot; style=&quot;border-style:solid;&quot;&gt;&lt;p style=&quot;margin:0px;margin-left:4px;&quot;&gt;&lt;br&gt;&lt;/p&gt;" style="verticalAlign=top;align=left;overflow=fill;html=1;whiteSpace=wrap;" vertex="1" parent="1">
          <mxGeometry x="360" y="240" width="160" height="90" as="geometry" />
        </mxCell>
        <mxCell id="FQut2yndU6wkRieja00U-50" value="&lt;p style=&quot;margin:0px;margin-top:4px;text-align:center;&quot;&gt;&lt;b&gt;TextImagePannel&lt;/b&gt;&lt;/p&gt;&lt;hr size=&quot;1&quot; style=&quot;border-style:solid;&quot;&gt;&lt;p style=&quot;margin:0px;margin-left:4px;&quot;&gt;&lt;br&gt;&lt;/p&gt;&lt;hr size=&quot;1&quot; style=&quot;border-style:solid;&quot;&gt;&lt;p style=&quot;margin:0px;margin-left:4px;&quot;&gt;&lt;br&gt;&lt;/p&gt;" style="verticalAlign=top;align=left;overflow=fill;html=1;whiteSpace=wrap;" vertex="1" parent="1">
          <mxGeometry x="160" y="240" width="160" height="90" as="geometry" />
        </mxCell>
        <mxCell id="FQut2yndU6wkRieja00U-51" value="public enum PannelText&#xa;{&#xa;    TOPTEXT = 0,&#xa;    MIDTEXT = 1,&#xa;    BOTTEXT = 2,&#xa;}" style="text;whiteSpace=wrap;" vertex="1" parent="1">
          <mxGeometry x="-140" y="390" width="160" height="110" as="geometry" />
        </mxCell>
        <mxCell id="FQut2yndU6wkRieja00U-62" value="" style="endArrow=open;endFill=1;endSize=12;html=1;rounded=0;exitX=0.452;exitY=0.95;exitDx=0;exitDy=0;exitPerimeter=0;entryX=0.5;entryY=0;entryDx=0;entryDy=0;" edge="1" parent="1" source="FQut2yndU6wkRieja00U-55" target="FQut2yndU6wkRieja00U-48">
          <mxGeometry width="160" relative="1" as="geometry">
            <mxPoint x="20" y="190" as="sourcePoint" />
            <mxPoint x="180" y="190" as="targetPoint" />
          </mxGeometry>
        </mxCell>
        <mxCell id="FQut2yndU6wkRieja00U-63" value="" style="endArrow=open;endFill=1;endSize=12;html=1;rounded=0;exitX=0.5;exitY=1;exitDx=0;exitDy=0;entryX=0.5;entryY=0;entryDx=0;entryDy=0;" edge="1" parent="1" source="FQut2yndU6wkRieja00U-57" target="FQut2yndU6wkRieja00U-50">
          <mxGeometry width="160" relative="1" as="geometry">
            <mxPoint x="92" y="137" as="sourcePoint" />
            <mxPoint x="-35" y="250" as="targetPoint" />
          </mxGeometry>
        </mxCell>
        <mxCell id="FQut2yndU6wkRieja00U-64" value="" style="endArrow=open;endFill=1;endSize=12;html=1;rounded=0;exitX=0.5;exitY=1;exitDx=0;exitDy=0;entryX=0.5;entryY=0;entryDx=0;entryDy=0;" edge="1" parent="1" source="FQut2yndU6wkRieja00U-59" target="FQut2yndU6wkRieja00U-49">
          <mxGeometry width="160" relative="1" as="geometry">
            <mxPoint x="102" y="147" as="sourcePoint" />
            <mxPoint x="-25" y="260" as="targetPoint" />
          </mxGeometry>
        </mxCell>
        <mxCell id="FQut2yndU6wkRieja00U-65" value="" style="shape=image;verticalLabelPosition=bottom;labelBackgroundColor=default;verticalAlign=top;aspect=fixed;imageAspect=0;image=data:image/png,iVBORw0KGgoAAAANSUhEUgAAAnEAAAGCCAYAAACPY5USAAAAAXNSR0IArs4c6QAAAARnQU1BAACxjwv8YQUAAAAJcEhZcwAADsMAAA7DAcdvqGQAAP8hSURBVHhe7J0FYBRHG4bfkygJhOBuxZ2WUqCuP1SoUndvqVH3lrbU3YUKVKClhrTQFkqF4u5O0EBC3OXun3duJ9kce5e75BKSMA9MbtZn1ubdb2a+sY0cOdINTZ1n0qRJRuxgfvvtNxx77LHGVO1kwYIF8jc7Oxsnn3yyjB8uzJkzB1FRUdizZw/OO+88Y+7hwZQpU9CsWTMZHzRokPw9XNi/fz+2bdsm44db3ol65k866ST5648///zTiGk0tRNf97nd+NVoNBqNRqPR1CK0iNNoNBqNRqOphWgRp9FoNBqNRlML0SJOo9FoNBqNphaiRZwmpLjd1dNPprqOU5XUhTzUZUJ1ffR11mg0VYUWcZqDOO6443D++edj2LBh+Prrr425gWHVM1Tt75xzzsHYsWONuZXj+OOPN2LBsWzZMpkeM97TlWXNmjVGzD8//fSTETt03HTTTVi1apUxBTz//PPyWjGcddZZ+Pbbb+X8Xbt24fLLL5dxBc9bRkaGMRUaKHh+/fVXY6pq4b167rnnlgRvrrrqKiNWMdavXy9///77bxQVFcl4beOUU04xYh5C/axoNJrKoUWcxpIffvhBFqYXXXQRRo0aJecVFhZi2rRpWLhwoZwmW7Zswffff1+mME9LS5PbFxcXG3M8+6M7iNatWyM/P1/O27t3r9w2PT1dTpNFixbhxx9/LCn0VqxYgZ07dyIxMVHO4/rcf2W4+OKLjRjkPl966SVjCtJlA4+Rk5Mjp9etW4eUlBRs2LABK1eulPO5nOeCuFwueU7mzZsnp3k+6M6F7h/IP//8g99//73EGrN8+XL89ddfMt69e3f5S4HE7c1uEHisP/74A8nJyfIYVQHTRNcUt912mzHHw3fffSevF/PF86644oorjBjkNRw9erQxBWzevBmTJ0+WLl7I6tWrS65XZmamnMdrqWD+CPfD+2LJkiVyujq59NJLpZBWQTFjxgysXbvWmCpNK1F5YN54n+7evVtO81zS1Qu3ZTwrKwt33XWXFMjt27eHw+GQ6y1evBg///xzyf3D+4H3F8+3uudrA3wOmH/zeeI153lU+WDeEhIS5D2s0WiqBi3iNH4JCwsrKbjuu+8+aZ3p1q0bZs2aJcUUC6cLLrgAM2fOlOuQuLg4acm5/vrrjTlAamqqFDb0SRcRESGFC6e5LcUiX/wsAAcOHCh9nSmfOPfeey/q16+P5s2by3lcv169enJZRbnxxhsxd+5cGb/77rsRHh4u48xnZGSkPMZ7770nxRMLJQrUrl274tVXX5Xng8tPPfVUuc3w4cPlOaEYevLJJ9GpUyfps61p06a45ZZbpOXitNNOw4knnijXv+OOO3DCCSfI+IcffigL/Ntvvx2DBw9Gly5dsHHjRimImEceg5YysxgOJRRdtDY98sgjJaLVGwo6BX0JUoCQcePGlYhQFtQ8hxdeeCGuvvpqOW/69OnSbx3PFc8RUR8DhHkmvKdooeV5owioTiikeF+qQB5//HH873//Q48ePbB9+3Y5T6WVqDzQisf7lAKM277wwgvyGnNbnoOYmBh5Tnv37i0FKu/vZ599FgMGDMCIESNKLNa8Hxo2bCifl8suu0zOqw089dRTMv9t2rSRIu2rr75C586dy1g1mTc+B40bN5bTGo0m9NR6ETd+/Hgjpqlq7r//frz55psyUIBRrD366KN4++23cfrppxtrlWIWBhRi8fHxsnqG4m/q1KmyoCR86dPawQKQ1bes0lNQJDZo0EDGKfAIhVRlYYFK7PbSR4D3UosWLWSchSothYSWFIU6NsUXRd7QoUPlNPcze/ZsGVewWpWFHYP5ON6oAp35pCCgBa5du3ZynllAhJqPP/5YChmKyjfeeMOYC3zxxRf47LPPpAClJVHBa/HRRx/J+L59++QvYVqXLl0qhYzZqtq2bVv5GxsbK3+tuOeee/D666/jnXfeKbFeVhe8ltHR0SWB0JqmaNmypRE7GFrZCEUaRRjzQWH73HPPlTjg9ebff/8tuQ/MHzg2m03+qvutNsBrS5GWlJQkRRqtqXxuea8rKyPhB41Go6k6ar2Io1VHU3VQqNBCRNHCwp2F14MPPmgshfwC58uchbs/ixEFgNPplFVyrKZjIaBe9qx6YkFA0UBrxMMPPyzne6OqrkIBBQetgW+99ZYxp1R0EFrfaJXzBwtkc8FrVWApEReMx3iKHnUuaeWqCphuWg4puhhYDaygJenaa6+VVrj//vvPmOvh3XffletStCheeeUVaY186KGH0KRJE2NuYFDYcF++rnlVw/eHCt7QkugLZaXj88EqZH6AUJjxo8YXSigSX0KvpmEWZEQ9I7RI8uONFlhWEfMDTd3rZqu8RqOpWmq9iPMHCxW2T2JggWWGX82czy9nVqFcd911xhJIqwCXTZw4UVb1HI6wqo/Vh7QE8VzRWsACnW3D2H6HbX1Y+L/88suyATeXqXY/VnB/H3zwgbQ6sU3amWeeKYUCqw4vueQSWTjQIsSOB++//76shjG3xyIdOnSQbceefvppY07F6du3r2wTZebWW2+V1aus0qSlrlGjRsYS39AKw7Y/PEesgiWsPmNbuhdffFF2DJg/fz6eeeYZuSwQWC35xBNPyPZGwYqiQOF1pRWRlkcG5tfcwYGwCpvPhxlaJa+55hpphVWwKpjt/lg9SyFOcWwFhQ7Phdnqx/PDe4rbq7aC1QXvJd5rKlCcMm20BvNDg1W8hNZj3t/mdPP6ctgnWpFZ9U0Rw/tGddxhO0DeG2zjqeAx+LFDCy0/XGoDEyZMkB9pbPLAZgG03hK+F/ncs3qd1ai0wjHvnKeaGmg0mqqn1o+dSrFlbqiuYGHM6jq2KSJ8gfLrmQUrX0wsMD755BNZGFFg/PLLL9LSRMsSX+DffPON3I77Z7ssXwVTbYH58IUeO7Vmwcb+tHzSEsh7ktZLfwJZj52qx07VY6f6R4+dqqntHHZjp9I68NprrxlTnuozNiomrAL49NNPZdy7pyOr/JSAI+wZWVlXAxpNMLBqj5ZjVs8x7k/AaTQajebwpU5Xp27dutWIHdy2yOy2QTXSZuN7b1ilx6oSjaY6ocWYVbSsatZoNBqNxoo6LeLYIF/BdhtmVI8wwvZXxMpxKdsLsQeWRqPRaDQaTU2izoo4ukZQbgAI3WModwnscUUntoRticyCjm2R2LBcQee0tIhoNBqNRqPR1CTqhIhjo31zIOxhumnTppJ57E3GeYQuFOgHjPPp3oDuFlT1Kl1csBed2o49rrTHcY1Go9FoNDWNWt87tSJwxAH26lLDP1GsseMD3VvUVZhHX+jeqbWbw7l3Kl1c0BUKOdx6aLItr/JXp3un+kf3TtXUdg673qn+oO8teuenvzH2RKVj1bos4MqDVsjaHHJzc42cQF5Lq3XqauBwTsopMdt2Hm75N/urKygosFynrgY1Xi+hjzurdepqqG6fghpNTeWwtMQdjvizxOmvVI1GU1vRljjN4YC2xGk0Go1Go9HUIbQl7jCBw2NpNBqNRqOpO2gRd5jAMSo1Go1Go9HUHXR1qkaj0Wg0Gk0tRIs4jUaj0Wg0mlqIrk49TPDXO1Wj0Wg0Gk3tQ1viNBqNRqPRaGohWsRpNBqNRqPR1EJsc377TVenHgaccNppRkyj0Wg0Gk1dQFviNBqNRqPRaGohtoW73SWWuJ3hbrQpsBlTQuE5jIgFPRvkwV26aa3jq6++Qp8ePYypUvbv34/5CxYgUfz26d0bRx91FOz22qV1W7Zti0aNGhlTwIvPP4+nxowxpg5GD0mj0WhqK3rYLc3hgM9htyjUnDYXYtw7cHHiHhTZ3VK8+RNwhIMQU8TV1tC+fXsjJx7WrVuHqNhYnHXuuXhWiJ5Pxo3DnXffjV79+mHhkiUoLioy1qz5RERElMnr0YMGGUs0Go1Go9HUFextIibhzKl/YOAf25AXNgAn7NtpLPJNcamxrk5Ay9vV11+Pbt26IScnp0xwOBy47fbbkV1QgEIRNBqNRqPRaGoC9h35IzGx9xa8uvgzrFh3A5r+vcZY5IGCzRxcdsBWh0Tc/qQk3DpqlBRshYWFxtxSaMnKy8vDcccdh80JCcbc2oWtLl0wjUaj0Wg0ErsNNvTdtw1T2p6NtZuLsXrxBHyamFBGsNntbjhE3OEAwsQ0Q12hWISiAKpKi4uLcemll2Lb9u3GHI1Go9FoNJpDh23JPrc73+7C/FMexlUf/ojvHj4L99xzJeYO7icUnlJrbCfHuEtIPre07HQMz/MsqiC33HIL7rzzTnzxxRd48cUXjbke2D6te/fuePfdd3H77bcbc0PLf//9h3C7HT379kVUVJQxt3w+GzcOA4880piqmXTo3Bn16tUzpoC/5szBsOHDjamD8W70e+yxxyIsLMyYqnmY0xtIo+ZDhTmdgwcPRmRkpDFV86iN57QmpzMhIQFbt241pvQ5DQW7du3Cpk2bjKlSAkmzOY+HEwUWTYDCw8ONWPCwZkrVWLHDn9PplPFAYbk7ZMgQY8rD0qVL0VeUw2y6pPGNr/vctixJXBVB61Wf4LtP/sBvmS3xz5n/w5/nDEHnhcfB3tyJHUdMQZ6juVhLCDijQ2qHiMqLuJdffhk//PADrr76arzzzjsYNWqUFHVsmD9s2DB89tlnuOGGG5CWliZfiMcffzzeeustXH/99UhPT0fLli2NvQUPbya3uBkHHyfyGETvU74MmjRsaEzVTLxF3N9//YX/ifPpC+8XnD8Rx2tm5v777zdiB8POL+ZzG8y2/gik0Nm8eTN+/PFHYwoYNGiQvH98kZWVhZiYGBnnfZecnCzjhPdbfHy8MRU45nT6E3HBnBe+lNVLmNbh1157TcYVVXlOZ86ciZUrVxpTwAUXXICOHTsaUwfDJgrR0dEy/sorr8gCQHHXXXdVqDAJJJ0kmHOakZGB+vXry3hmZiY++OADGSecf/PNNxtTgROoiHv//fflvafg+65hgO+X6nyeWHC/8cYbxhTk++Huu+82pg7GfE737t2LL7/8UsZJ79698b///c+YChwt4oJH3cvffvstRo4cKeMsewPh5JNPxuzZs40pD6tXr8bnn3+Orl27IiUlBUlJSfLZDpTt27fLToUsv1etWiXLmh07dqB169ZBlcOHI77uc9uqAy6hzIDo/A1YeNdz+KTJcRg9YwvcPVvgpH6/Aq3CsO2in2Gz2WEX72CXzSXiDrQLyzF2UTF4I/EG4wuMou3DDz8sI+IuueQSKdiOOeYYHH300bLKk+uuX79ezlu+fDn69etn7C14KOLETnGMuImCuXl4UzetQIFenVSliCN8obOA4oN84MAB/PHHHzjnnHOkhZbXjr+8TmvXrkWbNm0wcOBAY0uPlZUFP9fjOnwpnH/++XIZrzFF/UUXXeT3qyzQgpy0atUKu3fvlvHp06dL4d+/f3+Zth49emDnzp3yWJ988gmeeOIJuZ7ivvvuky8o5venn37CUUcdhQ4dOmDhwoXyw6JFixayQPKFOZ3lWeLo2ob3YePGjbFnzx7MnTsX5513HlJTU+U8ntMtW7ZIgUnxxDwovvvuO3nOCNOWmJiIs88+W74oCcXXxRdfLOO+COacnn766fjtt9+kKKNQ7tmzp7wXNmzYIH95jdmOlELm3HPPNbbywOecoogCb+rUqTjxxBPRrFkz+Txv27YNRx55JNq2bWusfTDBpHPNmjUybYRp473Gc8qCRIlPFkJ9+vTB77//jl69esl55JlnnsHjjz8u43+J5yc/P1/me+PGjYiNjcW8efNK7lsrgrXEPfjgg7JGgvcazymtFSzYeC/wnuU5pcDkhxHffwoK+WXLlsl7k4Uq88EPYAooih6mk+e4SZMmxhYHE8w5nThxonw3E1pQeK8NHz5ciqvO4r3DZ5iB54iFM58RBZ8VFtzkl19+kWKVzwXn8X3Ac3vWWWfJ5VZoEVdxzILs77//xuuvvy7fDxRkfN64fNasWXIdXr/FixfL6VNOOQWPPvqo3I7wGeL9duWVV8pptV+WzSwDuC8+w3fccYd8X914441yPb5LeZ+o9flLfv75Z4wdOxZPPfWUvAf43uKzyWeUy/ge4cfKkiVL5IcB32U1uZaoKvF1n9tpDA0T4qzQ0QHFz74Me4MofJaTgvTdGSha2QLbR06VhZxT6Bynw4ZwuyNkbeJ4oXijsPCaM2eOLMgITbS8wXhj8CXMlzuXx8XFyeWhIiI8HLm5ucZUYGwVN6amlAULFkiBcNNNN0mRwsKHooI9fflQmgWcGYo/FiwXXngh2rVrJ+exoGUBceqpp8rpUDJ69GiceeaZssCmcKNwYKFIscRCkuLMFxQmFEl8obCQpRWBBTrjoYb75MuKxzvjjDPkOeKxHnjgAXTq1EkW4mYBZ4aFIfPHlymFHgUAny1en/JEXEWgOKCQoU9CnksKHYoKppHVI/6sdCwYmCYWKBSDzBMF1q+/ig/HELNv3z55HnlO+IHCdFGg8d7kfKbdLODM0IJBCy6vwbhx42Qhxm2Y7/HjxxtrhQ7eo7SY8F3IwpQCkh8MTZs2lR+zvq49oSjmOX3hhRfkNO953kdsyxtqVqxYIUUZC+YxY8ZIAccPHT7P6mPFLODMsMDmdhSj/OigsD/iiCOkgKPw1lQtPP+8lydPnoxrrrlGzvv+++/ldeRHNN87SriZBZyCYprPKQ0uypDyyCOPyI9kikKWCXymeV15LH7weQsQ3qM8HsW+gu+Ce++9F2+++SZuvfVWKSQJPxR4b1EIUhhqymK3C0HGpm82ZzhGL9+GfXuT0cQdhcJwG/Z/8bkQbTZQ6Nlhk+vRaBWE4contMLRrDpixAgpEnlD8UXFqlW+CBo0aCBvDFqUWMCqgl19hVbGCqeIEC8b9XUSKM1FGmsbpZVYoYWFNYXNP//8I0Uc4QOrHj5/8CtdPcAsAIiyalG0hxq+IJhOWmApNCg8KDSVVcEfSgCx8DcLN7bbDDWsxuW5YVr5AiTKIl0etGapApQWGKKqiClcQw3TynTSSkTBQQFJEaKsX/6gICG85qwiVlWWvkR/ZWAhQHHAtKr2t7RcBSLCWH2senfzg5OodkC0eoWaLl26yHRmZ2fLc0oBRouV2Xm3L9S5o3WLqHvbn8WwovBemz9/vkyrKqA5j+KgPNQ7l+dVWeZUbQg/5OoiFOJ8BzEQqzitwhRIjP/7779llpnjNDywFoNxWkP58WS1Hu8fb1STBj67DKq6lfcYPxhOOOEEOe0PfvTSWwPvTdWcg1ZUZSHjO4fHeemll6RljlY/luXlwY+t5s3ZbAuy+Qo/9IlqXkCdwP3y2bDKrznO88j8Mc571LyMcB7jNBbRYs64KhvM66k4y7maip0dFhiSwopx6so1WHDsRDy5/AYcO/PxMqJNBTWvrhAdHi4fgkCYNHEi2htWo9qEpwgKPXzx8mHgAz1lyhQ5j19Yjz32mHwg/TV6ZeFNEzlhlSv5+uuv5UM6dOhQOR1K2EGG7eJocaEl5dNPP5UPOqtUiap6tIKFE5k0aVKZTjBMb6ih9YLVvzyn/ComrEKiMOJLWRV2VtBCSOs2X0SsDiSsNuY5VdUfoYTH47Xii5fn5Z577sGMGTPk1z0LaH8vPtW+6uOPP5YWW361E774Qw3FOuE5pfDg8855FJ+EVbu+4AclLXVch/kjtJJReLJdX6ihiGE6mUYKclpFeP0++ugjudzfOVUFshJStMyRp59+Wv6GEl573qu8/hQfPCfsqMYPDsIPPF9wPX4M8R1BixyhMGGhy/zWRViLRIuuapdrFed7iVXojNNibF5mjvNZ4/3L+IABA+TzY7We1ftXfZDw+rCmS73DeC9PmzZNfrSwDaPCqvqa7yAKNXObVlrQWNXOdxcFHddhlSnvY1qD1bOmoODjPWOuCWMNwm233SbnP/TQQyVVrt7QsGOVX3Oc55HNUBjn82ReRjiPcRqL+HHOOGuRKBTN66m4v6YwhxrbtgzxhhAcc8MrGP3PLtz5x0wcaLMExXZPYSWvufjDlRh1sXOD+NfYXbk2cYcaqu76RqNrOvu9oZzGy2xTESdunrAKNMaubqq6TZw3/Mr0VdVNccQHxQqKEn5VcTlfKnzw2QasvIbdwbThMcPCmPmyeiD9pZMwj1zOlyC/Emkt48vT33kypzOY3qkstJkeq3PKZcyHajTuDV+aFBi0clLA8WXP6tnymiJU9Jxy3+y8YFVg+LsviPmcUmQ///zzPvOlqGg6KWxZaFldY55TijTzM2NGiTzmk8Kali1zw30rKtM7leeF+7YS7OU9H+ZzzrZ1PG5VXXveZxSVVueB9yGfaV89/3kPUwTwGWJbaFahsUBXlmMrdJu4iuN9v1Iw8/5SHbb4bKhzr9ZlG0uuY75/KL753ra6rtyO9wNr1BS0pvE+oEAl5nRQxNPCzG347PE9wPuG9zDvcSUSVdq4TDbt8mMcqMv4us/tTgcwcW8i3rpzGC7+4y6kNF6IJrMHSvci4r+4iCKIX4fN4yuO1athdawn8DGDBuGHb78tsbiY4Q30qfiyjRc3Xm0QcIcCf4WEP2HEh9F7eXkCrjJQ2PgSUv7SSZhH9RXLr1++VIIRusHA4/g6p1xmVWgqWCia25mQ8grxysC0+Hqplndc8znldfGXr8rCl7+va8w0+BJwhOJN9bJVVGVaeV6sBBwp7/kwn3PvAjjUsJD1dR54H/oScIT3KNchTCOvjz8Bp6kc3teJVipzj3vzuVfrcrn3/cN3nq/ryu3MAo5QpCkBR8zpYLtkvjt4bPUe4D3B+WYrn0oblx2uAs4fdpvdjavaNcOxR/VEWKcOsItzl/y/NXCIc+V02sSLgIEvBJsUcYzztyoadVcnO7eXddrLtih28cUwc/p0fPT++3jztdfw1YQJWL96NY4+8kj5kqm1GA9ITcZXoVUTYW/c2gCrimvLeX311VeNWM2mKtqXVRVsb1wbePbZZ42YRqMJFtuSvZ7qVG+8i33vAfGz1sxBrp/2GTUdX1+QdYGDqlP//tuvXybvqoZgq1Orm4pW/1Q35nQGU516KKiN57Qmp1M7+w09ujpVczjj6z63LdxdKuI+bFSMW1IcsAXw8d6jfq5sS1JbYU+zZl49vtgGYNWaNThCiKCmzZrJxpiF+fkY0K9fibm3NlBZEccGnnN+/NEj5L3zzWtunqfuAavz431/cB2r7a22Vajl4pd7Gzx8eEmHCJKdnIyw4mKxitc+iZrnPU3Mxw12uXkZ8VrO56KA1UONG8tpwt7UC2bMEKuwmYKf/ZJqmlbP7ykXXljSg4tkJiYikuv42o83Vscxr1vecm8sjse0hrP6x/RxQdcvq8S9XeZ8eh/XvIyUt5yY11GUtz0x1il0udBDiHZ2MlFk7N6NKFYFcX2r45qnLfbpcznxtz9itVzAWAv6ekxL88wQ1I+JQfKWLaUf8b72a94nqchywmkVJ1bbi3iRCL3FxyWdeHujRZzmcMCniFuS6Hb/hGzcves9tLKNxJ8tWiPM2+xmQffYutOxwS1eunMXLMCoO+6QFigWGAwsHFgdxe7e6YZfs9pAZUUcC8cVNfSl17ZXL+wXYluRt2ePEat5RJpGFEkT90+k+CCoifQcOhRbTG5dauo5ZQPp6NatjSmgIDUVriD9PFYXrfv0kY3HFTX1nGbn5aGRyZ9fzt69sFNA1UB6n3CCtsRpDlt83ed2ly0Hnf95Hx3mdEOmexhOTPDvo4sD4zPUJeYtXIh7Ro+WPdjYQ4q9ZdgThr/smUafVseJE6j81mg0dYmaWWQHQA0VGxqNRlNd2G3uaDza7gLsa/wEGmz+Atf8s1S81D0vRyXYGFx2T6CFuxa1QS+XJUuX4vY77pDiTVUvecMu1bTQxTZs6HMdjUaj0Wg0mupEyrGfosMw//d+2Bd5LW6aOxtjkhI9gk0ECjYOs+UQgZ17w+R05YUMRZM/4VQtiGMff9JJAfW0ZTo5JtwKw8O4RqPRaDQazaHETqHmatoSX9r7Y1V2Z3QtdmPW2gQ0dq8FmxA7hWCzO9xwMjiLxa8LDhGvLPR+Tn8zHLuSKI/5dALJ9gt0CqiG9KCDS84nFFz06BwKcoSI9DW+nxUUco4a3GtTo9FoNBrN4YOdPt/C7HbcctvpCFtVjEmIx+DlCShaUITuvxyFbgu6o9O2lxGXthx2uEAjHMdRDQUcdFeNETdhwgT5S4/o9ORMFyB07MdhPOhwkO3TWK3JwdXpUDAUAyVTECqHk4HSqlUrI6bRaDQajUZz6LA77S5pZWvVJgWFydH4dXEKbvp6MVa9PxvFK1ojJ+ta7Oh0P7Ia9oPN7hTr2uDkEA4h4IILLpBjpLETgS84Lh97iVLIsZMBxzkjoXA2zJ6n7MwQDBzBQaPRaDQaTXCwVs0b1rppKo7d6RaizCVOZNRgbL77Ncy6cBD+LMhH9i4h6vZ0QtIZDyBMiDYOtxUuxJQDNk9DukpCC9grr7yCp556Ssbp/+eLL76QVZYcvJZVqhyMt2/fvnJQ5RdffFFa55RPqBLfUJWAzlfVuIiBsjMhwYhpNBqNRlNz4SDy3iFQ3nvvPSNWyurVq8vsa/LkycaSwFCj3dBww/Kd/PXXX7V+BKhDid3uEKJMBmDUhp34cfVcWWXa+f0rkfThq3AIsaTkEjs5qFBZOODxfffdJ0UceeONN3D11VfjmmuukSMG0CfKJ598IsXanXfeiccee0yuN2jQIPlLcVdZ2ON0wvjxxlT58Mbr0a2bMaXRaDQaTc1l9uzZMpjjiYmJuPLKK3HvvffKZkrk6aeflr8cZeSrr76S7dEp0Fgue3PttdeW7Mss9LgPCjvljD07Oxu33nqrHP5tx44dct77778vf0eNGiUNM2zrPn/+fOkDknz66adyH/wlTB/j3M8DDzwg52nKYrez44IIP/43D+fd9hmOvHUlnnn9ODTt21mKNRq8OGwog90u1mUIQceGmsLggQNlu7tA+FSIyqocoF2j0Wg0mqrksssuk23QKaIuv/xyOe+iiy6SbdRvuOEGOW/06NFy/t133y1/zbAJEjsXrl+/3pjjEXB33XWXFHZjxoyRNWpnn302xo4di59//rmkY6LixhtvxC233ILY2NgSAbdq1So58D33wWNs2LBBzv/tt9+k+Bs6dCg2btwo52lKsTuFSnM4bXjlg79wlD0Sucd9jPCGOxAmRBtDOAfCF2KOgVY5aZkTF6iuEB4RgVXLlpUr5D768EMcN2SIMaXRaDQaTWCwuZCqgiRWcVYvcnQdq2XmONuJK4vVyy+/LD07WK1HF17eKMFEC9s777yD4447Tk736NED7777bolHCH+wDduePXtkMygOX0lYJRoTEyPj7PxHEUcxNmXKFJmWFStWyGX+YP7pxosMGDCgZHSOI444Qv6y+RPF3d69ey3za44zXez8aLXMHOfQeBSvjNM6WFBQYLkeh+Ssqdh2ZrvdE9JScGJeEVqJE+9s4ETT5UOx/9j1cLldsjrT0/7MMwyVokFR3Rl2i3Aw/5WrV+OcESPk1wG/CNiJYdu2bVgrvhB69+plrFnz0cNu1Qxqy7BbPcQX7tbaOOyWuA9cRnVQTUMPuxV69LBbFYdChKJKxX///XfZDu3555+XVjRauljtedNNN0kPESz/zNso2CZu2bJlsjrWDKtVTxDXp2fPniXbPfroo3juueekoDvllFPkPLVs0aJFsj06t3n44Ydls6q0tDSZFu6LFkEKVLohe/bZZ2WYOXMm2rZti+7duxtHPbzwOewW28Jd3Sge7Vo1hbN1M9hiGyLp+PXS0a/DYWd9K+iGxCF+2SlVVq063Vi7dq2xi9qJy6shZZRQ+YOOOgp7EhKwWtyki+fPx6Z16+AQN2BtEnAajUaj0ZihWFOwc8HUqVPlxz3FEz+OjjnmGLQUH520nC1dulSud//990sLmxn6VR1iUSN12223ySrTb775Root8swzz2D69OnS0sUqUaLScZQoaxNEWUtDySWXXCLdiTVr1kx6q6CVkduy6RLFJL1YkN69ewfl1/VwwbZwd/mfXVbj4W+dMwm9jc4FoegpWl3wq4CkJiUJQWqRsTqAtsTVDLQlLrRoS1zo0ZY4jaZ24Os+LyPiNkQWonthYCMSdI+t3dWpdDIcZ9ThExYQq1avRsPGjeVXSZMmTWSdOqtdO4uXXMO4OGPNmo8WcTUDLeJCixZxoUeLOI2mduCzOtXhBJYVpAo5l4VZ2xKRVlwzX4qhho5+FWzMmJGTgxtuvhnnnnsuGgshxwKD9fu33347Tj7tNPz1zz/G2hqNRqPRaDSHHrtLfHRdm94bw697B2/lPYaz12wxFpWl2GYONfNLrSJQrLGhH1Uue/NQ0HEeq13ZE4bzONzXPffeqwe/12g0Go1GU2Ow2+DG2ykTMfecDThl5cX48p+fsbc4r0Swuewe0cZmbwz0EedwiEgd4Y/ZszHw6KP9eoymoKO4G37WWX6HCNNoNBqNRqOpLuwuocdOnZuI+DmF+DzjFXz11z6M3LBJCja2+3eKlcJEnCFcCDpPvPKWOPaQ+fXXX6WfFm+kdUygvElXFa7iYtx8660Bj5/K3jJLly83pjQajUaj0WgOHdLZb/HNF2Ls6VfivL+Oxfi+yYjYm4YeeZfDATfiXRvgFErO4XB5AkdsCIGI45Aew4YNkxYuWrpmzJgh57NLM50OsiGqGmqLw4D89NNPMk7R99FHHwUsvPyRk5sruzAHQ5NmzYyYRqPRaDQazaHDLv2+iXBFgxicumIf1q+JxQvj5mLPLQPRdeJQtJhzITp9cjaaJU5Bo+J/5eD39hC5FKGDwYULF0oXJfRoTSjS2DOUbdTo2G/dunVyGJAzzjijxPkuHRLS6WBloRCkf5pgaNSokRHTaDQajUajOXTYHTY3HDYX8sVvZHE4Vo++AhHr92NZbgGKVrbAzn4/YvuNU5HccgTSw45HmN2OcHr9DQEc1PaKK66Q7cx8tUlTljJWsdKvGz04E+XvrTJwf/7awlmxb98+I6bRaDQajUZz6LA7hRZyum1odPKx6Dt9NO7+YwsWuoqQnZiOfVc/CXeLI6RoC7fZZPs4yjdbCKpTOVguB7zdunWrHIONw3JwvLM+ffrgtNNOk8NytGvXDp06dcIvv/wiLXIUcGocNS6rLNHR0XKoj2BIT001YhqNRqPRaDSHDjsHv2ewOYBbdqciwf4jLvr5Thw3/zmgVx+5EkUba1DpWo0hFLWpHP+Mw2h0NBxNUrxRyPXv319WWQ4cOFCO5UaGDx8uh+kg9OFG2MmgstBX3FfjxxtT5cOq3CP79TOmNBqNRqPRaA4d0uWt0G+49uEPcdtNn8F26nYcOecVOU5qGAe9Fwvl+KlG2zk6B6boqyucKoQje8qWB33FLV6wAM6wwEa00Gg0Go3mUMIB571DoKxYscKIlcJRjNR+2BRq48aNxpLAUMdncyjVNIkD4GvXXRXH7hQqrsBWhE0JB9ADTmQP/AeRLRYhXIg1e5hNuhXhOnQNZxeijj1WGeoK7FTRsH59/PrLLyWuTbxJTU3FN19+ie7duhlzNDWGELSNrA5q8mdPbf0kqztvoUNILXl+NBVj9uzZMpjjLOc+/vhjOTA9oaBShgwOYs9hGtmE6Z577ikZuN7MtddeK/czYcIE3HLLLcZc4Pfff8frr7+O7OxsY47Hs8Q777xTUraeddZZ8vfDDz/EZ599hpycHFkrp8Zf37BhA1599VWsX79eTtN7xdy5c+V+fv75ZzlPUxbbzmy3OweFiHTZUJyWAXsU0GzztTjQ1+PSgyfXqvq0QVHdGjuVL7MNmzYhJT0dp556Klq0aIHFixdj9qxZOPOMMxARGWmsWPOp7NipQ4cOxTeffmpMlQ9vDxYFvFcC7XBSkW3IpdddJx9qRbF4yHcb43762qea7w/vdUr2Zfxa4e94nXr0QIHJDc7RRx+Nyay6t3qYBN7H87XvQPDehxXmda68+WbMmTOHsyVpSUnIMI1PS1Q6Atm3IpB1fGF1vCOPPRb7RdoUg8Q5/U4UJL7wPr55X8GmPdhtThDPG5tfKHZt2QK3uB9knlTevPJohff19572x0HHsTjeGSNGYJ1RYJK+ffti6rffyrhVurznqWl/eVCUt46/44WFh+P400/XY6dWEFrAlJhjnIKLgu2JJ57AW2+9he+++w5dunTBAw88IN198T5hOUhxZx6ikpa4pUuX4sorr5TeHdh+nfulUKPLsA4dOsjtOI9DWHK/3P7+++/Ha6+9VpKOBQsWSIF23HHHSUvcU089hQMHDuDll1+W691www0YO3YsGjRoIJtTMR0TJ07E4MGD5TEOR3zd57bdeW63eLZ9Yu6IauO1tLlhd9vw9/ffIj8EvtoOFR3btpUvtbpIZUXcsaKwDKvB1cbm9AbyAj9UmNPJl09kDf4QqI3ntCanMyEhQXbaUuhzWnl27dpVa0XcFiHiH3/8cRn/+uuvcdlllx0Up5hhrc8HH3wgp32tR9E1bdo0aSXjx+F14sNWWcTM640bN67Em4MST7SIUWSZMYu7b4WAV+3O1TZmKOLuuOMOGWc79eeee06WFVyX6aHLrttuu02KOgpBirzY2Fi88cYbUnypfdK1GKtQzSKOx+Y+aZlbsmQJdu/ejdOFcH/22WdlmDlzpnQ7FhcXh3vvvVemwdc5oghs3ry53I74Wu/555+XopRis2XLllI4XnPNNXKZeT36rg1FO/zK4Os+ty3cLc60ASPessZm93zBedMkfwdat25tTNU+fp06Vfqj84Y3VkZGhnQ9EhUdjYbiS0CcAGNp7aAqRRwfTDPBCGFlDVCoab4YevbsacwF1q5dix49ehhTBxNIoVOZdBKrtLKagD2a1ZdpSkoK4uPjZdwKczr9ibjKpNUqnVbnlNUUXbt2NaYO5lCcU0KxY+5pzjY2tAj4IpB0kqo4pzt27JCFiIIFM3vPWxGoiAvlOVVxHld1GCOheJ5IZdJqTidR0/QOwEJZwVF6fD0ntVnEHWrMgswcnz9/Po455pgSAUbRY7WewmyJM/PMM89IjxP169eX29HTBB33n3jiiXK52pf6tRJxfJ6YHorSt99+W1r2qDG8RRxF3uGIr/vcTtVmZ+cFRzGOzUo04qXB14NKtc4HrraGCJPIIXm5uZgrbqDB4qYadvbZGHHBBThNCJ+mrVph3oIFxloatmGg2ZvOmRn3h3ejV34Zsh2Fgs6eiVlsEJreKwtN/UwfBRd/2THFHxwCzgxfKoovv/wSkyZNQkxMTImAYyHEQiUUMH08nxSF5Z1TfjGauf3227Fy5UpjChg1apT89T6nn3zyiRGrOHzpMn1sE8Pf8kZNoZBR5Irniy96BV/cTLdZwPGc8oMjFDB9LET4W945VV/eChYeqtE108S2QUQJOM4jVoIiWFT6aAEoL53e8Dk855xzjCmP9SEpKamMgCPmdSoD0/fee++VpNkfdBtlhmlT543p5kcNUQJOLaMlShN66AlCwbZwN954o7TecT7LQ77/KLC47M4775Trde7cWb5fzPD9ZyWyaWXkCEt8N/C9Tt1ATxM333wzrr/+enxqNM9R6eBHBd9JycnJJfcA56Wnp+Oqq66SRgi6E+N+WKVK6DOWvl01ZbFHOLNwwu9/Y8uBZDyXvg+Dk/YYiw4ftogv1x59++Kuu++WhT0LKxY6/KWJ9U4xf5kocNw+Oj4cTvDh4guagXE++LRcsv0DocjgS4GFINuuqZE4FLQIkZ07d5ZYXPiyIF988YX8GgsF/KpU1kj+8uuPx6SQpPjg1x6haxu2XWL7EDMsyJUIUeP70sJBCy234frmdmSVgenji1Gd00ceeUQWxmzgS3jO1Hlhg2RzWyuiqlL+++8/tGnTRsYpTJhWzmPVRChgGs3n9JVXXpHpfPDBB2UhzFFVCK2+FDjePhh5j6hGz4MGDZK/bJtDeC/wnO7fv19OVxamjwWOOrcsMCi62baGx2BhoYby4xc+rWwKppEik7BaSDkEp5hnvnhPT5kyRc6rLEyf+ZyycOV5u+iii+Q83muEBaM6tpkXXnhBnnsGJeBVtR2r2rgv5jUUmNPJZ4jWG1r5+HwsW7ZMtnFiGysFxZqCBTCr3gjF/J49nnKGPSDZiH7v3r1lRL4mtLz55ptGzOOei+8RVtvyWvL5YIcEtYzVtYSdD1iNaIZWMHVvesPt2FlBWfwpvrgPvnPbt28v56l08IOY73sag/j+UKKfH0zjx48veT9zvvqopyXKn5X+cMWe466HXZ1fwscPvYuRO19CzG/LjEWlFNvcIvDXE1yl7RxrPfyiPPm00+TNTPHBNgPqq5C/FHUUdDeIl+u8xYvlfI0HnruLL75Y9hpSFqp+/frJwqRZs2ZSSCnnzIqHHnpIvtzZgFY9uISOn6+++mqf1VOVhQKDoouFCasD+GVI6wCtQWyrwXYbZtiWhNUDFKjKEqOgpYPVBkOGDDHmhA4KNL4o2bh4+vTpch4tmiwkCdPl3bD3m2++kYWqakujYJsOpvHII4805oQWnk+ms1evXtKCQjFEEcJ5vI7majLC5gsvvfSSFCNK9CvGjBkjz6n3NqGA1j3ea6xS4xB+TZs2xYsvvlhSIPDr3lxNSmgNIOq+VlBo8KMjVNYtb1igTp06VQphPl+8P3k8jm7Dc+r9PNHi+u2330pB5W19/fzzz+X59L63QwELWn6o8QOBopFWFxa8o0ePNtYoO0Qh36Wq6YH3uaNQ5seyEp8ajSZw7GFuG8K3bse8oX3w7rZTsX3TOLyallgi1oqNNnF8l9kdbvHCc8uRG+oKK1avloWHEm6+oFWO4sT8dXm4w/ZhbNPA9hF8qRN2IVeNaa3gFxgtOI8++qgxx0NVNxploch0MrDxLMfhZS8oCjpfsEqVlg5lgVCoru7KQhdKWOCqtLIwJ2wfwmosX7BKkl3wleVOQbFS3n1dGWgdZDopjFhA0yrDa+vP8tOtWzc8+eSTxlQpyhLGKtBQw57m/NhgWpV1lQKJ1lZfsC0PxShFqRl+nFQlfHbUOeXz9eOPP8r7gFYuX9Ca5d12idBKSvxtW1EouphOBlVVRnFmdW0V/GhiWyla783w/UuCHQJRo9EIXcY2caubiC+5KX/g4vAvMXxjL/y4PRl2mxBrYlmYWCFM/DrFNH3GhQtRFyaEXGVhFRALSKuvL9Uugi4+qhK+NC6/4oqACzq+DDd6VWccjnhEvcdCQSsRLVYUNPTtw+HRKDpoNqfAU+0riPoS50uc1hs1Li4LWDZgvfvuu/H0009LFyehgpY/wqozts9guw2mnwKOhQerWAnbvJlhxw5aFVUVIcUVLTbcltYH9sBSo4iEAp5P7pvVCxSJtLzQCsjCmRYu/jIPrFowV1mZqxdo6VIWJZ5fihTuh3lV1RmhgPsmbJzMNjN0C0B4L7AKhcdjfsxCXd0zl1xyiWz/RWh1YiC0MPEjybt9WmWgCCIUjkwTrxkt7azyYW85Crrly5fLdLLaR6F67zF/vEfVOaZVi3llGnkt1P0bClQnMZ5PppPNEmhd5Xlh+lkVyfNH0aTgOSW8x1kFz2kG1SaO1m3uS1VNhQL1DJ9//vmyylm1meJ5GTlypGyAzg9dvhPMzQ1oXeb5mjdvnpxWlk5aSCkCOc2PgKr86NBo6iK2pUkut3j04Vw6CRe+tAKfDdiIc3uNwn+nOBGebkcz56fY0OQj8XIwthDPGKMdIvI80xWEIo7VP3xRsu0GTep8ibOenG2PaI1gNQFfDqwuYmHLFxVfnvxaZTVRZaoJ2FYIRUUYJARDMI0lWaC2quKv8cqiXYzUDMzp1C5GQkNtSWegvVNrArXlnOreqZrDGV/3ud3JIbXsQpsdfRGOXZuJ8amn4usXfkPyTQvRaMojcP+7HPEr5sPudqFZ0TxpoVNfgJWFDYxZTam8OSv41aac+rEtEL8+2YaK1TSszqB1JBQN4PnVpyxKgeKvqlCj0Wg0Go2murA7WG0KN/IWLsOFX1+Hoy4+GtPSkrA1NReFq1tgy/mLkNF/iFjRgbTwoQi3O0QIjYhjmx1WFbDawOyOQEGRxeohVnsmJibK9lShEpAkPCxMdmYIhqpoB6XRaDQajUYTLHYnbHAIYdRg4JF4MTkfY+dsRr47CjkHsrDn3S+lYJNt4sR6lE82IfpCoeFUTzq242HVHT0nsxco20cxME7/MrS8sS0af1ntSceEhO2VKgutamqMtkAJD6LqVaPRaDQajaaqsJc69nWjUWwEVjV+G2OWDsWJi5+XVjfWNpYNQswFVwMZEHRHQVHFdkO0tjFOyxth+64qaaMljrMhiMa0bKjby4/nc41Go9FoNJrqws4eqAzH3v85+lz7BVyD96G46FijZ6pYAW44hchzOMW0CErw1RV69eyJj0w903xBZ5ROir0QVufWRtixgz37KLT5y2puf3hbOtmzkg4k2XnCCrPT1crC9LE3Kn8Z/OHtvJUdZ+jWg+MEmkdEMMOejaGAjmiZPvbu468/Fx384KCVWsGegEynGoDaCrrKCAVsv8r0sechf9kL2R/e7iZ4zzCt9BGn3F94U95IAIHC9DGwZyZ//eHdJpdNO5hO9rD21bPT20VORWEPZKZvxIgR8peduPxBFy5mzj77bJlWjjHp69yFqsenOqfsQV7eOfV2F8Ie10wnO6rRR58V9CGo0WiCw06BNmPHbhSmpOHUJ4ch7YiFiF94puzsYBOizeFgNSoHvXfJalRWrYbXMSEzdNAgvPn66z79KbEQTNiyBXGHeADcmgA7ldAVCHvK8JcvaxbWyi2DcoB7/PHHywJHDUCsuPDCC6VbAr7QKQror43TdEdC6J+LHrxDAdNHVwgUHYyfcsopsoMMhc+///4rCzcWfHRaykKUzlHN0D0DhYqaf+mll0pfbOzpxkIsVIUO/WcxfXTdwd/Vq1fLgo7uOIgSDHTNwnWZHzPnnXdeGfccdBjMa6L8cVHcKTcglYHuIJi+AQMGyF8KXF5nOmlm21K66eA55QgTvLYUQRwLUcFe6Dyn7GHOjwHCNNIfH9uacn/cbyjgfhgobvhLP3p0M8JmG0wjBxAnTDt9wd10001yWsHe8zzPagSMf/75R14TJZTpJkWNNlEZ6OaG6aNbEP6yKckFF1wg70e2FaaLGEKXI7xPeR3NvirpOobnlOdTdfZikxOeS4p9PlveeasoTB/Tw2eKcTo+5vPAtPE9oIbZo4d+ikumywyn6SJH+bSjb0k+RzzPHH6Jz32oRuzQaA4XbDuzXW63vRgO8c/tciMiPxOFEVFwO8ItjU6qPVxsYWi+mA8V08VLvJ3XAP4c9medKIBYdRsrXq58sTSOj8cR9LtUi4RrdbgYYeHLlzF796pRLnj+6PaFIoI9i1kI0W+cedw+Co5WrVpJwfzRRx/hzDPPLBmZgL90XEpXMv4IxiUCnfnSmzwHbmYnGlbb078bfRDSEz7zQfHB/JqtBxSjFCvcjm5v2CaTQoV+0Lj9okWLpHscNXyUFeZ0BuJihKMW0FJJ34lqaCL65eJx6QSXBTvFEUcRUdeXBToFG68BndpyW4otrkdY8Ddv3rxca0ww55Tng+KHhbcagodiiaMGsK0q00AhQn9/HHpNQUscRQV9hfF4u3fvlvcJzwuHl6LFk6JeNaOwIph0kokTJ0oxTD+AFEgUY7y/eSwOo0VRRPdFSqwRWuI4n/cDR7ugCLriiivk+hzflueeDpb9WaGDdTHCUUE49BGtXMqCyQ8dCh/60+S1Z699imbz+LJMH+8t9uLn88hhxfhMEZ5vXn+2O2bcF8GcU95XFGt8pvlscJQIppvp5wghDBTIDHT8raAljqKXH020xNIxMP3D0dK5YMEC+UzR4Tctk77QLkaCh74xvTH7RAwW1qyoIbr4DPCjmO/UQFHlhhk1AL55BB/Nwfi6z9npFE4bnZhywobC6PqAIwzstUp3IiVBCL0wu6cnKx3/rhaFbYXC8uU1IngLOEIBcrR4mfTv2xdHiMLlmIEDcQSHgapFAq66UeKAhYTyvO7vRcxCilV/FHCswjRXDQbbUzgYWCCrgkw5kabw8ecyhunky58WGBZeyh1NVQ/CrF6K9IpPgcPgb2BwWupY4FP8sjrabFFWY5VWBebqOwo4wuP5Oj/KHySdJVOM8JqocxpKx7lWqGtPiy/jFO2+qskJx4FkYUchQqFMIUSCKbAqgvnaKUuWbMrh47j82OA5pVhm3sxWuqqEH2jq2qlh6fgs+bvfmE4KNyWYVaHNvHlXaWtCA+9hBopfFSe8T/jBpDB/5DHO60jBpT4GFbzu/Ajifijg+PGm4L3Le9WM93jI/BAi/LhXo7Pce++9JfcCj02xbk4Pj8kyxVxWaEqx71wyD1YhYbEIi0xh4QJsXTgPW0R8i/i1tRtcJmR3PKYk7uggQkfrYI9rhd79+6OX+GKvjYFpt4I32mrxZTrpu+8wafJkGee8ug6/rjmUDi0yfPD4hU5rTF8hhPmS9x4JgeKNViZ6wR8+fLisqqQFjiM70HrDF3xVfDXTGsf9s3MKB9ymkONg4qwWo3WFhSGtNGaYThakrJ6iQKXVg1YD+i2kEKBFqiqgYGChfNppp8lpfqmyqpRjZ/KcchgmM2xTx7QyfXTJQ2sMrTUUSqym46/3128ooDWO1WO0uvBc8nzQSsNjslCmRVY61Tag5ZLpZNs/9k6n9Y3DS/GaqPZ1HGaqKqD1j8fnteR9ykKEVZC8b2ldVSJUwRESaB1g1SHHAOWg3tye9ywLHFqNQtXW0AyvNasYeS7ZNpI99FktrUY6oNXQPAg+88FzymYOP/zwgxz5gOnmBxILQ36YqqrrUEKhTvHG5+Gyyy6T7zo+03x2KdRoufYeQo3ppJVRNUOgNZvPIZ8ximruk6M2aKoWijMKIo7ooQak5z3D9yDfMxRuquzyJ5zMHxZ8bvkeoJWa+yd8N7A2gftSTT1o0SYUkZzPZ5FV8jwmP+JZDc9Ra3g/q3l8D3Jdvqu5P01ZbAvmzq1Qq1dHpyHS5Ui6uwgNxO8xhZmYF15+mzH3gQT0aO/5qq2t0JKn4E04T7zILhcFu/paV7Dx9lcTJmDwoEElloDqQI/YUDMwp1OP2BAaaks69YgNoac2V6eyLGA7XMImJepjxRxn8w0KF1ZTE1/rUeBQ/FIIcSg4fpioDwrzeqxWVxZuVY3JjyvVflmhPvC4DtuMqiYiahszTBvbWxJ+yLCqXzVL4ccCyw22m2TnNX7QUaDzw4ftHrlM7ZMfRMwrrceqOpXpZrtgBi5ncyauz3bVDNw/P1JZQ6HS5escMU1sisKPDOJrPbbB5j3Fph08Vzy36iPZvB4tjuYy9VDg6z6vlIjrHXEWmnx8C946tR9WJq3GiV2PR8tIz3iFvihOSUCvdnVExAkBt2TFCtwiblrekN5VArSa8Kv9PXFDD6QFr5qEnBZxNQNzOrWICw21JZ1axIUe3Sau4pgFmTnOalOWFexY9Ouvv8p2rlbrKSji2M7YPIYvGT16tLRes0qdHcDYNpL7ZvtWWtFoTeO+/Ik4NrPgNlyXnZ/YaYftmL1FHNuGHo74us8r5fFtfP5k/NNnPn4c9SKeTHwFFy9cJue7hVZhKFZBHMVlhLrEPHEj3njTTdLkbNWmg/O4jCJvvlhXo9FoNJpDCau1KaYY2IaWIosdTGhBY7MG5YifcJ1AoMii5Y/rq3an7GXPaYoy9vY2QzHGqnWzqyE2aWGbOW7DZjqhcOh/OFApSxzpPPVGDNp9GlqiEL+umoFp732E1rYoWdXKP9I9Cf+KON3LFScnoHvb2m+J443fpkMHabINBJq+94gHpjqqVbUlrmZgTqe2xIWG2pJObYkLPdoSpzmc8XWfV1zEHeFpE7ctPQXzT3oCD720FP97YTAavH8jxvVIQWqxEHk2t1yHozwAtFS5UZS0C11bV07ETZ48WfZ0Yz27qrNWqC76FE1skFwVUMSxUeilXibl8vhmwoQy7jaqisqKOI1Go6ktaBGnORzwdZ9XuIKTzoDZw7xTfEM88YgTC3f/Dw/1SscLj/wEZ1oBeiwYiF5b+8PhdMFmc8kD0SIndFylYQNEBgo5Qr9ZtIyxizN7dLFenfXtFHh0Y0AXDHSHwJ5PdERqVfUZLGuDHHOVrDIarGo0Go1Go9FUloqLOFsxwhxuOMUeXCcMQnSztngloQGStxzA/g9SULwkDml598HutkvxZrPb5OgPyllwZaEDU7pUsILVVuxQQFcSrBZUVii6aGBdfChEXEV8hVW1jymNRqPRaDSHDxUWcWE2O5xuIUxESGwxEkv7nYrNHTtilqsI22atRkHqQCT1uRxOIdzChHILs9ngpJgLgYij41OOW6kcB9LPFH2VEToFpPWNXYbZWJOOBtnTJdRwzNVgoe80jUaj0Wg0mlBQ4TZxcd3ZJs4tOyxwdNX+3/+JwU9/i35FEbh61oOIbNXCWJO7t8mqV5KdmIBOLWt/xwb6h6sfHy+HHgkENnTOSEmpFR0bNBqNprag28RpDgdC3rEhvpendyo1yafLlmPzjR/jo5MSEfFSF+yxPy+XmVHahSKuY4u64Sdu0ZIluPb662W8PD4fNw5H+aj+DTXBijiNRqPRaDS1jwpXpzqFKJMBxfj89i/x6C+PInbMb9hfeB+cdjc49mqYAyWBbefsYn7V26Gqj4FClD337LPGlG+eGTOm2gScRqPRaDSaw4OKizgKMxE6rEvA9+f0QtO4SCTWS0HTxUPpWURWn3oGzvf0ZKWIC2fnhrqk4gQjzjoLEz7/vMx4hgr6NOKy8845x5ij0Wg0Go1GExoqXJ3aasBg+evdxsuqyRdnqflpuxPQuknjg7arTZQMu+XF1m3b5ADVpG2bNujQoYOMVze6OlWj0Wg0mrpPhUWcrb2nTVwg2B1GRMAB8DN2bZAdA2ojFJ8cD64mYyXijj/+eGNKo9FoNBpNXSAkIi7L5sJl8YWYmhphaYkzQxHXo30dGQDfgIJ046ZNyM7NRc+ePWV/3LVr1iAmKgqdhaCqbqujlYgbNmyYMaXRaDQajaYuUOE2cbSuOexuXFmwH02KDyBl6c6QOfKtTXAkiJSMDFx5zTW46eabMXjIEDmQL+NXiHkH0tORJ8SdRqPRaDQaTSipsIgjzWyzcfzPczBkwr+YkvMVTtu2xVhSFlqm6E+uWARXHRJ6HOYrKjYWp59+uhRzeXl5ch4D45x3xhlnICw6GoVinkaj0Wg0Gk2oqJSIy3R1xldduuD7pC8QviEczl+WGGLNLQWbCm5xFOkUWPzW4v4MB7Fh82Y5CgPHafUFl/Xv3x/rNm0y5hwaWOWrgw466KCDDjrUnVApEZdtb4PVB9YjJ38ocvNysX7RDEwpSIFdKDUKNroWCROijW5F+BsuQqUOaJCSkiLDoYTi7KKRIwMah5XrcF1a6DQajUaj0WhCQYU1lbSq2W1YOPAUTNxWiP49Z2DJnhjMXLMTPe1nCdHmcfjrdLoRZhe/DhccIqjhtyrDv//+i/j4eFx22WXGHI+liWLpnnvuQVJSkvTRRvhL8VRUVCSF17Zt2+T8yrJ4yZKgBrTnQPwLFy82pjQajUaj0WgqR8VFnHTk60a3xo3xUMc8JP/QBW9HOPDxjd8gwTURPX4bhB5LuqHJxh/R7MAPsNuKxMFCU5e6dOlSvP3227j33nvlNAUaBRx/2ROUAo/hxRdflL1Dv/rqq5K2ao0aNUJxcbHcrjIkGP7ggoF+5DQajUaj0WhCQYVFXJjdJQJHYnAj/sGLsGp7GNa3bYLNxUVIvPMLuJY1QUKf+Ujpeh4ONL0ANnuYWD80IzYMGDAAd9xxh7Ru+WPHjh3yVw1SHx4eLreh1a6yNIiNNWKB0zAuzohpNBqNRqPRVI6KizixqVNoIafbhsKYXlh65+1Iqt8Q89zFSF6zD3tv+ASIipPCje3hnLB5Rm7wbF4pZs+ejUceeQRbtnh6w956662YPn26FGe0smVnZ+Pll1/G2LFj8eqrr8peoqGmImOhDho40IhpNBqNRqPRVI4KO/uN6zFYdmBgr1M3XOj/078Y/vAEHBHWANevfMVYi9WuZX+zExPQqWXtd/ZLwZhXVISBAQqzBQsWoF5EhDFVtQQ77Naff/5pxDQajaZ2cdJJJxkx3+h3nKa24+s+r3ibOLElnfvahYQ7//Y3cc2D32L8p/Nx25rHPIPfy+WeAfA9QcQd7jrjYoRt7/bs2mVMlc++PXuMmEaj0Wg0Gk3lEfKqYoQJEcP2bZOWrkPK+j0YvfwZhJ/aXKibBghziOUMThuc4ggMDq4vq1Qr3x6tptCpQwdM+Pzzcv3EffnFF+h4iAbD12g0Go1GUzepsIhzctgtEZ7bsB0zzugJe8MY7Fo/Ac2WdpL+4WxwSUsc41xXBYq5ukT/fv2w4L//8N1332Hfvn1ypAYGxr/99lssFMv69e1rrK3RaDQajUYTGircJq71gCFUamWw0mcl46mKXy5P3ZmASPHboEEDY0HtIjc3Fzt9uApxu1xwGT1fPQ6PK6yRK4VuE6fRaA4XdJs4zeGAr/u8wiKuotgadQJimxlTPqDg44+XBirY+A8aNWsm3YSwTVptgh0hVq9ahWaNGxtzykI/dxSBVLp2If4qk79gRNz7H002YjUP7+vvi66dGhkxYP2mA0as5lJevlo2i0FsTGknmJqcJ36nBPICMV+j5AM5SE7JNaZqJoHce+Y8aQ4dWsT5hr5TvQnGSb03ygMEYRnlYHVcECxZsgRHenl2WLNmDbp37y7LPY1vap6IExol0paEj13RmBnjxte5McYavslYPQuDBg82pmon7NlqJjExETn5+Rggbuz27dsjLS0Na9euxdrVqzGgb1/Yg3xISG0TcYEKAV/URBEXqAC1oiaKuMrkh9REERfKPGkOHVrE+eaVV16RwuvXX3/FsGHD5Lz7779f/pbHySefLN15maHgev/999GxY0dZVrHNN53qB8rmzZtxxBFHICMjAytWrMBxxx2HrVu3Sl+uwQrCww1f93m1S1++OO3iWn27dweO2ZaBqx3R2JWQZiw9jBAP1j9z52L4Oedg5MUXy5uYXzj169fH0KFDcevtt6NQrEafdzWRHWEuFItr6U98yWXSpOoJvPZWoVq/InzANCSKPKm4P0rz5bbMD0NNwCFSmucIIDfMC9PMaySezZqaH+ZkaVSxSFA510ikt7ZcI42mKrnvvvtKRBt/GebNm4ezzz5birQ9htcExin2+ME/depUPPvss3K++jUzaNAgjB49GmPGjMGiRYvkPDYz4j4uv/xyfPjhh3JeQkKCnMfw+++/y3k33XST/D333HPx5JNPIjMzEx9//HGJxfAcUR7S7+t5550np9m+/LnnnitJbyhGW6prHLJX2S3NduCjpd/hlLGf4ZO105FSdLBDXvqgc4mXcLH4ZahLLBFfIXfdcw8KCwvljcqbkw8Rq1U5jw8FH5aYuLgadeOucBQgy+ZCx0I37qhXhM3h4uHjtfEqIBloYWOtsAo1EbfdjR22YiF4gLVO4LbYIpF2T8FvlSeG0nzVzEwtsecjTeTJJZI3OroYr0UXiMSKBV758ASbJy9iscxOeZrvEFAo3gF7bUXyGrnFv9tixD1nXCPLINar6ddIozlUPProo/jyyy/x448/4oorrpDzJk+ejOeff14OUUnB9Nhjj8n56tcMO+3Rsjlx4kT07NlTznv44Yelw31uTyHIsuyNN96Q+/ztt9+kYcLMCy+8gKeffhqxppGP/vnnH9x9993S0nfDDTfIqleya9cuKSwpSNWY6JpSxKvu0FAvfT5ubnoCdrYbj5PX/4mLJ88qEWsyiJRRxPFNbHPQx5xnu7oAR5C4aORIOZYrb3Zf8OukT58++H3WLGNOFSHOszzXjKqCkHeGEeyOXHSy3yPmudAbTjyYn4GbcjJgz8jH6yhCkShQawoy3fxlnmSkND8lQdxLbcLeQCxWiezZkC9E8i35afg+KU18+hXhjbBcua1xSmoETLeva+SJF6Gz/SoRKcYxiMCTBZm4NUfkJzUHm4tcspd4jUGdWF4jxkU4KE/iGjUPm4l499+IEBczXFyRW/LS8GlyhrhGxbhLfEyo86HR1HQOHDiAGTNmyECs4mxas23bNhmn8DEvM8dZO8OqSMb/++8/aQSwWo/GAG9UeUMrGQOFFuFY43/88YffDnCKJk2ayHZttJZxDHOybt26kmEwKcx4nNdffx1xcXGyuvWJJ56Qy/zB/Ldo0ULGeYzk5GQZ53jnhNWt3C+td1b5NcdZRUuxyfjMmTPLLCOcx3hqairWr18v47NEOcsy17yeilfFqE+h4tC82sXLd3fj+zBvxjQsndQbqzNbYNWXUxGGYjjFMocQBeHiVw7XJePiJR4iofD5559jwoQJluKJD0d1WL2Wr1qF6OhoY8o/TA+rVqsqXbLgFOeZvYhlASrgmUkqLpRl7e2uHPyTW4jNeA1t9z8Kh9uOdyPrw5ZXCHdKFoQCwp3FOSXlck1A5oN5MvJGEgvzxYQbu+2FuLUgHWuKR6GwuCFis9agizMcl1IRFBQhbE8aNua5kOk++AV4qFDXxfsa7REvaWbvNlcWfsnNxiaMR7vkjyGuDN4Jrw97vliekSuv0a1FGTXuGpXcd0bCkt0u8UIqRp4QorcKEbo07wRkoD8aps9CY1sYruIFzS9CxK4UFBUUItFVc66RRuMPChEKJCWSrOLNmzdHhw4dZPz0008vs8wcZ3vnvn37yviQIUMQGRlpuZ7V2OLKMh0TEyNF0aRJk+Q0rVy0dnFkIYofBYWeN+yAwGY/EaYRiGhBo2WP227cuFGuw+pPjld+zTXXYJUo88ywcwWFrdnH6llnnYXbRVmXkpKChx56yGcbMIpEq/ya42yz16xZMxk/44wzyiwjnMd4w4YN0a1bNxk/5ZRTZLrM66l4oOX1oaDaOzY4mnaCvQF7p7qRvuVXXPfwfxg7siE+73A6Jr4/GwmfjkKTjDnYG3cKwoXQYtWWRPwkLf2z0h0bqKh5QVifz/r7Tp06ya8IPghTpkyRSpw3AHvL/Pvvv7jkkkuwcOFC7Ny5Uwo/3pCVgR0btol90WQdKPyiWirSYO6s4I9gOjZ88MlkI+aBQ6jZRFG6PSsTr+zcixvj6+NjV7EQbUV4oHEcOka6URgWhyxXPh7alQS7ED6FLePwqjin0Qg39lK9mBuYb9hSthMAq9/EbS5jd23aArfIx91dW+K1fRmwCyH67hFt4LY5Zb7H7kvC3vwCuOtHwyXef+/Vize2rV68OzYcnCe23XMjUdyrz27egRHRkfhRnHpnrhs3xdXDgIhCFEU3F/drIUbtFC9kcf2KmzbAXWHh6BZ2aF5GZTo2pOTgQGppxwb5PWWc5rs3b4ErrwDXtmuGcek5cIpr9HqnNqLwoc0UmJiUjLm54sUfEwlE2PF2jLhGh8gkpzs21Ax0x4byoTCitU3BtnAUcRQ6LNfY0UC5/VLrUpBxncYmjwqsPWKgCPSG27F8bd26tTHHY12jAaJVq1Zy2pwOlqkUrtyGopACk1bF/fv3y3QpkcgOFLTocRnTYyVODwdqTscG8b71OAC2Ib7LcFy/IRO2MTuw+L+N2LwsEZ0/PREN5zyEXnO7oUHqWnRIfRqtnb9Kv2uhgL106IT3ggsuKDE382uAX0CnnXYazjzzTGkmZoNN1svfdttt8ovh6quvDpk1TJmHA4VfB9VhISQ8y11sV+L0qFswrnMOPl+zC85l2xG2LRGvrE3AB8t2yHaKfTNvxbvhM+EW6Yrcl4b7U6q+cwrLepbX/GV7LxX8wTFC6jtWoSsuxw/tluCWpvXx9p9rEb5kM5Cdi1FzVyIxIw1tc57AuPBHhGgoEG+4ZNjyXZifnWHspeqQeWIw5YfT/mCeujgvxwm2m/Bl53T8ujkREUt3InzTbowT4YHFe8V+itEx4yZ8ETFO5KUIkVv24a3MLAg5Z+ylaqjQNRLLo+170NV2GX5oPxn3tYjD+HmbELFsK5CZg3vmrcau5ANoVDgPjzkfRnxBDrAvFW5xjb5ITzX2UnWU5MmUn/LypNHUJMwCjrRs2VIKJULxZPbbqtblcrOAI7SsWQk4wu3MAo5QpCkBR8zpaNOmjRRkPLayENKY0rZt2zJWPgo4wmWHq4DzR7WLONo8WF3qsLngtBeh/chuiJ06CtH/rsDUgkxs+rsD3CtaYcux65DduCd2NnoKSa4zEV7iNbhysJv1yJEjZUNMdeNQ6Xuj6sDNPnXU+pVF9QgKFH758AukerBjg3sCduE5tMh+G9P6vI932q+EfXsywhduxKq9B3Dft7OBrDB0zF2KywqTUZSaBeQW4vP9e419VBxzQanaR6ppJQ74S3g5ArkkmcW9scH2JSKLfsW5YY/j535foGVaDiIWbELkuh14cfZKPPPnKXBnROAnvCFETzHCNuzGl2lZKJRWr8pjzpOKl+SJwVgvsFvMhk1FE7ETz6BR5nuY1vcDjOuxArZdKXAu2ozCA2m4d9IcZKbUR9PsJLziWoziokJZBf7+3v3GPiqOvAYiqPyE4hrlulpiAyYgomAFTrI9Iq7RePQU6Q0T+Qlfugmvzl2L5/+wwSWu0Xj3u3DnFcOxcTcWZuWh2F35a8T0qjxYXiOu41k14DxpNBpNVXNILHFO8TZ0iDej0+1Ep0dvwKW/r0G/A7mwO5xIKeiD3WN+kqJNtomTdge32E69QisH270lJSXhp59+QteuXWXXZ+V8kOKKPmzmz58vLW9s6PjJJ5+U1KnTehcKMixEoz9oCazOOvmiMDeudjXCufaXsD/8JrSNWo0fjp2BMb03InLxNrg7NcTDuffBlR6Jy3J+RPfCfIRt2Yul2YUoko5RyofFrrmgLCkwPYslYlIGogpOcwgUVqne5c7Dafa38DaeQnGOHe8e9wu+P+kv2HanImLhOizq3xU5meLrLzMSPxR8A7fLDWdyGh7evsPYS/lY5UcFhSlaqTyl2vNxjashLgh7Gattt6CpW1yj42bg7aNXwL50O2yNwnCZ4x5xjSLQI2spWuZlImLzXmzMEx8Elb1GRiD8MaKVyg95DPk4zfYBXgoTQjq3GM8M+BHfH/8X7InpqPffRqzs2wE7sgeKaxSOyUWficQAEXuScff2g9vt+MIqPwze952isnnSaDSaqqT6RZwQZw6nJ7DH6csH9uPpeQswZtpjuHzta2g7+T6jsbNbNkz3BI8bhFDAXi8Myjs0q1BVN+dTTz1VWt6OOeYYabplQ0fViJOEaqiwI/v1w4YNG4yp8pn41Vci/9VXejiLikQh+RvOddtxRVornOl6AN/sOws9YlIx8cwtuGrRH1gpCtn78y4XijQcLyVPh63QhfCVm3HPeiEgxD6sCkpz4EpWWVIFpXcoA6fNoVxsmJLzBd4Jd2JKrh1n2x7Alfm3wJZVhEnD1uPT/21HzE+/4uLiG3AgKw7haXZ8kfEXsD8T+XlFSM7LtsyDdzAOVQarvKhQsq6Km0M5NHTl4+f8KbjJFobR2S0w3H0/3km6AC1tuZh05iZcsfVPcW3ycW7R9ShKD8MHqb8DvEZrEnDbBiFMxTGs8mAOXEem0wvvfKjgWWj6NYcA+JLXqF4Y/szMwnDXw7is4CEU59ow6ZyN+OTMrYj55BvcXngMdmV1QVRqFL5I/x1Fadmy48amrHTLPHiHMmk1MOfBO5TAuHfQaDSaQ0y1izgekBWD7IXKBteLTngKF68EOn04Ak4hmMLcbqPK1SPcWIvocDLUnbemQwjFdatXy2rS8qDF8HQhLqsTuzsMSVHn4NpdT2D6/jfw1YFf8FV0a5yVfyke2z4QIzpm44eEn7AxpwjXZA+FKysc3+6aC5e4shRz7xWkwe3HcmouIFVcTqttOO35KY2IQHEv7x+xmjmUBzffHn0LGqfPx8wDr2Pa/s8QuycHZxfegLMLLkZkYQwmtd8NW3o+bsg/FXvSmiImNR8Pp+xGxLKNGLMhAevgu4u5OQ88Vknc/HRxmmmVKxhBwDx558fPqTNRH7tjL8QZ25/EtKRX8f3+7/G7ozHOKrgUo/edjnM6AFO2fQ93ZhZGFA1DcWYYJu+ZBYfLhcjMXLyyepVIgu8DqTyY4+Z5hFE5bQrq+fbOUyAkRN+Mernb8WvK6+K++xRtD+zDeQVX4+zckdiR0QDfHJ2Gkw4kY1R+XxxIa4LYNBe+TNwA5/pdeHfrXvxpzzP2dDAHpd2Yrug1CjRPGo1GU5WYX2HVgnwhiqPyt98v8/F095aIPD4c4W2dYPMzW5gNdlrqxDpOrsdtKOyMF2pd4YhOnTB50iRZtWsFnf5+J5Z3aNNGnJTqzTzLJxvCsL7v29h+9IuITUrEz1t/xo+bZ2FHlgs3pfZBeI89+LDeH8jIc2BkZjfYs+2YsHUlwlbtwOq0bGwszC8tKI3AQtEhgrzpjGnGZaEvAqvOlQCQ192Iq8ACtvRUiAkp9j1T5WNDSvzJ2NjnZSS1Phtv5/6Gn7b9iq/X/4fzM4cirG8OpjYdj/DMPNxRdATWpsTiqH17cazYLnbnHvwt8sRDeeeJ+ZFpMgWVH5luU9ynYON2zI/4lSMmyOnysbkjsLnnq9h61KsIT0nD97t/xk9bfkfutn24OHMI3D324afGkxCWkYcLc3oLQReFL7eug2PrPjRr1xLrioXo4TG9Ao3UTLPKD0NJPrwCO48flJ8SccjfIHw8uu3IjeyODb1fxI4+o/Bcykz8sO0XTNr0Lx51DURWp1zc23IyGh5Iwo1FnbHxQCyiUzJxTE4Omvz+L7aKfFrlRwXL/DDdpvhB14iri1+5nXGN5PkJ+L7TaDSaqqPaX0X88uVLkOGEtBwM3JWP8I6pmDH7VNTfeaN4iXoKZgo4p3iDeoIQduLlaeXbrTbTp3dv7E5IwCMPPSTb5tGJId2dvPrqq5g+ZQq6d+1a5R0aVOEmyk+JauvEebZiNyLfmYY1f3bE/HktkVbcBJ+m78OH61Lx98wuaJ6Xhcmxc1E/OxeXZjRCeHYMIoZ0BnKLsSePBarnenHXzIXsIuIpB0sKSXW4spReZ5kesR8KARnEzhwOlxT1TmP/ZlSBzfxwW24uERGmw24rQPq7a7Hiz9aYPL8xwnNtmLhuI3K/74FfltjwTYM/8LJjA54uaow1KWEY2K0pMnp2xur0PCxfv6Fkh8wPAycpZOyu0jwdTNmZKi/yWZB5EvkTiXaIndgs2uiX5IcZEJS0R2Oe6HpjzmKsmd0Ji+a2wp78pnirOAUTV+3Gjj96w5XuxOS4v9A0PQsXZTYFMhzoekIPLDiQg8T8vBJLFHdZkicjDSo/vvKkZpuvkSdPIi/iGsk8iV/vy8R0m/PEzdV8JscpIrkvzMTKOa3w58JmcIsPhIlrNiNqehdMWdwMnzZZgAkxy/FYsbhG6RG4KHkXEs8/HSsOZGJtfqZnZyJ1Kj/cJ9Pg/xoRYwHTwbwYwXONRGB+uBOf22s0Gk31Uu1+4hq27YR6TYyuzSV/SuGkLFiYKjHheeF7krht/jwk7NwprVS1kYL8fHTt0sWYqjqC8RP34bjJ6lSXQeplUXh9uWMnForCcVTTBkgf9xfyReGf5i7GKVdtRa+W6chfKwrZrXH4facd43IKUXDdCHnR+tSPwr27MpE1qBsaOycgufDKgw/CaSXMxTYsKMtgXGa7UWq6qJbEf7YPNO+qQ9vSbvAbt3p8qnFTrmNeTx7KXox71m5BUXo+rvlvDVw7spEl5u9FOh5/XEznOVD0dxfYM8JwbUIUGl3/P2zKL0BclB2tFq3CLZeOEIJA7F2m3TvBxJNWeeMKyuTJSJTNUEluoX54b3N3bPepaNI4FjHRpV3smSduIR8LmX85u+S6/X4gCVP2JOGy+Pqwf/EPCpJykCNWbDV0F845YTcKxfUpXtMc61Mi8FySDQXXng66Ce5WPxJPphUipVcHNHb8guTi4XK/ZTHyQ8q5RnJN5kfOEfNUQgXma3Qg1eMnTuXJjLxGYrPRGzahKK0AdyUlImXWdnGN3NjszsDzT68CMiNQ8G8HFGdE4I7t0egyahj+TsuXzS7ObVYfJ8U1kelw2LJQ7Pa0Zy2LkcKArpFnNf56uzky50lz6NB+4jSHA77u82oXcbZGnYBYj4jzhV1+Kpd9YZLkxdNxqhAjtdUiR19vK4zx4MwwP4n79iE9LQ0RkZFo2rQp6lWiN2owIu6jT8s6+7XCJQq93KI8fDVzCdbvToUtKw8xO/cideSJeN85By2LdmPfktbYtKIIL918OiKcDnTIyMKzixJx4L6BaJ35ALbHfCEblrMAtaEYEW5PZ4FCW31R3nquNYf18lx3z/UtK9XMeO4PygWuYy5MN20r6xjXJ7ZiTJu/BrPX74E9M0+2HXOd1hctsvPxZr3JcOTakPFrJzxw2QnYQxEXEYY3Z6xF2Ind0LDbC8i1D8CeendwR7KQDyvKhsNehAJblMhXmBAnKn0GxoeIVZ5UPlS8aeP6ZURcIHnidnnFeZj4x3Ks2pEMm8hHzM49SBl5Cj51zkbjgl3Yu6Qp8jfF4M4rj5XW7UYZOXjnv93Y+8gZ6JR5EzbX/xR2t1DuApu46hGuLLjFeSqyNZQplNBaKOMVv0YUcSlppc5+feFGEX5duhGzVu0ARH5s6dmwH9kOeeHh+C72J4TlABm/t8HT55+MTcWF4hqF460Ve8XrJQaRg95Bnn0odsdcJ/YkUiDOv1OcH4etQNxzEeIaRXiukUim+kgM5hp550lz6NAiTnM4UGNEnL1xJ7iFiOPXb8vwSXgs/XR8GheBxfnli5aM1bMqPWLDoYYjNigo3hYsXIgLRo6UY8axJyzn0dLIAYpbCjFXkR6xoRZxLLaa7JqJqB2zgbRoFKdGY/mOcKxqasey2J7YJUTQvRG70CHhAG49/n8Ic9rx4bR1cBUXwXXNsYhv+DP2Nr8Lrdc+Ka0jtjBx8cOLZf2qOzIcjrBG2Bt7DQrsTcSRWIha4XtJhUScuwCttk6FfdcSFCdHw5YWgWlbImE/uSM+2xeO8PRcvBm7Dnd0GoZCtwudEvbhoSX7EH1EMxy4eai4VhGIyEpE0x2vwRbuhM1ZBLdT5EnE7c5IuGK7ISHiclnd6ROPgjAmSvG2xAWUJyFA4vf9hXrbfoH9QBSK0uth8+4o/OvIxIb2R2FLSgH+l7kD58bm4YYuJ4lk2vHB7I2wp+bBfvlAxLT4DntaPIZW694Q12iXbJfqDisW+RLCOiJS5LEeDsRehUxHu4OsZ6UEdo0CFXEuIbhabP8FEdsXiHsuCraUKHGNwuA6vgPGJ9eDTYjQ1+qtwuPthyPDbkPjtGy8MHszoto3RcaoIfIa24rD0GLzc7CHC+HlKIY7XIhQttEIE3mK6YKtEVcK8e3nGgWYJ82hQ4s4zeFAzRFxTTrBVr8ZNuzbiOsT8/Fvv144fuFK/D2wr7GGb+qSiHMVF2NLQgIuu/xy2UuVwo0CTlYVikDP1FlZWZjy449BV8EGLeJKyijP8Q/C5UbEqs3I+mMlUndkIkPcMVvt2Tge9ZAYWYiO7bMRkxeGsbuysf60E3DL+v3ovi0FTiFgItrGIe/209By7hg4KdzYVkoIA1dYkRBx4njhNmSk1kdYdiQiG2bD7siGO6oY9rA85MSdgfyoAShyhiHP3lykk966RfrMSRRpad+2dASMzdsPyGK3lNIplTf6gJNDVy1YhexJS5EiVqEL3CNj7EjKsqFprxS0LHbgr8QYvHVMdyFa7HhnxiYUi23C4yPhHnk09m7djAH1/hBJEnkQ+bEJAeem4AkTQcST0+MQ53YgLDwXrogcIe7EXiIykN5kNFz2GOQ5G6PYRtc2hoBQeRJpadI4BvW8RZwpzzIbDOaMinsnMiERmb8tRtqaA8gQedyEbJwW0QDbivLRoUs2WhbZ8W56GOYc3R/nbE3CKRsOyKNHi/NXdPcwNP/rKZGfApkHu7hObiF6PPkB0lMbwOGOQL0oIfqcWUJ8F4prV4z8uGOQG3Ucip1O5Ipr5BbXyMa9mtLLdJqvUYmIK1mHGaFtS/yarhFrmG3zliPzuxVIK3YjWcxoH+VGYa4dcd1T0VJs8c/+aLw3qI+4Nja8OV2IUpsLYfXDEXZcR2S3bYi2iZ+Ke4nXR+xPXiMROC3C/gOxaOgW60bliPsxB+4IFxyRuciIvxPFYTHId4rzYmsoUuOp0C95NIzzbs6T5tChRZzmcKDGibh/3Dm4eXlvtHjvSuweORWP9/oBl7doZ6wl3pPihclqPL7cjf/IWll3RNxi8XvjjTeWDP1lBUVHbm4uli9ZghiTKCuPYETcJ59NLi2cysWFLTPnYfW0tUgWheyuc7vgQIeOOGPxeuSk5WBlZjrSO3XEmL+3iOvF/q12ZLaIQkSLCPSIW2oIHVHcSuEjrm2YyHuYDTltzkNq02OM6+xpXeVJEqd4F/A+cCHWuUMU0kVILxSi1pTodm1KC9NtCaUizrh7/JKXmoq/Hv8e3CpdHGPtYyPQe+NeNNmyBwWJ6fi3exvcsCkZ7Xani7SwTZi4Jl2aoG29hYhrIMQORY4UOiJf4eKIFD8RDqR1vgU5MbyfmRdVrci8CaFAa6tIf4TtAKKde5FX1Ax54BiGnvQ29hJxW4QwDfQa8Ti75i3Bsq+XIUnsMOmUdtgpPpDOmLsKBSlZWJeSgv3dO+NJcY14fRxCaOc1iUBkp1boGvGHEJsU18yT6RqJ35zWZyO1xVBxBOV+m2kV64l9qGvEefUdCbDZxTUqEs+57FbgwXyNUsW9kpruscR59uOf/Mw0/Pv0D0jKK5btMdc9ejY67khB+w07kbNPXKMurdBcCMNRKxLFEW3SVVH6EfFoULwIR7QX+5f58dx7tMjJKmGRz4xO1yMjrpc4gud+86TFkxq7OA6vUbgtVVyjPSgqjkW2u30Z46k5T5pDhxZxvuEg9N7Mnj3biPmH58z73K5ZswZ33MFmJB7efPNN9O7d25gqHw5s/8ILL8gxyjlGKof/Yke+UaNGlRlqS3Mwvu5zx43XX/+UEa8WbPXiYYuIQZ/s9Vi4oi2eabAOM/Ydh7f+2YOLTjrS09ON5gHxSxHDmg4GFgd5+7ahNV1u1GL2JybKgYUvvvRSvwJOQYscR45o2by5Mad8GjZqJMe4UyQkJMiRKKxYvmK1OM+iEJPnm78qfnBolPcbOkdNwlE9UjGkbaEoRA9g6Mz9yN2ZjoTkJCR3aANHfhH6782EkAJYgBzEN2oIR7ETTYRgQaFTBHExi8RvkQ2FDQci8ci7kB/DAc5ZfIqDCDy/4q/84cEpfhwocMejwNVYCDm1hic0aFBaFZ+Wni02MfLAwpm/PoITHDP1KZGfJAzpnIqO9Z3oMWsTOi5OReLeA9hWnI/MJg1xrBBx7mI38sR+k+tHwemwS2tQ4/ACuETeHIXi7hTBXWRH8uAHkN7mbBSFxzEH8p84mvEr7mV5cM8NXox6yHc3ExIoRi6VlicRoqPDxXUX58gg/aA8+c5XfME/OML+OQZ0T8MJR+Sh1dYMnDhdCNIdGdienIzdHVqKPbgxcLfnGq115SOqSQPZhi7OvV/om3CRDyGFCniNxHl3xWHPcWOQH9teHJsSSRxEYP7rOTjzJM6LraG4Ro2ktONSFczXKC+vAPkFBUaay7tGGWid8xr6d9uCoUdk4Ig4G7rN3oweC4QY3XMACeLcpLeMxy3L9qBYaLV8sc2OcBuiI4UwbdAS8UUpIj9CeIrrw8D7LvmYe5HW9nwURDY10qf+8tdzXOaH92SxO1peo2LwehrXiItFMOdJc+jguNflsX37diN2eMGRhxi++OILKd4Y51jhn376qfSE0KdPH1kL9MMPP6BHjx5IFR+1LG+47KWXXpLjlnbr1s3YG6RLLI6H+tprr8l9XSrKMf6S77//Xm7bvn37kvFVedwFCxbIfbBM2rhxIwYOHIiPP/5Yjk/er18/7Nq1Cz179pSeGDha0nfffSebFnEcVtZSUUzSEME0BSMY6xq+7nO+easf8QZMj+0N5zzxNf59PYwo+hsvHRmPxH/neYbaEoG/YXa3DOHiRW8XX/ehgDfv+++/jx07Dh5Oadu2bXJYrqpmmzh2IAKOsIr1opEjA3IMXBE4/Bk7FlAc2N2i6JXBWGjCPX8l1j+4D3NeOwZTP+2D6dv6o2DYeWj65hU46qWLYDuqHYr3Z6B4dwoyROG3prgYDdwRKGSP1bRcJCY3kENAuTMixW84ko+6Dsn9z5eFIeGvp/BUgYnwVKkx0OWM9DEnAtczBzPMj8PlyY/8CBDTDHJ3ZsSLa999P2Pe030x4/2e+PabbkgbcC5a3HklMh84Axe+eQOS6tVDWMJ+zHe6sMGdh83FRchJyUJRbgHy8huhSOQHaeEozIhAscjTvuFjUBjJ6jeRLhVUGmVQQkzkQ+RH5UmtU7KuF+oa8bpQHHmu0cErulZtwqb7tuGv14bgl/F98MOiXij433lo/uaV6Pb6pWjyv16wpWTDsTMFtIMtcuUJkeQQ6c9HYVY+kjJbwyWujzs9Uvb8zOhxKRJPe0Cml/C3TDplKHuN+EIp7xox7fIayWtivkZeF8ntQurLv2HRkx3w+zv98d3E7kjsfg4a3XQpsh8ahhFv3oS9jWMRuTUJH4a5sak4GxuLC4TA9oSsfYXIO+AU+QmX+XGLa7V7mLhGUU3k7pksGVQaZTBdI/HH1zVi0GhqIxw//IYbbsC5556LW2+9VQomtr2eN2+eHFpy+PDhGDFihFxX/XrDconNfRS0ph199NHSSkdhR2gFvPjii3HTTTfh119/lfMmT/a0we7fvz8GDx4sa4xWr14t90ehTbF2zz33YObMmVLcUWCOHTsW11xzjXjmbNi6davcXlMK37nVCl9+9APH0PeBhkgelI6WtivxfHQLDHxwmvTD1H3zCLTK/RZOB33G8aVKv2ChSeoll1wib9zFixdj/fr1ct7y5cvl+KQrV66U/to4/corr2DLli2YO3cuvv32W/l72WWXyfUrS4eOHY1YYNDMzK+nqkKKA5fZciIKWRa0RuAS56C+aPHm1ejy1rXo8Opl+OrUvkiIjsaGhN249+fFWO0Sgi0uBk6hvre6Cj0WVUFBdi6K8guRUdgSrsxwOYB50hWjUdS8vbiuvLYU6OJXXF7eGxTwLDRp83GIGZ70UM4Fh12IBCkMRJyBeTDnyWFzoPnL16DDW9eh1zs3wP3sBXjMHYZUIdS27tqPUd/8hYKWjeGqF4nMvGzkuZ0ygW62jMsvgkuI04zcaDnWalGjjki6+hF5JJUn5kfe58yLEej/jHexFD1GugKF10jstiQ/DOb8MH9hvbqg2VtX4whxnbq9egV+unAw/rQ7sSs1DY99Px9z9glxExcLd4QTa11FiEaYPLGFuULEFRQiLbWeuD5C9Ig8pVw5Gjmduslr4slP6TViXpgHWseZJ6aFIehrJDZg2tX2FKjmPDnEv/j7LkI7cc/xGjmeGYGnwqOQFxGObXuSxDWajfzWTVFUPwqNi3KQZTOsz2K/JdcIraST4yJ7E+wT14jVx4FeI6ZJowkFmzdvlqJGVW9axVn+/PXXX5bLzHFaw8aNGyfjL7/8MtLT0y3XY1Mcb5R7Lg4xec4555QM/8jpRx99FNyvGpLSF7SIseMdrW4UW2T69Omycx6h1Y3HoXCjIOTwlbTOlcc///yDs88+W8bPPPNMLFu2TMaHDBkifxs2bCjLwb1791rm1xz/448/pDi0WmaOUzjSgsg4q3RpLLFaLyUlRU7XRPxfrSpAvvyNl+eBpldjWmo3XNqtBfas2oWNeYXo/MZwuBclI3LNUvEStSG2cC9iHHvESzc0r1Ra2jIyMqSJ10yjRo3QuXNneQPSxNu2bVt06tQJn332mTz20KFD5Y0eCoKt++fx+aVSJfC8ymBMW8CbRK3GgrdJWATe6dAWk7cm4t01ibCFOeAOc0pP+n12ZpYU5vzlO8Nd6JIu1fIKo5Ay+nbYw8KNQlMU1CJQgPAYDIRJ4bHMyHkWgfdTGVRCvXfghVxsHJCC4QTxJXq2KNjHLtuOP5Ky4XI6YI+OQLcNiWjEamCDMHHtioqElBNiL83WGlk3X4qMcy/03NcyqDyVxSo1PD+cf1DgHzOcoYIP1HZqlXpCvL3avjWW7k3DM/O2eK5RhAMNMtJx5NZUz0oGQs7Ane+CIyYcOe44HBDXSKhxI0+e/FBUV/QaMZRBzhR/vHfghVxsHJA/gxs0xFVCVD+3dDN+ScyAS9xzNiFIu4tr1Cqv9BrZxMulsMAl7r0iZBbXR84ZxyP92mul9TPYa0Q43zscdN9pNH5gcxZWZ6r2aFZxVm2ecMIJlsvMcY79ff3118v4/fffL61oVutFRUXJaTNKoHE5hc5tt90mp3/++WdZRcr90hWWP7p3744rr7xSWunY3IewzTUNIYTGDx7nq6++KknLgw8+KJeZ8S7TKNZmzJgh4xxuktY6KygW1X6JVZxlda9evSyXmeMUl7Q+Mv7OO+/IKl+r9eLj4+V0TcT7PVbliKIETrdLBru9GGc8fS3csdFwLNuCv4rzsXrtycjPOAO7Br8Ap3hT5ke0QhHaIDxEb02abzmg/RJ2FjDq7WnCJbyplFjkctK1a1f5G0q2ips8GPLy8sq0cQs1zLLvwAfN9LCJ6eT8PNy3dity7eJqhovCMyIMjRetRau9BbKAk6uJ4BRCiL1wo+KiEXf7SSh47HpR+FEOBAbXKxPEH+/gC6t1S0PZ/HDeE9t2YXp2PoqE2KGbkKYiW53mbUKE4TeN0BVFoVClkdHhiGxaHw0fPAsF9RuVpC8Q1LoMvKUPThvXOhjOtlq3JJiuEVsQFoh03r9uK3LEQgodiHw1WboRrRPUiAYCsYldzC8uKkZ4w0g0vvEEFD10ldje81oQuy0XrlMmiD9WwQqr9UpDaX7UPfjhzkR8fSADBXQRIq5Rk/hYHLFgM8KECPcghJlD3F/ivgwLtyOsaSzq3z8M+X16l6QvENS6Mog/VkGjqU3Q6qaYOnUqzjvvPFn1SSHG8oXttGm8mDZtGt5++225HtvIjRkzRsYVFG3Nmh3s5/WBBx7A119/La1WtNIR1lyxapXVtmznRlQ6eKynnnpKWrhYxrLcpdGEbeO4D4owtomjGOxo1Fyx3I6uhP/Uukq1906Nat4REQ3LNtI/atw0nPrKDAxwhOHkc/ug6fPXGkuIp5DlRU5YEPreqTSf8sbk/hmnWGJ7Nc5T06GEvVPXrF2Li4OommVbhViLrypfBNM7dfwXnjYKnoJJ3AqeiE/cQnw/u2cvtqUWwJ2bi/biQ+z1Fd9jQUIcft/rRJSQ6bF2N85/fiTcYZEI80p3MOVfOUkpoWWr0l6COxOSSzaUfwP4TJmRnYFf96YjIysH9pwCPDZvPgY0TsEj84UIgBP1xP46H9sB/UcMkfmxeX1QhDpPDeNjxFd0qbV25w7PF67cll+v5XzQsNfoc3v3Sd9wrpwc1BP385frpyN5fz28mxCGGHGNYsQ+znziLETUb4CwSPFiNO0y1Pkh5muUnpaDjIxcz3H4J4B9zM3JwvT9adgrtrXnFmDU9s04Batx71/xaGJzIlLso02v5hhy1cmIFS/6AsPioAgwmZKK5Elz6NC9UzWHA77u82q3xLEAlGMRGuHJlP1Y8vpfeHPZWFy6/nU0e+Fa+RLlO9gT2M6IwdhBiKFIU9Y3JdiUibiqrF89u3eXpuxAoHVw765dxlToke2ceBfwFJRzktma4o9C+gkLw4mNY9B6+iw88/FChDXPxdC+qRj93k249sOrcfnb58FZPxbhFDxiG3NQ8FDlBSvKW8/mEPeKyhNDOWxw52NLsRtRYQ6c1jgWjcf/isht2bC3ScXzAwpwx8uX4ZaX6+OYy05CRL1oz/0otjMHhVXavIMV5a1T5hqVI+BEVrCgqAgR4RE4rnE9tPl1NiZNWgVnqyw0H7APoz6+Edd/cD2ueOtsxIov6vCoaM9xxbYqKLzTZRWsKHc9zlPXx3uZBSkoxtLiQmS77RjWrAEaffUrms3aCVvTLIw9Ohu3Xn8ibn3JgVNuG4bImBgUihcHd2sOCqu0eQcrAl1Po9FoqpMAirnQwgN6Bi8HPpz8KxYedx9i4yLQ4IPzEGYr9PRK5XIh8Fiz5XQCDodbCr46gygBooVA3LlzpzHDN2+/9Ra6dO5sTFUPvEY83SynSoMbC3Ztx9Qx3yHpiR9Q9PR36L4vAuFC8GbVK4SjYzIaTHwdHLYpfPrfYgPpTveggk8Fb6zWCTSUh2xAL3698+R2FePdhz7Hxgc/RM7Yb2B7fjpa2+qhqSsazkYFcPRIgitrPyI/2C/uSbu4ZzMtj6+CGavlgYZAUHlSOkiFNTkpGP/EV9jx6JewjZmMbnvDZE/U1AMRcLTMRKPPX0eUy43oPxbLIbWE7LNMA4M3VutYBat1y4P5sbrv6NPtyQc+xsZnvob7he/gemYK2hfXQ9foeDib5CP62M2ICt+LyPey5QZOW+5BxzYHM1bLgwk1Ab5D2MZXo9EcnlS/iBMvPwo0hve2peKNRi0QNRhIv28a7HYnbGK+DFICuMRLnW5GbFLY1SVYv79v927pn8eq0wI7YLz52ms4+YQTjDlVA4eplYFxIyhhUDrtxu0T/sL4GRtgS0kXM7LR0haBWCHUwsVl2vZrPNA4C/YBOxD/75dwHXcUIlK3QTY1NxXOat8HFdjGtaVQlPPENAPvFWWFUsGzgVcwUZIfU57k/vhrTDMUFuTili/+gK1tS5HGGJwXFo84kaqzj+2K+mHRIj9pcByxF7Hzx2P/6FsRO+sJuNyxsoeoWRQyyPwwGNMlGOup/JSE8vLkheU14n74a5r33s9/4v1vFsGZkgG3ED/N3U40EAekc+H9qxvKaxR1/FZE/TMeeUOOQszW+WJ7hydPpv3wWOb8MDDdhIP/q2kGq2tUXp642Ooaqc3UPKe9GDd/Oguudq1gy7RhSFi4yI8d5999hhCgYuOGeXA0KELE1r+Qcd9taDSD1yhK5odB7YdBXSM1bU6SXM50i5kyiOly88NQzbDBONsLmd8X//77r+z5WBVcd911MvCYKh4M3E6j0VQtfD1VK/KFKEo3NlZe//Cl6HNeT9iPb4QwRyTsDvFSFm9aj8izy+AQpYRdrMverNkmvzR1gcjISHTp0AEzpk/HJx99hK+/+gqfjhuHL8ePx5oVK3BKNbwEyxRcRvDmlbkrkB8XAdv67XDH1scVjoaiMAWG3n0KXEIstMgW8qeRuHZd98GRsxH58W3hathJXmNeN+5f7ZxxWZXO+SJwuafHoJhnJETMKinQVeHLIAtnanvTPAYzJfnx7KoklEHMuHX2KqBRfRTtSUVEWDGiXS40EAu6ntJTpMWNlMSOsDfOhrNDFprMfgzpp47xpNFId5mdi/XNeVK+xZg3LudPmWBOuwjeeeIuzZSbH8HCrdux1BGF8H37xLmPw8X2WNQXK0bX9+y0ZX4U7PG5sLdOhjN/M+xRkcjrOFTsly5ePPsv2bmYNudHXicx35N/zpCryCBXN6WdgXmR+RH5KpnnRfnXyI2rf1kihFo92MQ1skXa0cEdDmanU8OG8p2wf34bOIQwtbXMQIM/n0DqsLEl14ihzM5FIpinkvwwiPkMXC52V3p9xLRKt0w7f8u576oDjvBC56kPP/ywMacsFE10n0RXDeSxxx6T88xiivEpU6bI319++QVPPvmkjNMnlzf0qclgjtN1hNonezQSupL4SLy/CNvvssE8nbkSrqfRaKqOau/YUL91J0Q1Orh3i0K+fBUiLq0zTKF44+9c8p+n+7OF5ao2YBOZK88HTygIpmPDNxM8HRsIyzPPHwMR35WRiYc37Ebkjj3AllRc0Ske8bMS4BLXoNf7lyP28S/Eem5kP309HEVJiFvwqhxDNO2Yl8UOjLya91kZxH6sdtWkeWkD88RdZQeLl+LEBC1Jl68QIia/CFF/r0Wxy417dmRJuy/a1cOAPs0Q9t8GuE7rhfzjeyJuzjNyOK38rjcgp1F3uQ9JiPLknT4S2yAGkaaODeXlaW9uLh5YkwDn3gMI27AXJ7eKQM9/k+Vj0v+DKxD52GfSb1/2M5cgvCAJMQs+EOpFXKPBr4itjZ1VYX6I+RplpucgO7PUh9XB27hxxbLtsBfmIer3ZXCFheO2nWkiyQ5xvVwYcFlPRP++EraiImQ9dwvi5j0qhFchCuN7I6ubx3u8pBrzVNUUibyefvrp0t0BhZFygfDNN9/I3n0DBgyQ8ynQ2OuezszZW5DDHD3zzDM444wzpDNWrvP5559LF0qM088XO3DRP5fapzfm4zE+ceJENG3aFHfddZf0Lcb4nXfeiccff1w6dzWv62ufoUR3bNAcDvi6z6tdxNkadRKlVFkRJ8eVFG9K+a4UgkB1NPBm57/f4/Rhw4yp2gfztcpwYGiGzhrXrl+PzOxsOB0OtGvTBm1FUB0sgiUYETfpKy8RZ6JQXIsrt+1DREY2sGgT+tVzYsSaJNhS8jkmPjq+exWiX3lXrpt7/x2Y/t4kXH7MXLAetSiqA7I63yOXEXmTlRyAU5zw3Ho8L2b3LsT6DjgYbtKoWWlhum936TijVvuYsP8ApucUot60RXBFhGPCLadhy83j2TIM7d67EjEvvSc3LO7aEYVnnwFb9h7U3/iKHDA9tferYg+ezi7W+SGefFQ0PyQ2LgYRkaUijsNLSbz2SfjsXLJjHxxZeYicv4ndrfFKq/pIn7FFrG5Dh3evFNfoHbGmTV6jvRu34oisd8R9VoTieq2QdUSp/ybvPImjiX+hv0ZZGTnIoYgT8632MSk1HT8KoRf1yxIhoMPw6Ok9Ef7C7ygUazd76DQ03rkF+E+IOJG2rPtuEx9GNjRcIu418fGQ0udVMb+0Q1LZPCnEXCaqEtfIO09Vzc0334x27TxjS9MdBEUZHal6izglmugUlZ756SuMfsTo8Z4i0FuQMc7e+NyfL8HlvY2ZJ554AieeeKKMcxmdvir/ZObtqhIt4jSHAzWmdypFmqyqcXAQ8BSsLc7CIEeGtMDJqg7TS9WbBnFxRqx24t32LScnB1sTEnC8eNndeffd8qv2QfHlfOkVV6Btx45YxsHyvbYJNTzbKnjDtlTPNosFtu5D35ZxuOeSU9Eoowj1xW3TesyZoPf7sAb5cNTPk+Vi/KospA54AbboIiFA14trKYpddV3ltTWOJSKyykr+esR76a8nyHUDCN7IbcWvxSLJUY2jED5vHYpaNcLHN5yMHJHuGJG4WLEz2afx6I5wNsiDPSIPqXuSsXneLrhi4oHoAsQl3CIOIPYtgrxfS46l8sNQufwweMNZMlgs5KzRTaMRtmE36sVF49NbhsO5NwOxIqEdnzhTrMBrVCCvEe+khLf/QsGAMXBEFSLMsVUsL/J5jWTVpPgN9TUqWWZMe3NcXBQi/1sPV4t43HdGbyFeWkrnxXFuO6JEPD/KKa+RLSaHY05g7k3jUNCgGdz18tFg1wMiH0Kcibyoa8XjMKh0yzzJ6dBdo6pm06ZNshqVgaPJMPiDjkvfeustKaoCHeIvUDh0EsXZG2+8IZ2gEzpzZVUvPe1rNJrqg++yakUVRO2Kv8GpPy9CF/FybkELQjmU+POsI7DjQtOWLeW4qGxnwiFSVKC4YxXFzbfdhn/nzTO2qCZ4no0gHS1GhuHts4/E6DOPkXdLzGX9UP/4Foho0gQuUVi6m0bAVj8HNicw9MPrxTbRSO/yHnLjrxeiwWNJ5O48hSb36fn1LhRVKA9V4JqDP+R9o4I4djdnFO4Y2gVfXDAYTkcYwsXM+iJRzd67XBT4NuQfdzIQlwNX3z5o2KYZOv7vGGR0exIZbR9DTltaeTwYu/PkRwSrvDCUB9fxzo/47x+uUBJsGBQVjZdO74N3LhwidxB9Sk/xwRMOtGgs8uRCcbwQcHFsbwoMfvdaFNtjkNrtfeQ2uk5sLrufSGR+GJgnpsNHKA9zXlTwh/xM4ToM4tgtHeG4fWhneY16CNHGIfdi3S40eP4csS8bio8aLL7oclBw2ilwORwY+sn1yO78CDI6vYH8prcbO5K7qrJrVF6eQgmrRa8QH3Z8dzIoC/3u3bvlr/fHIbn22mtlFSetYRzX8oUXXjCWVA62o7vwwgvlfpkupoWW/pbiXdamTRs5ziWrVRXeljuNRhNaqr061d6kkyj0m+HF3FS8t/pmHHW7A+se2o7G7T/E3wP6eHqdiZewbKNExMtSvS+zVobe2W91Q2e/tK4lHjggqzfUWHa+4Evyh+++Q4cAxp5TBFOd+u03pdWppCJlU8k2FSzYuJm6CQMqHL3WadiktForKbFs+zFSkWTJbSqyoQXB5qle/RiEm4ZmS9or8mRaXpFklWxTkY0FFDJKK1T2GmVn5iAnu+y4jhVJltymIhsacNNQ3XeaQ4euTtUcDtSc6lSDB6PjEL4iD3dcejxabb4VTX9fCpdIjVuUFrSe8MuZ1TnKp1xdcjGyfuNG2QalPAFHWBXSpHnZES5CCU+rCrwZzNMsuAMJJRv4wLwuC0vvYJ5fBk4zUSIwWhJEySsXiV/vXoJl1vMO4k9J8J72CnIFX/D4pnXNebEKZVD5EfO5qCQwL1zEfXvnybQu1ynZhkH8KQne06ZQsoEPvNf3zoP4XxIvg1zgCYyWBCMfh+waCczrmvOignl+GThtnGhGSwLzwkUWedJoNJpDwaGxxDVoJl6KbkyYOB29X52Jyx5fi7u6v4fzf12JZnefJ9ZyyjemfMlyI1mquZG8dE6lLXF79uwpqQLgwLdm1q5dK6sxGzdubMwJPbTELVu5EldedZUxp3xYxUqXI3RJEgjBWOLqAuav7EC+yms6G4XIV1VlpC7kyXyNunTpglatWhlTtRdt3akZaEucb8aPH2/ESrkqiLLHGzqXVueSvaA5FqqTHvkDxKqzC9t5chzVCFPtg+ZgaowlTvkOY4+yGy86CiPPTsDWXV3x2/y16PzNUoQXZqHHgj7omTBEjtTARsry61d+C1cetkVLTk7GoEGDsH79ejlvuRBWtIoxsOcXu9zzxuL0a6+9Jgfv5SDBvvwzBUv7Dh2MWGBQvDFNGo1Go9EEykUXXSQD3cqoOElNTZVtr31BwwEFF3s5m1Gjg4wcORKnnHKKbBKkYBmVlJRkTHnIysqSg9wrJk2aJH/ZUYfGBcLB880CjmWwGbrXyczMlGnSHEy1iziHzSVCEcKcbrgjmyFrkBtrEjoje3cWNuQVoc3zV6F4WVNsbz4VdrenxyAbnDukV87KQwtA9+7dcdtttxlzPLARP4PD4ZBjprLLPqdpnSMUUp1DNPxVsL3FKCateiZqNBqNRuMLuntRLl9U/Morr8TevXsxd+7cEmfO9CdIoTRq1Cj5S5FHzAJMwbKI5SFd1yhmzJgh3d1QyKnOLOxMs27dOhw4cEC6yCH0I0i2bdsmBSHLtpdeekmKRQZuyzKYvywnaTxhRxqmg9Y6b4GnOQQiTkglhNscdOkknfimnfUT9t16Ftzb92ORuwBLFh2JXTf8hKJ6jeRwW+EihImbxhkiSxyHqfn999+lGZgOLzlkzdatW+Uyfh3w5uQ8WudYpcUbPtRsFscJBn4xRVTRYPwajUajqVooZP744w8ZiFWc5Q3FDeOzZs0qs8wcp0Vq0aJFMj5//nwpdKzWszIWsCczj8NqVh7jyy+/lPMpuEaMGIHzzjsPsbGxsrcxadGihfw189lnn0mRxUA3M4Q1Vpdddpk0krC5BMXZaaedJt1m0eL24YcfyvUUcXFxUgSand9zBJA333xTNmd6/vnnS85Br169pI9EHo9ijiLTKr/m+IYNG6TgY9zqXHIe42lpaVi5cqWMz5kzR1r9zOupuD+r5aGm2tvERTXvhIiGdPYrDmtzI1Eo93MmzsHJY6dhQHgYRi55EfYIJVg87eKUFSphQd3oncp2eacPH27MKR8+cAP69DGmyke3iavd6DZxtQPdJq5mUFvaxClXMCzPfMVJMOuVt42CAsjssNm7Xdr+/fulOKORY+rUqXKe1Xpr1qzB0qVLDzJu3H777dKVDY0gXMYySx1fOZ7mvtQ+Fy5cKOcfd9xxJW3iKEi5zfHHHy8texRzFHDPPvusDBxdhIYX1qT5yq933kO93qGk5rSJE0f0OPtlFakdt15+J9a8/A9e3PIG7tmcDGdUuFDnYrkIrEJl2zmeP5Ngr/XwK+dz8cAEAtvwHRGEexGNRqPR1DwoBJQY8BUnvpaZ48Q77ms9b5T/QAYKMnLJJZdIh80UU8o6R7hOINByxhFEuD4tgzw+x9TlNAUcrXJmWAZy3F5zG7oTTjhBHp/bsIr1qKOOMpYcjK/8muPE1zJznPhaZo7XVKrdEhfbqhOi4j3Dbr0xbS7CH/0WDx7VGpF3jUNK37VwS9FW9qR5EujGlv9m1w0/cQKam9dt2lTSRsAKjhP7jXig+vXta8wJDG2Jq91oS1ztQFviaga1xRKn0VSGGmOJExoNTocnfL55N4YXRSKsaSL2tPgb0fZ0kSCKOK7n6cXKEMYQoo4NNQW2BeguxNbHH34ov0Yo6gjNt6yXnzljBv78/fegBVxtxarNAa2QtRm23fDGal5tgY2W+WFhhu1zVJVDbcTqerBHnUaj0dQGqr+SUmgxz9iGbqx9YCS6bHwBGW+8jHqtmiLf0RAOp0e4sRqVgk/GWf0qfjPT02t1geHtJoRCbvCgQdi7Ywem/fQTxn30ESZ+9RXm/fMPWjVvjuZV6OQ3UO6//34ZaB1V8UBYvHixESuFDV8/Enk001eIVArYdHFtvXn3Xc/g+qGEglnlg93k+Ttx4kRjqX/Y6NYM0802HWY++eQT3HXXXTKuuuObqV+/vhELHWw8zHyw97TKWyAkJCQYsVLYa/uGG24wpjyoKhU2lFYfGwq2nwl1138eh3m477775ODqjH/wwQfGUv88/fTTRqwUVsuYxScbKitrv9U1Ouuss4yYRqPR1GyqvTrV1qgTEOupTi0P2X5OvGtVAou3/Ie8/HwxP1Re46oP5iFbfOHHN2zomVGFVEV1Kgs9JaBZ+LOwP/XUU3HPPffIqgqKsfj4eDngNt2zsM3Diy++KH0AKSji6KPvt99+k9PsJcxu7k888QR++OEH2ZWcx7jlllvQrFkz2UsqEEFS0epU9oZijyzCAcOZdv526tRJtslQaedg4zyf7L109913Y7BRpU9BQ3HB9TkCB7n00kulw2gKPrUP9nQePXq07KHFqsTyPkQqWp3KnmU//vijjNNFwPXXX4/evXtLYbNq1SqZh44dO8r9U9QwjZw2XyNeV25LdwFk165dsqcXfUKxUTOva0NxD9MlAdu+DBkyRIqe6Ohoub4vKlKdyo+e5557rkSYcYD1r8RHzssvvyzvNzakvvfee+Uynms2hGaeHnvssRJ/WITtdXhvKjcHPDY7F/E6qGvE6csvvxxjxoyRY3/yWpeHrqKrGejqVM3hgK/7/JCLuL22YmSEudCtKExWo/ojbeXvGDx0qDFVO1Ft4hQsqJavWIE27dujZ8+e2L9vnyz0mwsh0JrdvMs7KRZUpYijcGFPIQovogrBI488EkuWLJGii4WsWfQpKOKeeeYZKc4odFiY3nrrrXjkkUekaGAhysCCmljtw4rKijjmhYU3YYHP3lLses4eVBQ/d9xxh/QdyLSbB/fmuaCwYINg9u6iGwFWxbG7PcWESj8tWeyRxfXpA6m8PIVCxFFgq27y7cW9tX37dim2aDmjpW3cuHEynRSXZijiKFrpR4rilF7ZKbDp1JONoDt06CCPQbFKn1NXX3013n///SoXcUwDG0fz3mHD6/PPP18en9ZaCsuzzz5bjsRC10FTpkwx9uCB142ijG4FKF5Xr16Nfv36yeugrpG6f9mUgedOi7jagxZxmsMBX/d5tVenqt6pO/Iz8XdOClqLl+h1ORniZWqs4AezT5m6wMZNm9CiTRuMuusunHnmmdIXzsCjj8YtQticIwrk1Rs2wO1VfXWoYXUkfQO1EelmYAFJWACyQKSA8weFAasbWWVGy5c3X3/9tRHzCKrqgHlQ+WHeEhMTpR8j+g1kVRwFnD+mTZsmBQcFLK+hGQoEZQGqrvuXx6RgUXmiNY1QwDENFHD+oCCjBY+wetgbikPlQJQ9z6qDb7/9Fj169JD5odCkyOX9xmn6g6KA88fHH38shTb9YdGKZ4biWjnyDmYIIY1GoznUHDJVNMzxML76+FfMXrQMQxeuEiWPtVhxi38uIfCKa1v9aTkk7NiBC0aOROvWrWWjfooAChsGVlNxmlaOzdu3G1vUDFjA0/rBMfQYVMNwdg2nwKP1qjzo54diidYQf/z3339GrOpR+aEgYFtEFux0vBmIkDxaCG+KA1qpvKHQ2CGudXXCY9J6pfJE6xKhQKazTFVV6g9WE1Nk0/WAN2ahSqthdUABp/LDdmxKdPG807dVeahq42XLlhlzSqGwrc0dTjQazeHLIRNxCwvOw01DwtF/9uP4eesrGLpgGdyGWFPBJVJHlyPg+Kl1yAjHKp2uolBScV/QGeJFQuj9M3euMefQw+osVqfRGSP9/FCg0HJFiwzbJKlhXFgFqZxGesPqR3rJtoJWIy6fMGGCrNaqDiiiWdXLKrSBAwfKeWzjxmpF+jq69tpr5bzXX39dVk1bwSo6thOz4vvvv5fVqdXZYJ7t2nj+WWVK4cKPA34YsD0b80vRwg8Is+XTDAfJ9pVeWhzp0JP3AavFqwOeW6Zn3rx50ppLeF3YppLV76z2JWyKwGtmBauVvTvWKGi9ZH7YxpMCXqPRaGoD1d4mzt6kE2z1m0nB1uGj0bhjeWPsbRyHl/fvR/GHT8rhtbiMms2s21gNm7Ks8iM2sBqGX95Ww4lUB2wTt2jJElx3ww2y4AgEVgPtM6qPAkH7iavdaD9xtQPdzqpmoNvEaQ4Hak6bOAo0cVS6fbuzwwgkb03CjNPG4bXRV6L9qz/AYS+Akz7ipJ84ERxuOJ0uEQ/N1zEtERRwbEzPhuiEIomWC1bfLViwQI6lyiooxgmrcFi1xh5soSC2fv2ABRzhGHOhduOg0Wg0Go2mdlPtIo6t3DhmKjs33P+/43GfswA/v9cfM/9cjP0TF6Hj7DHoNWsAuq/shvYrnkPTjK+4ukhoYFao8mBPRDasZ29ENeQHxRnFnRqUl+1nWO0yaNAg2ZOPY7qxvdNPP/0k168sLdjrNAjYsF61a9JoNBqNRqMh1S7inHY3wmlds7kQJuKNXrkWk9cVIjoxHVPyc7B/whIULG+Gzf3XY2f/R5ESd4UcQzWMbeNCAMUb3T+Y/UhZtUujmCNsl6bg4L6hgFa/YGD66lrPXI1Go9EcXkyaNMmIlaJ692sqRrUrA1rUnO7S8EXr9lg/+kJEJWWh2GbDnpyTsPPhGQgT8XAh3MKEdmM7uRBpODn4L10+fP755+jatav02q+86LP3WpMmTWRPS/aGoysD9sRUbdECbZNWHnt27jRigcHhp5RLB41Go9FoAmHy5Mky0FeligeKGqnFDB1+s+c7OwGxY5u/sb+tUM7VOUKP6lVO/4/luXHS+Kb6zTtCB7GTgsNpkyEvKxP7GzjR+79tuHjxM2j5wwNwsMaV64lAAxRDiPST9HtFz/m0tFGU0f+UclfAL4JGjRpJEde/f3+89957UuBxJAGieilWlj69ewc1PuMH778vncRqNBqNRhMoLLtU+aXidJxNgcbA9t9ECTZaytgRTo2Sopy6m2FzIzoW5zqqSRJH4uE+6FFA7Wvt2rUyztFe3nrrLTlv+PDh8pfbUwTSXRDLW1Xj5b0Putuic3lOM5hrxjQeql3EUTjJjg2Mw41p576EZc/9g88v2oCw+jElgs1uuBUpiVPZ1RHoDmH8558bU/5Zv349hp9+ujGl0Wg0mtoIXdco9zW+4uzw5muZOa7WUx3kfK1nBYcWpEXuu+++KxknmaPXcLQcGjKOP/54KbCIGsnGzIoVK6QfSRo1WJtFOH7zL7/8Ih2B0wE308XRbDhMIYdZZA2YGfp3pHgzjyVNN0w8HvdBN1OqYyF9W3IZXRsp0ekrvype3nkxxwM95zWVahdxFG+qerTvpNm4x1kPUUPrwTl8D8IcdhGAcCfErw1OkToGh1Bydc0Odfyxx+L9997z6yeOQz4l7d0rx4rVaDQaTe2Ew/hx2DoGYhWnWKGnBMaVH02r9dh+jGKGcVq7aJ2yWs+qM5wSN7RwcTsOYUfokopD7dFqVh4c8YTjW3/22WdyyD1Cf6FqtBO2HedxOHY2BeHYsWPl+uXBtuLsXEj4SysdUUP6qXbhbF5klV9znL5LWWXLOH1HmpcRzmOc+6L3CcYpTlkem9dTcZ6vmkq1qwP2SuW1Zu1gREIyTsxzwNk6CRNvH4YGKV8JceeWQeg56WLEyfVlCFF9ag3iuCFD8MvUqXIgePoF40PHG48P5kfiS8dlOGfVaDQaTe2FooRD+DEQq3h8fDyaNWsm42o0G6v12H6MDq8Z53jbERERlutZDSHHmjA6vaZHhi1btmD8+PFyPqswaUmjkKKoUViNcGIFx5um5Y3iksMVUnDRIfjmzZtxwQUXSBFrhkKPx6HjccW5554rLXYUk9wf28pZQcFplV9znG7E2GSK8QEDBpRZRjiPce6rbdu2Ms4mVGy2ZF5PxUPVqbEqqHZnv3FtOyKmSXNjilWqBiaNJqPiD39ZneqZ4camuf+gVZs2QgjWTrscv7IozKzgGKnyK0lkmA9aZTpRaGe/tRvt7Ld2oB3I1gy0s9/g4YgtFHn+OsxRYFEwBjqeMK1Y3K+yphFaumicUN4ezNDySOHqDf23sm26piy+7vMKizhb+yFGzAdKhHnZ+twHEhBRnCGHaKqMUDkUUGSxQ0Kq0ZjTG96sqnqUiv5QDaYdrIjTLziNRlNb0SJOczhQNSLO0GBLHPl4N8qNz3PKNzlSxPVo38SYqp1w6Cwz/PrYtXcvBg8ZUjKcF03C8+bORetWrRBrjOtYXWgRp9FoDhe0iNMcDvi6zyvcJo5t2+w2F0bt3oaBbhs2L9mOYo7GcJjB3qODhg7FlVddhXbt2knrGwPjV159NQYJYbdh40ZjbY1Go9FoNJrQUKmODSlCyE1Kfw+n3/UWUrPOx8lrNxhLylJsKw2u2lWD6pcdO3fiwksukaKNvVdYlcoqVwbGOY/LLhg5skxjUY1Go9FoNJrKUikR16ooAW8dOBXrBi1Am00vof+fy4VQEwJGCTaxdwY2faPlziatd8bGtR0h1JobjbP9+ZFRy5oY1awajUaj0Wg0oaDCbeLsnYfIgemL7nsbPfavRPFpG4DJPfH0hMdxZVxLuMU/u5u9LD3rs4ODTWxQtG8HurWtXJu4Z555Rv7SOSG9R5vZt2+f7KZNXzpVNZQH28QlJSfjlNNPD9gRILtcz/79dzSuhl43h1vvVI1Go9FoDkcqbImjkw/6cwt7/QZc1PNYPBJ2PeanZWHGot3omXIuIpCFeKyCw+HyBLtLHMxdIuoqA50NPv7449LjM2HVpaq+5Lio9BD90ksvyZ6kr7/+uvR/w+7Ss2bNOshzdEVZvGRJUJ6cue6ChQuNKY1Go9FoNJrKUWERpxzwhtmicDFycc6ra/Bydj4+vX8yVk+9CZ2+Ow0t5lyBZv9ORuPshehse16IPqHgQiDi6BCX1iU6PCTSv5qA1i5a5uh1+tZbb5VDftxzzz3SGSI59thjpRdpugKpLCmpqUYscJJTUoyYRqPRaDQaTeWouCXO5oKTVabiN2Z9MuYNjkf+kT1wf+EmJE5diaLlrbD5tOU4cPxIpMYOQoLtUYTbbWI7YweVgI4DOZyH8uhMK5yVVaxDhw7yd9euXfI3lLSpgLPSDm3bGjGNRqPRaDSaylHhNnENug02Yh4GTpyJlrsP4OzPFmNgfDT6/fesUIhmxeapSs1J3IFOrULrJ27dunXo3r27jHMMN/pq47ijHFqD455xCBM17looYJu4vNxc9DnyyIDb3bGN3qply0qsglWJVZu4YcOGGVMajUaj0WjqAhVWNuxt6nDaZPjXlYWmTerh91Fn46b1r+HIec/JQevZkYHayROMTg4hsMR5owQc4ThoYWFhJeOl8TeUAk4RGRWFid98Y0yVzzdff10tAk6j0Wg0Gs3hQYXVjVMoMg4qJTQcnjnlQZz93I9osacbGs9+EmFuN8LgluvQpQiHOpVBrFwFeuqQ0a1zZzlYfXmsWbMGPbp2NaY0Go1Go9FoKk+Fq1Ob9xkijWpjl6xHyz+W4OJbhiG6YQxsWXvgim3vWUnC3XNNWuVsyNidgHbN686wWxxyKywqCkcddZQxpyyLFi1CcX4+Yqpx6C3tYkSj0Wg0mrpPhe1itKjR99vgSAeuaF4fDeIaIFzsrmHqJDhsbjjFMhkctpKerOzUIKtU6xCxsbGIdDjw2SefYML48dLqtmb1aowX8c/HjUOU01mtAk6j0Wg0Gs3hQYUtca2P9FjivNu4qUkl1vjrZts48ctZKTt2YP2ypZ6FtRCHEGxNGjc2pmom2hKn0Wg0Gk3dp8IiTlNz0SJOo9FoNJq6T4WrUzUajUaj0Wg0hw4t4jQajUaj0WhqIVrEaTQajUaj0dRCtIjTaDQajUajqYVoEafRaDQajUZTC9EiTqPRaDQajaYWokWcRqPRaDQaTS1EiziNRqPRaDSaWogWcRqNRqPRaDS1EC3iNBqNRqPRaGohWsRpNBqNRqPR1EK0iNNoNBqNRqOphWgRp9FoNBqNRlML0SJOo9FoNBqNphaiRZym2pg5cyYuu+wybNiwwZij0Wg0Go2momgRp6kWsrOz0aRJE3z99df44YcfjLkajUaj0Wgqim3B3LluI66pI3To3Bn16tUzpoC///4b//vf/4ypQ8OqVavQtWtXhIeHY+3atWjTpg1iY2ONpQbJNiNSPdiaGJFqgY9Z9eavJrNEhMUi3CynAsedVN3XrTqp2D3CrcaJcIOcCpyKnUseLU2EhnKqJnLlRcD494yJINm9F2jdx5iocuruO4E5Wy5CfzkVDBV8BqrxvcBjoTHTWTPQljhNteByuWC3e243m80Gt/vgh8DWRMzjwxFEuPCWC+CKL7Zc5jP8NRnIFg/je2/IdAQTiNV8f+GMMyq23dixY5GUlGS5zF+oyLEYqnO7AWKbm4LdLo/Fgtgmb7X1cj9Bbmcxv7xQke340TRnzhzLZb6COIoISzBrlvVyn+Ghh7BQbHk997BunfU6ViH1Ebz9sdhGFEiWyy2CJ417RIizXO4vEKv55YWKbCcFHAv0lbOsn38fIcV+AK1aBH+8iqTxjTc82514ovVyf4FYzS8vnHnmmZbz/YUuXbpYzvcbRPraiNCP6Rw/3nodi/D119ySnyPWy32GlDvENsGfk3vvvReZmZmWy/yFmoYWcZpqoUOHDtiyZYuM//bbb6hfv76MHxIuvBC29uL3ors901XMzJn8m4rcXDmpqSiZ/Txf25m9PNN1BPFNg9RUxo7CKafIWYHzwgsYxF8WLt27A5s3y9nlUjQWdz4ifuMzA7KAM40PPghs2JAlpr7GpZd65tc43J6HTOYo6JNZfdwtXz02IfblZN2BN0pREXYxznvyqquAL76Qi8rjssv49wa5GXcTMMVvG5HDEy3iNNUCRdu0adNkte6gQbLYsaAZzj3XiFYVEyYYkeomHtHRRlQTPHnLjEjdgoVVptBRcXHGjGC44grgs8+MCQFLv86dge3bjRkBYI8BGuX4FXJM4623Sr0o+eorYOJET7zGcUA8ZOZqtRkzjEjN4d57gSEolPH9eABHHy2jtR9DwMHhMGYIeE9ecw3w+efGjMBwuYITcjlSu4tjVTXpr+HR54x4DUGLOE21QfP1DPFSPeaYY4w5ZWnaFPj5Z2OiquCXIV8sChaEVUjXruJDsdiY0Hj45RdMEj/rGU9I4N/yyRrgqfaqQ7CQyssDYoSOqhBUUywgzfDe7tAB2MNqTx8cOEUIt3xjQmCLEtMFlkKOabzwQuA9rzZm//4LDB5sTNQU3EJAEJ5UwnMxbJgnHiDPvCL+ZLzjmagiXnsNmHvM8TLeZMcdWLRIRms3vFH4ojMLOAWvw7XX+v2AfvVVIDHRmBBwd8EIuXptxZ/kapAzhfdi7BtGvIagRZzm8OGjj4yIYqCnIKxCNm4UD5nxlJ19dln9eNhy5pkeU866dUB71muXQ76nLVwJEePEy3SbMVE7UYVURIQxw+C334AFC4wJf7A5whs+ShPeZK1aCbF2wJjhhXu2SEC4MWFgCxMiWSTIJOSYxj59gO++M2aYGDoUmD/fmKgpHBB5oBXO+6ROn25EAqDeGKDA08aqKrj8ciMyb57nt00bbMdLAYuVGgkTz3tOveis4HJ+QH/zjTGjLPfdBzRrZkwYqN36PTdpzwANfdznhwlaxGlqFDk5wC23GBOh5uabPW8FReOF4vPPiFcBhYXAcccZE4IpU/y/5zQ+yOxf1goXex2Q3tGYqH34K5xOOw3wYaguC+tg77rLmLCAB2jcGEhJMWYoeB47eKIHIRLE8yyEXDPxe8YZwIoVxiIL/vyznAL2UEBzvhmeh7POMiYOPV9/zStQ9qS1w4NGrJbBqlN1MwcC12PDtyBdTKlnhe/Tgyh6AnDEGxNVjNsqAYceXaRoahRRUcCHHxoToYRfgCNHGhMmaP2voirV8HC6dzEmNB7yTdV4Cn/1zQUbxBv8RGOi9hNMmecT7uSDD4wJP/BAjRqVtcixyqnxVmPCGvYS37fejhkz/Cf0xJp0WWhBpBVu3z7PtBmawIPtQeASX5Mhhm3hrmc3Ym+2b8eWIR/VPEHsj4ICICws+JuZ619wATBtmjEDeP11YO9eY8IH3IzvU1VTbk1r8S5JN+JVQOb7QIOaVwOgRZzm8IBfgJPYEsuCKq5SNePtGu+wg1VbZmX74ouealVfZHQTQuRPY8KLGvpl7AsW0iz7AqHcnsy0KgcCSz9a5MwNjvzANFJseCxy5RcPvJQ1XnzQBH7SScZEANTfBGR9YkyEDraF+yT7Uo8Fy0y7duj4X7AeEw8hVFKssg5WwCm4HYX1L7/IydGjgebNZdQv3Iwf+aytkRTLLt2lNN4JpIn9VhUFdwnhGkDzj2pGizhNjaO8mqKg4VefLJl88ITxG0Jo/Lj/fmPCREaGpz3RYQu/ws11zA88APTubUx4USheyrYLjQkvwkSJmL/UmKj5UOhkZ3uMF+XB2iZWVVrCHQX70cHSr0ULIGGL2P5kY+bBcNdPPgm8wsb9xKha9Yf5Uh4ymMZGQhi1bm3MsOCmm4DFdC8dAOFHeArsEPL888Bz7NXItqBWjf8F9A5T4wUxvy6opCoq4BTcnm1jg+w9zM3oxz6Lnm4y3wTipDOTUtz/GJHDBy3iNDUO9tZ76y1jIhTwq6+kZPKiUaHH66yV4qoENH689JIx4cV//xkRjX/S24rrY9GqnjS4R7zJA2k8duhhwZyejoBdzJx3nqd884nHoVZwyNJPiJM07849HpjGsWOBp54yZigaFZcr5NjB4ZCLj0GDgZ1C9PuCbTQGDjQmqp9HHvEEn6xbh06LfdQU1BRogeNNXFkBpxD7+XRYG2z9NQiXOAIeXtZoFD0NOFt5ZlY1ReXU9x5CtIjT1G3YFubZZ40JC2xOgJ3ZfIk8TehITjYiFni3Wi4W69orIFZqGBQ3tMqGxLc1dxJMT0srjhBCbr107lIC08gPjocfNmaYsYkigu5I/Ag5n24fqwNphRPiIhA/HbTGr11rTAQALcEhgM0XZTtfHl+akCzo1g245BJs21YDBLEVbAcQCgucF9ejJzoM61BStRooKhm0bh9Evp/eOBUl+zOhHNcYEzULLeI01cawYcNw++23y1AerHYMYLXyYVuYRx81JqoHuj57801jwgLqleHDjYnDiW+/tX5Z0wrqGdailNQmQHwA1YZui44SNQQWxklJIhsV7DznGcXBBNsZVPTGcReLBJ3qKf04soMhZphG+ujya4imO5J4UVr6EXLLlx9C8WHzciniC36o9expTJRDrBACLLhDAB0lszZXNoozjWltRSAed6oddjyqTBu48uB+aXpm28VAKfB8iLDWpkz7UQr6LKuvkUpSKMqQiB7GRM1CizhNtVAolAvHAn333XdlKA+ay70djAYN28DwxRkI27/wNLIPAXwR33mnMWGB0wn8+qsxcThBVW7lfJVmIFZ5K1xZomC26EnsjVO8WLO/NyZqFieeeAL27/dUq1cEOrin5i3hnHMqVw9/QNx0jX73xFloSjHjlrqGDcvLxR4th+jqEt/VmFGWvn2NSHUirXA5nt7llv4nLKC5MZARLSL6AEVPGhMVhy5FAh7dYskS+ZHDWuEaZY3jC6sKBNz34tFdvdqY4P5HjEDAfo+z35cdULiZp5mC0TiTgt59eL1cbQvmzg391dEcUjp07iw++Eq/+DggN4e7OpRwoOFRo0bhyCOPxIoVKzBuHAc6LgsHxi8Lb82Kv80C3fryC4Fxb4r3dqvKHM1MIEcuf53sHeIFFSXWMg8jVEWkbxXvRCGcgz8WlcZFnmjQiAyinYyZzwYHZQ80HcGsGyz8hrhVhODvCfYE5TBhwY0WcDClZyXQe9kXB5+nx0UYI/Yb5F7ZzvN8sa8jPJNlYUNWOsqtTErNbBKBB7Len8pTsOfG9/obROgigmdpaO4tz9F4p9M1c3mflKG74mVhXkiw+QltKrw5eO+BHu/ga2M6cyG5bqWMExfuusvL7rMmDYSvLXGaaiE2NhZffPEF7rzzTtxwww3ItmjM0LRpU/lwqMBVLr+8dNoqXHDBBSguLj542Zo1snfEQfONQFT8y+/ciDAc2JvXsQrlrbNhg1uO9+w933s7NjE59dSy63gHCrjkwoXypWS13FfwPla54cC1UsBtfVFsF/SxKOBsIs7t/ISdu8RrtnS9iRPZiLutiKv9iPlFRXC7CsXuziyZ7x3ken6mfYVA1zMHCriKbMcxgOfMibJc5i94H6tk+rbbpMnCvMwcStbzE4D+XtNjRBCFHuNBhI0jhNBpIKKWx/SMdHDwfK5tPd9XePllbkMB9xo++cRiHYqSRrkyTryXW81TAQ89BPfevQfPFwLuzjuf4ZbGtIjlrTpoPe8g17OYP3WqWw4jyHgbsc6rXsuttlPzaMUVsYOWM6h1ggnkrKtODO75Ftt07dDBelk5gVjNNwerddg4wnueVfDeFmJLl8u0LOunMsutAoeBpHHBapk5XHfVzUDMopLpmoYWcZpqYefOndhjjOc4Z84cRAfQVY+rVNiFG6uL7ghy+Bw2Zqukp2GOlcrRZcqDrib++MOY8EdYByBur9/2SJUi5QrA9Zl0J9GpKvt20MdCmfpBL668EnhGFKAcOqlRqSPQgKhCf3H/8s+yQzf4vuwLwnYFgbblsiJZbNs4xO5Y2EDfos6PvnYrWxX4xBOeNnqe8vJe8dEnZx+MLdKzItsKBgPvRbpcsYDV3+yEKfNQ7z8g20cX8wBgCwHWggcFHe+J0CSEliQcOEu8Q3aL0r6eeLbEsxLIu4QngG3hAvGJUwHYBNZqeDlxRQ8ef8ubXKtmBZGlo+E0TBMXseLX7SCKRZkQeZQxUfPQIk5TLbRp0wZJSUmyPRyrVQ+uOg0hbPPir2eBLxr+VYVjfgXJgePx/IePeeLO5iJtKaEXcgfOFwJOqGT6A1NQ9wZ4HHb8Nfvt9QuFyEVlq13nz19fKnjHjweeflpE+nimA8UuSvi00Pr0krCxznffeVraDBggZwUCszh9emh8VXFo1PubZABbthhzKkrZHpn8lvI17GogfD1DFGp5IqP0uur1HHuPehUsd9/t0fJ+DR6yLZzhNZmN+ti6PVjYEJB+Xwz42G/Z4hmijG34ObCILXqweD58D9ruDz4bJX142D11BytUA4CO9044QUapTUPymnRPF++Qlp44e+OXJ+R4UDokrsIxAtm65+ijjQlvPGZI3+SM8XQ88aLETaCDpuLDx4+TFnGaaqNv376yZyqrVgOF7xKfD7svOnTw37PAiobixZHvxxVJALDDn69BIazghy4td5bQaSUbkyscDYF4UeiESsgdOEkc48eyAo50ZlupwGDH38o4e20g3rUTzGUkq8gaB+keIP5jcSLfNyZCCB0QX+jD0bAfJk/2dMoJBXR4/TnqAx1DO04sx8avlDNtuxBNbDxOlxNsF+ClNKjtKuJShWnit5e3gGPLiIMG4eeA/ZWBXXLj4owJjwHeNCmHeAq0r4QVfDZK+vCwe6r4iA2WimjTg0i9zfMBaEYKOfFitXqX8FryxeTDIXGNwD3T0/HEiyrpEJJnYS6sYWgRp6nR8F0SiAuoElifUxGfbw7WX2z0DAHFcVYrAGu8rIZn9QU/dDeKQwaMXZSMDUMg5JLFftxzDhZwZIz4yu0mfkMlFkkgvQFrMuxiuIGN3quZiliTvTlwsafAripY3eZylSk9qe2CreGkYYwOvq0scD16mJ4r3peNxfEIe5OXZ7XxB+tp/YyDxk6Z5MfxwRXkCxdWsvc5TXjsqSrwOrXBww8cfgB6YxMvVp5H83POA/GAVWiBI3Pn+hmRhDAN555rTFSC9NeNSCXIOg2oF+S4u9WMFnGaGs8xx3gscgHBQfj8DbFVHnS6WRGP+BWElqyDvvhlQeWjPslBIZdUcZElt2vhe//ENF66L2bPDsLjBS2jPho3stCWhRTTdZc470FUXZYSItOXwtv0c+mlnvuiHJgPv9WAwXL33fLUHeQvLhjc33oKbANqHl8jiQQF7x91D6qMm04Ay+GzzpLRcuEoERwEvdxz51YvAeO4Dz2ESjUe+/hjWXfq97rV+wvnDT9GrsM8BQKdH5c4A2AzgU3sZRsENOEd5WmDxeOSCt1XaY8ebIUrg9i5uo59jJOgDliFHHssXfAYE1YwDewRYkXOLPHH90gtJVmIEx/zhYH4zikP8TUS5anerqloEaep8cybF2D7WrY78Tu2TTlwhICMinVs4LiHfF8HC9uUseomKByNPQ2VgxVycv3+4sVdjlWJg6vH5Prd/ymnAIMHGxOB4EcYXzXSMNtQ6FWkE4HzdpHW4KurfNKrV4WqUkPK++/Lm4o6paLOgq1gm/EQjzBXCktQWnHELwvSQAaXoNGcTSHLEynSGs9OL/4+PirCyb7HkpVEHS9/mD7WCpT3Mcl3FavUS7j6as8oGZVAndagKRprbYUzw8Z/1MHiowxu31bJGkPOqeKbrfzmE5m5lWycWYvQIk5Td2jXzhhluoLUfw0ouAVYutQzaH4QdO7s6WBZaVxC0LCxfnmwoXKDbYELObneQFEIBtBLkQ2xWSdWTXzxbn0UN6xE4Rz3vPjjNRB2qJk6taSKywrWyln5Ma4wdCvSqZPH039FSR0tFKCPYZ5CAT96XDnGhIFJcbBtHDWML955x9wL1T9HDfA6DhuxsTd5ZZk1C7HSmUb5MJ38mPQn5IYMAS64wJioDGxcy6YdJgI5TyWkPSOeC483AJ9wqIPISM+OKY4P0FFu1Y6AwpE9+CiVC7sIX3utMeFFRD8jYg2zE5Jh7vLEuzIQp+OHGC3iNLUCtg3mUFw+4XiQ119vTFQQp9G1vX//siMIVDEPPijen6oKM0W8fdhYPxDC2ou31ebyhZxc3ke8qBd6pgNFvthPMiZKoWuA334zJsqDbRT9nUtjYGnV/uiQw8ErLRxRy7pBo4rLCvZoDHL4R9/QCrdqlTFRCYpfF2/4UqfffH5o2QsZHBYtxWIYKZaiNpv8DvBlnaYGoweggIWJOI6tiWlldidt29aYqDi0KGewGPQnCO1CTOR7rgfTSyHHtv/esEfqp58aE4TVtRXtWcxGgGwMaMDjBmWNK3pCPFTWblQkFHDeg9nL552iruqEHF+tAVWz84HisCWVIHH/Y0Cm+YIESdaRQD3xcq7haBGnqRXQQwV7M/qE40F+8okxUb3s3g28/bYxUQFeeEG8Pys4PBPCOwkht8G3kEtmG7Om4gBB9vpUZiV2gPCCbRRPO82YKA+2UfQ3rlNaS0/hoaCAuvxyY+IQwJ6g111nTBwiaIVjla4B2w+VGR+ygvD5oYu0asFokZ+S4smOGT6m1GABCziX5+uNIumff2Q0ZLBtp0yIv0FL690lxEBpb0iubjUSFXukljEe0Ywa4p7FAZH2nOfjzhdWAk5RIuRqYNVq3nzAEVh7Z2btlXfFdcuv5Id9ZEXa6FYvWsRpaj/sDlZe25ZACX9LfIF94yktWGoEAP0TjRplTFSGokTxmV+B6uDwLtZC7gAHS18mXsz7PNPBQLMSGzY1Ei98+pOrDL5aMeeXCkt28JANx6+5xtMbNFgivxfpDEGPNn+wJ4f3QP0Clokh053sojlfFFYmHntMjQ8ZBOljgYb0FFzFOO4Dii16XvDeKShAw3ibNCwqqNFvvNFaP/gkRahPIS7oPu14NlHjYKReVY0hgWMtWxFx8MCwTL/ZMsbHhZ0zQgoteaae3TxmQJ5KisQNw487K9gGzpeAU0ghx6rV0DrRZk/8oJy3c8ges6fnrMFCUAfux/PV9yr6ZVy70CJOUyW4RIl80UUXiZdbaR0Th8jau3cvBrH7VgVgL7Yk+hLzws4W9rPYaykE1LtMfPGJwC5U/LSuJlh2I60F0KCCHTO8hRxdS9CXl9nKVRHoFZ/+5AzoA/eHH4yJStKt1SUl6WMHD+maqkItuAUx54l0+ujRFiiJQkS/5md0S95nFmMQs0z88ktjorLQWZrX88Eqv6ApfFSc0EbGhKcHNPVxyGn4MpDqo+cF6x1zcrAbdOKcIi1wLJODEXA3XGFEzATYW7g8KCapaSQiUfFnnGFMBAbzQa1KzjzT46i4BN5HuyrZTpMni92TTZS7yzTxkoz1URXPrsmqDVx5SCEXLtb1aotYCegTM6iO/3ywvJs2hAfeSSSY++wgCtYDzoeNiZqNHgC/DlITBsDPy8sT7/AwzJw5E8OHDxcvn10yTQ0bNpTpGSwKRC43M69+fQwupzS0jThHlNVTjClgyfPP48j58zHFV5d0H4wYMQI/+9jmnCEjMOW/n3GOWMd7v97bZWbWx7Rp/UW58pcxxxp/x1Oo4yrivv0WA0XBEuW3HtmLnJnAqRy6HWX2FQjeaVT5j43KwkkDfsaUuZeLdc4R65Sef+Irb/XEl/TR4q39p8WyWMffOGnQq2XSqPZtdd4VgVw3KwI6/xbH9XVOzHifkzVr1siPmN50GBwE/cS+C8eMwZq+B1t+rM67wipv3ucimOvmj927d2PTpk040WRd9XfeJQcOYMR1nnpGX3nwhfe+Fy7sg/Ofm49dP/s3TQaSN+9zwmv79yWXII0i0YujjxiB3akfYPeBsu3M2KHloovOwYUXZuLKK0udn/m7hxUVuSddLjvOO+8MsZ21Izp/1yKQNHnD/SEquG3IvL9HIKmw7Hb+7mGFv+fNX958ncu29bPQuOkyLN18sFfyhuKr4pjLL0eYVScu5nvWaEv3IrYRTYRADKZrftWiRVwdpCaIOMKB6ZWIW7hwIY488kg4HA5ZCHCw+wZe4uQrIeIuL6fRi61fX7iXl1bD/Th6NDq8+qr4IvaqSiyHfv36YTm7SlnQt1U/rNi9HC3nzkVhXBySTONWem/XT6RnuSk9vvB3PEn+akS5M5AbOcQzPWkS+gqBmjVnDmLMruQD4Mv/+qH3ED/H8oFVGnuJeavFPHVOrPLrK299xfw8Mf8ghyZ5/6Bvpzvw75ofERtXamm47LK++PrrFeibm4v8d97BegtfGIFcNyvKPf8CpneF1zre29H+s1XMKzDmsQfmBx/0xejRpedk6dKlUsQd5acjhBVWx1fccUdfvP229X3mncaOjSZhf9aJyMovHYMymOvmj4SEBClS+Uwr+rb7GSu2iLw6WxlzDqZfv1Vw40qf+bOk+AD6tj2lzDVtJd5lTe6846C8eBNI3rzPSUF6OgaecAJWsKeRl5BrL7LWANb3F/O2fHlZwe7vWioCSeMRX3yBPWefjRyTnxmmW7wwxLbrPTMMWkb0Q2HYBCRlHfzxwPR8M2QIerBxcYDcdx9w1Xl28W514Yogm4kWp4v3xjrxbMd5rPiJiTGiHGqKkSO3ymlfeJ8TDlrRTMxL2/gdWjfbhRXbrGtHfJ3LeFHEtImxvm48J/nz5iHCSsSJdwkstrm03xGYiHqVs/KFGC3i6iA1UcTx5R8vXkQccmvRokXSShFJ076JZs2aYR97M/qBfqXY/kiNX33hhRfi22+/hT3IajiKPrevJzGbX4tif/XO4opl7PLe23kt9onf45FkGyb86sbAgUIopPwHDB2K58eOxY033ojGQfZ6KPdYPrDcTmWwaC9y9t6O72b/cJDbCJ/HU9uayV8LZPbEpFkT5TBs3byqxejrd+nCIk9VnMU+/eZNCGHkfCA+sd8xZpRS7jnhOJovvww8W3boNb/npGy0hH/EhwhF3AnGGJgB8dBDmPfiixjsI43sNMs28laLD0ojq9S9qtHZlky8BspQ7jmxYOPGjVi8eLEQ3F71YhbHNCOPxWEcOCZZoMcU+7Q14eqm9cV+xJ7K3UV5eWM7Q34jmL8jU1JS5NjOj3ME/n//lc9gGXzk8aBjUf3QX2U5Dv4CPv9iPXOGuZ2YIfselekR7esaGNufddZZmBag6yT6uuM4wF26dMW6dRtkU4dAkqqQeZPD6Hk28sqCTyzPCTfmvujknD4yLfB7LsV5WbHbLd43xjThiTvzTGSJezLGanwzi3NJXc/mmOJovo91CNBt4jRVQlZWFjIyMlBQUCDKx3S0a9cOjz/uGZfzuuuuO0jABcr/2zsTeKum9o8/zblvcyFFCoVEJJL0ylCGvBEhSjKLNChlLmXMmCRjChGVCplC9VcS0aRS0Txonufh/vd3nb3O3ffcM3fO7Zx7n+/ns+9Za53h7r322s/6rWdN2MdKldxIsjjsYpGdkZcYwQvDMgmJgnXmmGRrKo8UMhKGwkdJxmEjw677FZE984yAC1fZm7V+411vpFhNp+XQ343ECN7OAAGXqzgCzvXBBiVgaFRM4EgOFHCHBCpLxy6YSjkSB7a7gZywKx4rCh0MLCcZcpQCzx5jYqPekiQA9mVN5ArNQeAU2drL7xDdcLtIRpBxweR1sPVQwsBmJQg4a4JoH7M2XjS3LQdb4nwegxFCwEXD6YFLyzkCrmuonX32LnUakc+6ER/kBwIu1cwyqIhTkkLRokUlIyPDaS1e5hdsL730khF3sxKxBlYy8W48j0VjZ/sg4Ow0ExIOlj1/OwJkUNYmsalkKZgy6u7S3/ct5zzXRznKnsFCXm/Nnn8cg35SWAF38OSSOWMfrPbtTcUWy165IWndWuSDD9zIQbJ1iG+Ci4cQxTexFHYE8P4oZsPy0ND6iaQINjiCL7CsTJhg1GjLlm5jJ5nwDNKYYlFECxX7vggL6CYDFvcLskimFXJm4suBdx0RFzBD3wq4GHop8MBRpgNNkN2tIiYhx/3b017WOcXi6afdtHjAlhwMGd/LuFHfZG0GE2lm1uZjRUre60Z869qRL6ko4EBFnJIUEHHFihXzH0CXZ1DXdYww8YuJhLkC2y95xsQlhS3VRf6pLXL22UYzsnVnyoDVnj9fVrEm73+OdywZC2tFAffczizbu8y5xhOiEnDMojTLdSxzvpNbi5oxRdG7lEEk8Nr17296fFlY/6Bh3QWEXAToiYzIbud3mKmc25R5xBG3Ue5jyhgkKuZQiiDUGmVMpmAtmoME+2HKcySotVkU0e7UUaqTyKbQ4/4MKKqDFR2B8ByEcBsaIffhBTJ1esCg/jgE3MiR2T1wgSDk+MmYhJzDrpVPy0MHM9Ezc4ljg9xwPBx2vjRqcFnWtsxsqRFJkRX01VPoeLaPS1UBByrilLSjc+esMXFJ4z//J7Ij9DpxOKgSsr2OhaXMHUuBZvSs85oy0IXN6hdm+YJ1Ue5pgwd232qnZVslag8cPalmmTgW34tnH1zWRtvUy41ECefJmlyHAjYzZf+pKGDYnmc+QVRcf73Pg5JyoIB5iIIpAtYoi1Be2BmOrZLjgV401qCOCmpvJqiwtk4BX2M0LKweHDDrPtkULTJezmrcLGurKfKUvI1BwLEV1tVXR6FtnJ8MdduC4tzHoys5Av9goJHbxA3HQ4Gs4RnTjzSD2qKC/KRHPZUFHKiIU5RgHOa0+He4M6HwlMzL3kVFqzTbRtfxsv0vEcb3pLKl8J5bMRSmu2F9JPavdQSVU1tGKeASAmuj7evhRpKIkyc4aQ4a1u66N6vrJhxUnHSfhWTbZz6R7eHTT31lNVco/Khzzze5kSjggihb9tVPEJcjten337sRkbvu8m2VnCtwbiwXE6lfGnXj2SoroaA8mRgSCAPwiw8zp8g++0Zc2TyNEtavbtYs4BaEwXvbIg23Y8cOKdDIaYEcpFd9W2zXFAzO+Yw1LcNfKDaryLPmX7GwcrR5cihREaekJb16uQYiN2BsVwIWF80BS5jvPFnkvOyWAs3IW6kCQ8B6iKf/qeR0X+URDnTJRrb7it0KUleFGnOcFC6+2A1ED10zk385uErF1BSJ9ADuusYV2YeIMr2de17WjcQANSUuHl7NrMAgmyTTrxXXqsfZYW9TZvrGDOfGsAqGcQTboQJQy8kaC8G0/FC7updoYYYE/DGtgNm4JhatwxrpLFwQj1jhO3jOw/Uel2e96fLjRPbGuYh5oshwzuGjAtJI9gS2x7Pj2KwCZbrLueem2LCWMKiIU9ISJroaA3GIOJjZggZUmjthIBA0Y4i3DglMtOvZ8TmfmoMg2xBl40Hn5Hs6r3F64Bg2aTZOoL+MndKTCd2ZY8e6kejxD5I+WGIZixcj7EjAHIK0wAq5GGA8YqwV7W23hd8mNSycI0uwhdqhIrdB8LIQL/u+MSTAOT9EGbtHRCPkxjm6hvZLPALOwncZ/rprl5sQikIdRLa84UZigIkkbIUIbDnC7OZ4yGhkumTHZRaN2B5n6OWkSW4kDVARpyihyPjasU7ufoqMbmWPVgd2X1oYfs3K8LA+Aipt7yrHQCV6w8Uk8cor2ZdNKDkzuDdu7xKRro5ATUQXKv0Z7JQeK2VWOBVGPzcSAboz4wUXRJs2biRGqGV9i07FBPV10Cwxs1Kz7yfKNlfB1jFNKoXucmr2SDV6CFgLLGuf+Sy++y7och/Mosz18aNW8QR2rVIW/hd5WaKDgoGAgYangKPCAvZCZSm4K68ML+TYFhqv3cEIOAu/QTkLFHILFoi8954bKdvXyaN2biQGmEhSyl3HiR+LanZPEDz7YDOWmXlTgdj8QtymEyrilLSFNdpGjHAjySDjUqfld5YvzIhyd0/LgP3JY4MB0qyPgOVjr1RmvAWBhdXjGdefaDDM7YLZ3mJBtpRiqZTNVUWinKQYDvbIjXtyauFKzrk4Lf8kwexZZtGaAewHszQIsw5iBIdLUOekmZWahC7/WCnrCI31B6EcVzrPRaD6YE9TWk4HCWNYE9ZFRtcqz7IFd9TnsW0pFjMMBDze3djeNKCcC2LJliBKbNQon6YMJuQQKWwLnQgBZ7FCzr8XrUONGgH79RZxHuhtzFo6BHj2waYcVKniRlzIp1YttjmNkK5uSvqgIk5JGqxav9azY/0yp/ljj0TgW6MtEbMLcok//vANkI7CevqE06HfgBnD7N+pp3//7AOKSs3J8saxYTSzyBI0iYFNKpIuYtnGgMHoMcLs2XjXIzZQY2Rbaj/x4K2Lt+fpkEA5Ku8qABRyMPURBASJx8kSFpbPSMi8g0L3OuVmh+9Z5pk+VBzeIqwtQVPSXerNSuaGJMoDFwi/SSPDNHCCUfpBp1XI+kEHQY8evhZeLEydKvLII44x+8L5/75xEAxZYU1moFOE4TEfDijpNEKe9yWmESrilKTALg1fORUVW2wB25Sw9dbRRx9tjrTk11/lEtkV15INRmqeeWaW9WQWH7P50ol77vHt/WQp6ltx9d2+zp8tThgBR00Z4wrxYaHr2aw5kgTYpzdKsRASFmHt1s2NxAB7JiWI+axHWzr7aH28dZ6d93KXAnFeW4GivlcUMi5g596YKtfr8QqA8UseJ0vuwLZu690uTOeZ/pY0ViDODb75xredFW2AKJQYwz3Zyo9iPmZMV2ncOKqvxQ2/XdTcxm+9k4mzKOq0CLdHt/WXmUBS+Ak34tKzp8gRR7iRKCED2I2FbRS3+RaLY/KYyAtSsmRRMzz5oIbHHGJ079Q8SCrunbpz507nYZnvPOSZTmu4plkMOBDfnoCxwvY8nh0WEsxv3w2XmXNqym2dsprwmRJfxe/9FoaYfSHDw0JYTCaIMJEgqex0jqzuMYyF9zpecWxjx7uyriXw/YODZd6vdn7zpJh/81Xnq40aiJzm374055lFOteXeol0bpd1bT6oQVkwL0tYxnLN+Jqof5ubWHZM5RwnOctSYu9ErBxwrqVglN3qXPcVNzgiI6DSZxlGGj+RryKaa2WgEztKOI2MBOB9fuPN6cTe70hwlpBbZSJ0rkRn+0J/Lpb8Zrlxlpg7xsQCfxNXNfWk79eiPS/QvVOVfAeFHmF5+umnS5cQ60cc4bSw+FwsxzXXtHHE4gEnzP+I/uDBDZYeeNRt3EJubXWKP24eeO8HojwwE97zBm882PH00x86nzpN3nkn+Puhjmh+O9gR+D0n5rwWz542bJhkTp/uj3d8xLk2x/D53w/4jVDH0KFDZe7cuUHfyzroTvZN07Vp3nC4476HMuVUR3cTdv46B3np+Qx9Snv3ZsUDjz2LjID7Z7HzLce423SRCs7rkKzPmbSs9zloNI0fPz5bmj1oulwVJJ3/sXAJP+/8XhRHgcO94ez/v02bTNnutG28acGOwPOO5pg3b54MGZL9+oMdsZR3+HJszvThzhH4O8EO5hgMHpw9DbLHGzmvLbKlBR7r16+XXr16BX0v8PD+fjTnmONw7vfbDKf03NNoj8D7Hd3BrNUrgqSHP2rUqBE0PdLhs68h3iv2nmRuHxf8PU9eesPeQ15+WTKXLcueFuKztzrpR3vi3s916dJDtm7d5osf2OuooVb+98IdqYaKOCVXYB/VE1iN0uHmm292KpnQG1zneTJ3O0/enW4kPGvXrjOrUPSLcrJl0mFLiRy7SacuOHd96wneZLZq8zt7WVk/1MA2tgnbXM1UmCcwr6XIS8Fn4lqY4dqnjxsJw61OlRJsZD2/XeR5Ob6uGz9I3n/fN2ExLTBj4fD2xg/zhByTkrsUuNL5E2eFzjWX+lvuvN+N5zdKts1aSD0eOnXyzVyPxGKnBfbUU27EpfhHInuCLBS3vohIORp66YeKOCUp0I06YMAAGT58uHmla7Vp06YyadIkI+K83b35jvXFHYMR/fpnNP46dMgaiJuyYFwTLM7NkDhGRrFuQhxs2iRS1l1/liXh2Iw7bK/9vlWOgAvYJqx0Z9/MOqfyDTqm+vDDRbp3dyNhYImEwJH1VOhsHl86/WbFhaXCAaecN3MjESjgPA9JZOLEJCwbUX6Uc+/iqD6536WXiBR1Z5nmV4o5gmmXb8mmoGQ6wp4JJAcDsxUCZ0eVuEFkSwrM4k4gKuKUpHDJJZdI+/btZeDAgdKuXTspVKiQjBkzRho0aCCz02UpbEuxd0X2Oq26QwhCrqtTz0fj8EkEYbecYZ+eYOus9O2bcBcQM8dayekxr8GFUNteYKaULuxUth5YIHrzWR3o7HFTPOxn39VK2QWcpfSDsmr1Y1LBdJ7FAZUJngEvRsA95Ns8PkZWrvRldyDJ2H89Ppxry/zCDYeA6y+fmJPF2/rgg24kAPbMZwLEIccIuGVOgyBgfYv8SMlWItt8SzYFhYkjTCAJxYABIksYfxAC3O69e7uRvI2KOEWJRMlbfd1riaLAJW4gNhBVOHxyQ8gtX+4GgtGkSULW7UoWCDgmN/6n/KkiO3NOISj1Wz+zaG42j9yBLSIbDw8u4Fwq1erlW3meyjgQBFq43SVY9M672Se/UegeR8AxeSN2jjrK5/gM5BDsv35wFEjMyeJtfe45N5KK+AVcms7MTwbFh4jsjrNBzxo64bbe4AF5NJbZ/+56oGmIijhFyU3WlRIp/40biR0r5FK+azWBsMXVlzLRjYUHYcbSb6y9Gg7Ws+JzRsgxRnFD6bACDn3GLmBm5fmCN+YUcgi0ULtLcLNWefae5bsFrnF+q7+bkEcpv8MRxiG6xMgDulyTDGXniwgOwfiJcqkLI+CWqIALpITzHG1NwpYbmzeHX2Sy6Bu+ca+WdWc7ZTFM126KoyJOUXKVre5r/NiuVXoUkgHCJmRXqoVNGidPdiMODCBmwFkSYB7F/6RBxFVd7Xln87AF4rk4EzzgCDjGKIYRcIA+84+lLjfE+XILX+UcDdysihV9YSPg/ucInMQvUh3VfctNChwmst+uFO0h064jGGX+RQmLzLKbhpc6dUSuuMKNJJoKq52yE2HpJu53qQXahRoKhqrkmGjAQ8zEkQgw22vFCjfioUyZnBMavJS6yzfu1Y9vLdN0RUWcokRDkRdF9jlGO0WgsmbtXf/ehLkNS3Sce64bcaDrggFnySTMqq4hBUwJR2juCLbqqMP+LUbA7SmVGV74BaP8MMd63p5dyM2dm3M/VCoau8sFny14m/PdxGzP9M8/IoMGuZF0Yn3hiKI5HphsnKx1oUOSaZb6DY4RcHNEivpm5StBYKhK4EQDJowwcSQS7duLBC4cz0xxpvPnI1TEKUo0lL5fZJPrTYmX9Y0T2oWEaGHVCt/q44lh/Xqf4yjVmDlTZISwNUFOwnqgip/jiDgn34FuFpQvMIlho68LlXWnt271/U4w8HgGzkkwlHtbpNADWULuJKcyuuEGX9jCtGLG7vAZPlvuHfeNg4fNM265xRdmUnC8e/EnlXKMNfQUKLaryiWYlYrD+JDA/S7pFFp3VxMlDCzhs9vJq0TAFPS3necyH6EiTlFyi0w8QiGUQpwgXlq3zukAihf2LH0+2u0DR48WmTHDjSQXtqlsIWe7sSwQXlHPxqSbhf1f963MMYmhRAnfDMdgQg7d552TkI2yfUQK98oScl5ee823Lhzv8Rk+myQ4/8GD3UgqUbCkI5g9Azg3/CcpXjgLYtw2QpiVisM41zECbppIMafQKpFhCZ+tce5K08t5rnwLQfo83mwWGw0sGbTTKZfrnfJZPtRmr+mBijhFSXMQcjiAPvnETcgtmjUzA9bmE17mGSicRIa5r4DgwgMV02zMvUtFNlUOKiSY4UhvTCiPXEjKPOachKN8qbx//923sT7cd5/IEac47znijc/kd+i+TjKI2Vyd9FN+l2z8xw0DZaDEH46AS58FsVMC9pHeZZctimFv1Mec58oO48A1zWax0VD6QXnhCedWmV23Qiz6nSaoiFOSAtuT9OjRw2kVd5W9jDh2YDuitm3bOg2m7Jt1pw2FH5bbAgZOR8t2ZjYmaE2sYCDk2IP74IRc/7h6IqrzJ3BsShKYN49pIb7N0BFa9I5GtSxdxliZjZeKvbQ3HxvWE8S6vUwkzRJyi8Ivt2Jhsd6ir4hUOVMaOtFjWJiMhYFJK/2A+UgymDWLv0vkkdiXmss9ym6WtYxdd7uvc4eJ8ltujFcvUEzKlHLDVsAVP8NNUKKmTG+RbfVlF/MUmDASIwkcUZJ2qIhTkgIL/T7xxBPywgsvyB133CE7duyQww47TAYNGiQf5fro4wRR5il5x6mT4yGDPeQTtCZWKKyQE3Y4iIt7Yh8T/AEbQOYONWqI3CqnGIG1caNIKVt5RiLjYql5ufPKcLgoRAQTSVlM1yfkqkrlyiY5MqU6OqKtvxFvxxkB18+XlkRqmRUaqsiTT5poalKolFQo54ZzAd+uGg2kboK2MYsK04U6XQXcwVDwTinG5sKxct99ciOvGMB8SIEpkyblzyvPw1SrXj3btlZ4wC69NMJU+CSxZ88e+fzzz+Wkk04ymykXLVpU5syZI8ccc4yULFnS/ZSPAjH3Y+U+bFwdL2xcnTsczCMd+z3gv+XencuUDdJeykqMa6w59y32/O/hHD2dI7arm/eLUx85zePqOYfwJYncvQPxwHOTe+Ufci9PuLbBQ0Xa3ucmKHETbzmJ526v/Uuk48MiH33mJsRAKm2EryIuD5IqIm79+vUyZMgQ6dChg0yfPl1q1aolhQsXlrlz50rlypWlVNSuFEVRFEVRAtHuVCUpbN++3Qg3BBxUq1bNPxbuhx9+UAGnKIqiKAeJijglKZQoUUIeeOABqVOnjlx44YVSunRpGT58uNxwww1y2mmnuZ9SFEVRFCVetDs1D5JKY+IURVEURUkO6olTFEVRFEVJQ1TEKSnBV199JcuWLZOZM2fKP2wKGSV89u04FjdjJiwzjGKZEfvvv//KF198Ibt375aj41gXLdZxgMcff7zMmzfPHLHMhrr88stl3759cv7557spkVm1apX/f115ZRSbT7t88sknsmXLFtm2bZu8+eabbmpkmjdvLrt27ZIHH3zQnGu0fPbZZ3LzzTe7MZFRo0bJihUr5Pfff5eVrAsSglatWmW71+XLl5eXX37ZjYXmrLPOMtdoseWG74di06ZN8uijj8pG1kFxWLp0qXz99dfmesuVC73WxtixY6Vz585uLAv+54EDobdru/vuu7NdG2F7L8N9j2EN/dnBwoVhD9yLJk2auCk5Yaxrp06dzLMA3nJDHofi559/NutGWgYPHmzKzebNm+WDMMvUdOnSJdu1cY7kI0sY7d9vN9LPDvn97bffyoYNG8y5AhOquG/16tUz8WB069ZNVq9eLZMnTzbjeeH66683M+nDUaxYMXMu3HP48ccfZdq0aeY8Qj0TnMt5551nvmev79RTT5WdO3eaZZjWsOp0EChTPANbt241Q1MsCxculEasTRiCnj17mudkxowZpmeGJZ+4J/behaJChQqmTDz77LMmzmoDffr0MeXgmWeeMWnB4Jq89tX+H45QecI1URbIA547OPPMM83vPP744yYejDfeeEMWL15sfpuVEDjf1q1bm3O9+uqr3U/lpGbNmib/sUFAuaLc8Pzym6Gw53TUUUeZOP/v9ttvN8/CoUC7U/Mg6dideuSRRxoDChdffLF8/32ITcsD4GHis40bu/tjxggGkwWIY8UaqWi55ZZbTGUbrhIJhP9hjbw1htEwYcIEU0EUKlTITYkejDsHxjsaHnnkEXnqqadMmAqWCiwaunfvLs8995wJY3ibsftDlNx///3y0ksvmXCZMmWM0YVzzjlHfvnFrvqek8B7hogLJposVAIsiYOIozL38uqrr/on7QTC96gwObeybAPhoVKlSmHFJhXjQw895MbElE3KTsOGDaUg65aEwHtt3HcW2A5Xbqh4EDaIuHvvvdek/frrr6aCClduqOgQXvyviiyo54K44PwY+xoKKu+77rrLhL33nwrwnXdC7ynrvTbECAcgjC+77DITDgX3gMYhtuWEE04wworGFOnh8JYNRBy/EQmEF+d6OCtGu3B+nGc4Assh9w4RePbZ4deoYd1NBA958+6778qHH34o48ePd98NDf8LQU1jlOc8GjuBTeAejxgxwpR77FI036OBzTqhljZt2sj777/vxkJj7/l9990n/fr1M8tSVa1aVTIirO6NDWJtUsZiw1tvvSV33nmnCYeC/4MAwwZNnTrVpPFs8IyEY+DAgXLrrbcaQQs0Sqywy03UE6ekBN6WJxVgtISqpKKBCokHLxbWrVtnBDIGMFrWrl2bzeMRLQhvKkwEQ7T/D2PLYspUqHjkbOUXLVQc0Qo4YEHnFi1ayCWXXCJjxoxxUyPDOVIR4HnFixAv5I8Fz0siQcAFg3ITrjIJ9j1EAJVuLLuV8By8xv6rMYInjXKNSKI8BINKygtCGO8Yz1PTpk1DlpvixYu7oewgoMMJuECefPJJUz5pfFFJRwtCkHKD53V5hK00uB5EGx4e6wXHE8r9CwdeoHDiPhicE95Br4B7+OGHTQMlHAgjr1cf7yietkgCbuTIkf7GAJ5zhHA08LuIRhoaiEtv3oSCsnDFFVeYZaG+/PJL+emnn0x5YTeecFiBacFbT6MvEnikbX3QsmVLY1/++OOPiAKOhiuNyFNOOcX0mOCFjtQ7ULduXdMLROOKMmW59tpr3VBwTj75ZH9Ph9dhcihQEaekBN7uqdxozfz111/y559/hvSmBAOjgMCh5cVDHC14DqZMmWLE3Lhx49zUyGBk8eR07NjR77WIBIYOzw2VMS3zWMQm1xfrbhqnn366mXVMNwTdv9GCqEHQUGmxfmC8eA17JO9KIqCbjXUOo600gXzFm0OlhtiJFgTcb7/9ZiprvKvRQrkhL+gmeu+999zU8DCbnGtC/OO9iKXcIGBGjx7txqIDoUvlSYUdqXL2gseEcoPH8MQTT3RTc0JXI14fBArXhlgBxAfdn8FAcODxJM9jAaFMF+Onn37qpvg8Qk8//bQUCbOxL/8HD6EVDLZRg9c3XFc/3lmEG7aBbkQEJ3aFe/b333+7n8pJ7dq1jbcVjjjiCPM7lJNwQgevIGLNetjxcJFH2Gue+1DMnj3bdG96vWA0+MLdM8DWXXTRRUYMIzR5dvg/eMn4zVBgRyZOnGjC3F88oORtOC8c+Y3njUYLttJ7bkOHDnVDOaGcYAMieepyCxVxSkowYMAAY2BpOb/++utuamRYUBjjxWu0XjUeQsaGsHYd34sWhNj8+fONiMN4RgteuAsuuMAYJl6jBQNLBUGlbLu8ooHKC28D44lCVVjB4PrYVSMWGNtGBcl50qqNFiphWvYY9ljyhPtFxcIrRpiygjdjyZIl2SpRL3zO3mdeOV9ebbkJBZ4D3icveeV38BpWqVIl7Pd4j7JIeebcEGCM3aTchKtk+R4Vl32la5W8wUsQanwjlZw9F/uKgOd+4AUKNU6N9/m8vTY8c3g8iDOOLFS54bN4Pzms53PSpEnmWQoH37P5zf9g+SHylzyhvAaD55TPg32lsqbcIFARE8FgnCQCmPPjewg5hjIgomm0BXZxWxCwfJfv8F0qacK2vIUCQYVY4DNW0A0bNszEQ32P3+Z/YBPsZxD65AkNTBpHwWCNzRdffNGUK75HFyNlhIN7RpdxMCgTCDG+w//leeG+cb7YiVAgtvEo8j2eG7r6GZ5D+KqrrnI/lR3uGwKO6/FefyRPPfYHT529Nv43vRDkP94/nrtgcB6IWL7DwedpVHDfsfOhQMhy/Xjg6tevb66LRhr/P5wHvFevXqYs2XqK/0me8szzmtvomLg8SLouMcKDwYMbz1iu3ITKOTe8PoBB4X/F2m2MMQk3iD6RUCkjcGLtVuDaQlWosYAhpqsy1jzKTajYED65WW7iydvcLDe2uy0WTxzEe465eW3xghAgPwK7u5MBDQD+X6xlknuGiIvUDZsoEEnhJhIFI9pzDLTl5An2LFKZjOeckoWKuDyIrhOnKIqiKHkf7U5VFEVRFEVJQ1TEKYqiKIqipCEq4hRFURRFUdIQFXGKoiiKoihpiIo4RVEURVGUNERFnKIoiqIoShqiIk5RFEVRFCUNURGnKIqiKIqShqiIUxRFURRFSUNUxCmKoiiKoqQhuu1WHiTYtluXXXaZG1MURVEUJS+gnjhFURRFUZQ0REWcoiiKoihKGqIiTlEURVEUJQ3RMXF5kGBj4g477DA3piiKoihKKnL++ee7oehQT5yiKIqiKEoaoiJOURRFURQlDVERpyiKoiiKkoaoiFMURVEURUlDVMQpiqIoiqKkISrilKSwcuVKmTFjhuzcudNNUeJh/fr15ti2bZubogRi88gemzdvdt+JzPbt22X16tVuLDT8rpcNGza4ofRi//79OfIrFh555BE3FJ68kl/J5MCBA7JlyxY3lpOpU6dKp06d3FjeZseOHSY/LJmZmSZvKK+jR492UxMPtoL/FYohQ4aYI5VREacknEaNGslRRx0ltWvXluXLl8vEiRNN+iuvvGJegzF+/Hg3pHi55pprpFy5cmbJmJ49e8qsWbPcd3KS6sYmWdg8skepUqXcdyJDvh555JFuLDT8j4EDB7oxkfvuu88NpRe7du0yz6Q3v2LhqaeeckPhGTZsmBvy8e6777ohxbJv3z6ZO3euG8tJ165dw9rMvASNfm/jC/H2119/SaFCheTKK690U7Pz2WefuaH4mT17dlgRt2nTJmnVqpUbS01UxClJoUCBAua1evXqct5555nW1I8//mgE3YoVK+Txxx+XQYMGySeffGI+9/zzz8vLL79swojA77//Xpo1a2bi+R3ykgMRZ8UDBu6JJ56Q1157TcaNG2c8dYMHD86Whz/88INccMEFJp7XsXlkD7B5MHbsWPnll19k69atMm/ePPMeYcoh+bZq1SrjjUMgjxw5MuQ+w0cccYTs3r3bjfnYs2eP3HnnnfL111/Lgw8+6KamPoF5tW7dOunSpYt88MEHRqhRsbVt29a8B+QltGjRwrwSpyzScOjdu7dJ83LuuefKJZdc4say6Nevn3z88cfSuXNnf6XN7/Tt29fk4969e41NuPjii8170LRpU2MP8nJZ5vp79eplnvFFixbJV199ZdJ5nrkXN9xwgynHl19+uUnPLyDmKC/kQcuWLeWbb74xZYNy8vbbb2ezd9QvlBVAfCHQ7r777mxlqWPHjm4oO3gBp0yZYuok8pr/++qrr8p3330nw4cPNw2fHj16yKeffppyDRIVcUrCQVRQIfBg8RAArakLL7zQCLrKlSsbg0UlYUXc0UcfbQw7DwsVKQ/eiBEj5PPPPzfvKz6uv/5683rSSScZo9K+fXsj5kqUKCFnnHGGycPffvvNGLuLLrrI3IuZM2ea7+Rlrr76av9B1x0HxpY8IF8KFgxv6qyYad68uQwdOlSmT59u4l6uuOKKHF6BJk2ayFtvvWWEH2UW70qq061bt2z5BTSiXnzxRbnpppui6rovXry4EWR4KYoWLeqmZufLL7+UCRMmuDEfCDYqSSpfnm9APFO5ko+IQso4lSkib8yYMeYgb7kveGzyIgsXLjQNW0Qc12vFGs8z6QiZxo0bG7uJwMiLXHvtteYaOQIbUjzPjz32mFx66aVG0BcpUkTOOecckz+UH+oZ6hfqi2+//dY873id33jjDXnzzTf93funnnqqeQ2E5x+vKHUSdoOhQB06dDD/j4ZL69atjZ297rrrTOMvnPcut1ERpyQcHggqBLpIEXKPPvqo+44P3OC0aGgpMSbJC14RvCW//vqrTJs2TY499lj3HQWs6MUw4f0hDwNZsGCBESHkIUc6CIuDhTJlD7oIMdq2WzUjI8O8RoIhAIAoCSUWEB52eEAgFStWNB6+VKdPnz7Z8gvwQlhi6Y4G8ts7nslCRUteeSs87MHkyZNlzpw5bkp2yEOwonv+/Pn+crxkyZKg/ycvgJfXEniN3vGFlNG8Or6QLni8jRzYNi/ly5eXww8/3Hh96Wb2Qrmg2xWoe2zZssMkjj/+eDMUYvHixaYBEYoqVaqYV34jXDnjXqVSOVQRpyQcxg9ZMOS4vr3gpqZFc8opp+TonqpVq5YULlxYzj77bKlbt67pjlV8rF27Vq666ioTplKjtXryySebuJf69etL1apVTR6eeeaZJk/zGxhwuqUAIw8YejuQPNhYJDvekK6YYPkKjKH76aefTIUCderUMa/APSlbtqwbSy8oS1Zs0VUPtmIMha3I+HwoTycTIezgfBoT99xzjymfVITReDPYgqhGjRqmLJ944ol+kZefwE5a7xueTVv28hM8k5QZvHF4f70T5ngG8Y4B6XjyAqEeouHr3Y4yFo455hg35LMdkZ6N3KTQHbfd1tMNK3mEsk6rxdvFQSVGIc4teIheeuklM5aAh6t79+4mnRYWY29uvPFGeeaZZ4yHpGbNmqb7D1FHGmMaaH3zfbpWcZnnZzZu3GjGc5FHdDnbMR+0TPF2IlYwbniAELyvv/66yUu6FAYMGGA8m2eddZb5Tl7F5pE98ELSbU9rnu45ulkQbwhbPMCMz6TLDoPPnsI0Mmh941FiPBh5RjepF/4H4gMaNmxoDDlxxn1RVvEi0DXJfUllEFI8l978wtvN9dJtx4zIChUqmPxD2PHs/v3330ZA1atXz+QNz+SHH35oyiMD7xnLFigs1qxZ4/eE8IyTf6effrrZx5n/z/i2L774wpRNZibavMVWHXfccSYNm8U9w/v5zjvvmPcRNHkFhBkNs0qVKhkvERPBgK5Vuv1smUPA9u/f33Sp0r0XzUScdAORhsCimx5oIFCGEO14xWmI0gVPHlDWKAfFihUzYwlxGtDFir2jC576h7GqPNclS5Y0v0ejjN+mbHmhPJP/PP///vuvEWvcF86HfKY8Un5pPD/99NNmrOJDDz0UtXc/HijzsaAb4OdBdAN8RckCsYaXjcowFFQYeJMQMPmdZ5991og3KrZQICYYd6ko6QCTIO644w43ltroBviKoige8OjY8W6hoGWdzNZ1OoGXLJyAA+tdV5RUhzGYdkJYXkQ9cXkQ9cQpiqIoSvqhnjhFURRFUZR8gIo4RVEURVGUNERFnKIoiqIoShqiIk5RFEVRFCUNURGnKIqiKIqShqiIUxRFURRFSUN0iZE8SLAlRlicU1EURVGUvIN64hRFURRFUdIQ9cTlQXSxX0VRFEVJP3SxX0VRFEVRlHyAijglV9m2dassW7JEFvz1lyxdvFjWrV0rBw4ccN9VFEVRFCVatDs1D5Jq3amZmZmy3BFuO7/4QmqNGCHVnLQjnGODc6x2joXHHy8L27aVmvXqSdGiRZ0URVEURcl/aHeqklLs37dP/hg+XM5xRNodjoCr56RVcA58b2Wc4yTnuOKff+Suxx6THd26yZp//3VSFEVRFEWJhIo4JWnQTTrlzTfl3v79paoT3+UeezzHbufY6RwUxGbTp0t5R8itXrnSiSmKoiiKEg4VcUrSmDJmjHQaNkzor0ewhRv5ts85EHPnL10qpV54QXbvQu4piqIoihIKFXFKUtiyebNcMXSoFHDCsUxbwDPX8I8/5I9x43wJ+YgFCxbIAw884MZ8EF+9mpGDwVm/fr0bikz//v3lzz//dGN5lx9//FHeeOMNN+ajTZs2snXrVjeWk02bNrmhyDz33HOyfft2N6a88847Js+9bNiwQVq1auXGFC833XST3HDDDf6jR48e7jvpyZ49e6Rly5bSvHlz+frrr91UkUaNGpljyZIlJs4zZtNmzpxp0hYuXOhPW758uUnzsnLlSrn66qvNb+9yG/Y///yzeZ5vvfXWkJPiHn/8cdmxY4cbE/n+++/lrrvukvvuu89Nyc7nn3/uP4/BgwebNGzr0qVLTTiVURGnJIUp334r1VasiEnAWRB+/x0+XPbtwz+Xv6hbt64b8nHFFVe4Id8EEYzfZkcgA+Ju2rRpsns30lfk77//lvnz55sw8D5GEHr37i233XabCecHvAacSubGG290Y2Iqg+nTp/srhVWrVsm6detMGP766y9ZtGiRGxNZs2aNLF682FQYffr0UXESAOXuww8/dGM+ChQoIP/q+NagIA4+/vhj//HEE0+YdMogDTkb9j7LNL5sfmIHEMlz5swx8UPNiy++KEOdBvvIkSPlp59+MmnXXnutjB8/3hw333yzSXv44Yf9aR06dDBpb775pj+tdevWJs1Lr1695LPPPjO/be0XIu7999+XgQMH+vPOC40s7zNq84v/1bdvXxkxYoT7jg8aIKeffrr/PJo1a2YmA1q4JyucusyC/Z0xY4b5Xdi5kz4kMfeD/2NBoPI9a68BWzJr1iw3lhhUxClJ4XinQCPG4uWof/6RFcuWubH8Q9OmTeXXX3814cmTJ0udOnVMGF555RU57bTTZOPGjfKPkz8lS5aU4sWLmxm9tEyrVasmJ5xwglx55ZXm89dff72ULVvWhB977DHzml+44447/K3oUaNGSY0aNUwYb9zEiRON0Z40aZIRwKVLl5YiRYqY92mJn3jiiXLMMcf4K4i7775bjjrqKClYsKB069bNpCk+qOC6d+9ujm3btrmp4i93SvQgSo499lgT/uCDD6RqVUYS+8pkrVq1pEyZMqYsIx769esn1atXN+8fah566CE3JH6BsnbtWvMKtnfh9ddfN69grw3BBXv37pXGjRubsIVG0xlnnOHGxC+kKlWqZF5hwoQJbigLyqIXBPG5555rwjzD5J2XF154QapUqeLGfGX3v//9rwkjILGp2FtsB0Ka86hdu7bccsst5jM0YoYMGSI1a9Y0Yha+++47c7+wGwhWruWrr74yq0Sceuqp5p4mChVxSsLByJzqFOyDgZmr+XGmqlco9OzZUwoVKmTCGMf27dubMIYe48Jn8XhwVKxY0XyWNISeJb/u1IHAfeaZZ0yYFrHlm2++8Rvoiy66yHSj2HzE0NJ1Q7hw4cIyzu3Sp3VdrFgxE1ay07FjR1PpIXzbtm3rpiqRQAzYw3pqsJt2iSVEDWHeYxgE0GB76623TLhcuXL+hkeqcPvtt5vnKRDO2wvP2HvvvefGRKZMmSJvv/22eR6B7lcO8qNUqVImDRBTgHDD62XzBex3gkGPDs9zKKxHPhh042IPjjvuOOPRx84izvAGItos1tNP43D//v1mOAf3CNvSsGFD8x7e6t9//914+2h0JwoVcUpSKOlpicUD5mlPPp3cQIuV7kDGGlkw6N7xH1bcWbxjtPJjN3QwMMC0whkLYyEfbTcIeNdTxOBigJXooPJjTBceTQ48Q94yqoQGMWAPPMHgFRpW+CDUvM8zZRRKlChhXlOFCy64wNgrBA9YMQq//PKLeaVsPPjgg6YBaj9HV2S9evXknnvuMV3LgFeMAxuHB8yCxwvoFj355JPl3nvvNXGw3wkGDTrbFQ3WK2fBWxaIFdb2PC1045YvX978RuXKld3UnJ/zdqtam5KRkeEfd8d4vkShIk5JCqvdboF4YZRBRooZqtyCFt7ll19uuvQseDpovWEIcdUzPgTDwZg3RAmVAS1FWvDe8VwWjBjjMRB7XoOWl6F7Bu+Qt2uPrmYqAfKRcYKXXXaZqSwwuuQjrWTeo+sk2BhC8g7xgpHPL/kYikGDBplxTA0aNDDHk08+acYX0QAhb6i87KuSHbrkvEcoqPjxdlIm6bq23Y+pBBMzEGDcaw6eI7zgnC82yTYwL7zwQunUqZP/c9CiRQsj5PiMHQOIXbOiiC563mNMqh3ewHPN/2Cc3JgxY0ya9zv8tvcZRfAiHslDuju93b9AVyjCigYf50LYCutAENWUZ64LL6G3QeiFiRXcVz5rJ01xH2fPnm3OI5HdqbpjQx4kFXZs+OPZZ+Wub75xY7HDaKYZH30kFT3jHxSfUfO2whnTZbv6aLHTUretdSU0gfmI8KDCBAw0xtpWCopyqPGWz3SCRmWkbl/raQzV5RmsOzSe/ECghasHEWS2GzscXpsb7jftedN1bMfPQaTz0B0blJRgR506ZmHfePmzXj05omJFN6ZYArtRvGO1MBgq4KIjMB+9FQJGXAWckkqko4CDaMbtYbdCCTgI9l48+RHJkcEzH0nAgdfmhvpNJp8xa5fJaYGziCOdR6yoxVeSQr1GjeSnWrXcWGxsdI7lV1+tgkRRFEVJOxjCwSzZ+vXry/PPP++mJgetJZWkUMRp0Sxv21bWxzirj2HRnzVrJrXPOsuXoCiKoihKUFTEKUnjlDPPlMH33isbAqaYhwIBN8hpudRo1069cIqiKIoSAa0plaTBGIPz/vc/+bx3bxl3/PGy100PhJk1azIy5LXrrpMTe/aU4gkeM6AoiqIoeRGdnZoHSYXZqYEwI2f6Dz9ImZ9/ltP+/VeOXbJEVlWuLIvKl5e51apJ9ebNpaITVw+coiiKkl+JdXaqirg8SCqKOAvr5uzft08OZGYaTx2ijdlHOhtQURRFye/oEiNKSsPCqkWLFTMrkjNVW9fjUhRFUZT4UE9cHiSYJy5wqxFFURRFUVIL736x0aAiLg8STMRdeumlbkxRFEVRlLyAdqcqiqIoiqKkIeqJy4Ok8sQGRVEURVGCoxMbFEVRFEVR8gEq4pRcITMzU9atWy+TJs2Ufq/+Ia1unCfP95kmI0dOlUWLlsru3bvdTyqKoiiKEg3anZoHSbXu1I0bN8unn86TUR9fLYXleDc1i0zZLZVrfC6dOm+Vk0/O+b6iKIqi5Ae0O1VJKZYuXS4P3P8f+fLjro6Aq2oEW6bsco4dzrHThEUKycr5LaRru+YyevTPcuCAtisURVEUJRIq4pSksW7dBunVs7KsXnSBK97oMt3vHGx1D4g1wnuMoCsgJeWtl++RsWOnmncVRVEURQmNijglKTAG7s0BK+Tfhee53jYr3MKxxxFyxaXvM9fKsmUr3LT8w759+2TPnj1uzAdjBcnLRMDvsO1ZXoc8C8zHXbt2yYED0ZTByCTqfuQV9u7dGzRvyXMlJ+SL98gL44HZG3vDhg1uzMf27dtl06ZNbszHtm3bcqRt3rxZtmzZ4sZywvv8lpeNGzeGLV/ByiPnR1kNBf/He27E165d68ZSFxVxSlKYM2e+/PzDDU4oe2Uamf1Ooawoo0dtduP5h0WLFsnDDz/sxnw8+OCDsmbNGjeWk0mTJrmh8Pz7778yaNAgmTt3rpuSdyFP7r33Xjfm4/nnn89REVgQZUuXLnVj4Zk/f76MGDEi5G/lR+655x7p1q2bG/NBWtOmTd2Y4uXqq682z7T3SGd++OEH+fvvv80e2I0aNTJpEyZMMAKILRU7d+5s0l599VUjkmhItmvXzqTdf//9Rljt2LEjRxmCRx55xDRuV69ebf4PtGjRwmzfOH36dFm8eLFJ8/Lnn3/KRx99ZH7TwnmxzSPntX79ejc1i8aNGxshyv+6/fbbjUAkTFqqoyJOSQrjflwlBSTDjcXKfhkz4nynJRS6dZZXadOmjWmtAoaka9euJgz9+vWTt956S+644w4Txzi+8cYbsnLlSiNCunfvLo899pgRg4Dh+t///mfC7FF7ww2I6vxB27Zt3ZDIihUrsgmKJ598Ut5++22TV0BFgsijcpk9e7Z5v0OHDn7PAp+76qqrjFE/+uij5ZxzzjHpivOkOnl27bXXSuXKlbN5KF9//XU3pASjSpUq/uOYY44xae+8845fBCFCbHjkyJHSv39/adKkiYnjZfr666/97x9qGjRoIKeeeqrZLqphw4YmrVevXlK1alUpXbq0uUbAbvH8lC9f3t+YfOqpp6RChQpSsWJF+fXXX02al4yMDPP54447Tnr37m3SWrZsaf4Xz6H3ObeccMIJctZZZ7kxn/cP28lkv4svvliefvpp9x0fN954o4wdO9acA+eCbUDwAd/FNnh3POI6XnvtNenbt6+JT5s2TZYvXy6vvPKK3H333SYN7yq2t2fPnjJs2DBzz3g+rrvuOvPdL7/80nwuEaiIU5LC4kV1nb/xdzsVlLJmUkR+AwM0cOBAE6blWrZsWRPGtY8QufPOO00FOXToUHnmmWeM0ahUqZIRf88995wxdFacwBdffGFeMYT5ifr168uoUaNMmIqiTJkyJjxjxgzp2LGjMcS08mfNmmXy8YEHHjCt+yFDhsijjz5q8h6PCfz000/mt/A0UKkoWZBfVIx4Pn/++Wc3VYkEFb49KJOAp2n8+PEmTGONMBU/5Y78/e6776R58+bm/R9//NH/2UNN8eLFzSuCB7EF3mEbp512mnm1KyQgePr06WPCpCGgeEY///xzk2bhN6pVq+bGxIhC4HkMhz0fy9atW+Xwww93YyK///67G/JBI9gL3kMOwO5iG2gs48HDAz9gwABp3769/3q4PzSSO3XqZEQagg3Rje1FxP3yyy/mc48//rh8+umn5rvBvIHxoiJOSTime2ph1sMXHyVkw4bsYyfyG7RiLXRXWIOGwQjsRvC2yqtXr+6G8i8FCxaU4cOHmzDdLxa6YKyR53XmzJkmDFQaeAqU6KHBgVeIihhRrEQHFb49ateubdLq1qXh68M2IPAGn3TSSSYMdhzYySefbF5TBYYZIK5uueUWNyULb7cm3Zl0qZ599tluiq8rk2EjeLsBW8aBkPKOUVu1apV5pccBseRtNNjvBAORhRc9FCVKlHBDOcHDDPwGYFewJ3hH161bZ9LgyCOPNK/YFOo/ryC193fOnDny4YcfmoMGY6JQEackhYKFD3YAfaa/NZTfYEzG1KlT5eabb3ZTRGrUqGGEHDBo/8QTTzRhi7dVjlBRRF544QVj6C+44AI3RaROnTr+geS0qs844wwTBgzrsmXL3JgSiX/++cdUSHiIOfCmhBtsrsROuXLlTOVvsd6fVLKNDFdAJF122WVuipiuScuLL75oXqdMmWIEaa1atUwc8IoDz55tfGLLOBBM3i5W24jlucWjde655/q7L+13gkEXqfXeIbC8Q1SAxof1hgLCmYZJMN58800j4PCI4lEMhe36BsbowSmnnCKtW7c2B97rRKGL/eZBUmGx3we6rpe5U7PGEcTKAdkgz/cf4xT8rFZoXmfBggWm5UeXHa1KjBKtWLoDaOkxlgNvEZ97//33jUFiPBKVJ2NEEC3A5Ai6T+1vAK1H3PzMAqNr0Xqp8iJ0NV144YUmfNdddxnDu3DhQtOlUrJkSeP9oHKkG4VuEvLl+uuvN2EM+HvvvWc8AIyF4TkKzEcGYuMNLVq0qBm7lF+58sorZfTo0W7MBw0PuvPxrOCpoAIl//Nbd344Lr/8cjfkA0E2ZswYI3a6dOli0ujOZ1wmMH6KLsCJEycajyfldfDgwUG9XocCng/us+WTTz4xAozGE4KtR48e5tkL/Bw2CIHK2DI+f99990nNmjXdd30wCxV7xitd94g9up2//fZbI/CCCTeeURq6PJ+IScagTZ482UxIopHG+QXC7zAWDtuLTUWE2e5TxvQh2KhDuVdPPPGEsb2Mpf3444/liiuuMGMCgUZjvXr1zP9n8gZ2mzxo1aqVef+SSy4x4hPBipgLRqyL/aqIy4OkgogbMOA7GfNJ/N0r+2S+jBizyrkOHYOkKIqipA+MtaXLm25YRCzCL1p0xwYlJWjS5EQ5IBvdWOy0aPWdCjhFURQl7cAzh3eVWbp4pZOJijglKRx3XBW5sOn7biw2MmWxNLtS91BVFEVR0hOGGzAjNdm9YCrilKTA2IG729WWarWyTxuPRKask4ee/FaOOCJr7ISiKIqiKDlREackjRIl/iM9ehaVGmd85sQizVbNlCKHrZGuPT6RBg2yZgwqiqIoihIcFXFKUqlQobw8+VQFuandq1L6yFmOVGPvOruv3QEnvk8KF90ipzcYKK++NVkuuODsfLu0iKIoiqLEgs5OzYOkwuzUQJiSvX37DlmwYKnMmbNB5s/fL1WrFpBjj82QWrWOlXLlyvgXVFQURVGU/IguMaKkpIhTFEVRFCU8usSIoiiKoihKPkA9cXmQYJ64Sy+Nf/cERVEURVFSD/XEKYqiKIqipCHqicuDBPPEHXvssW5MURRFUZRUhO26YkFFXB5EJzYoiqIoSvqhExuUlGbPnj2yectmWb9xvXndsWOHWX5EURRFUZTYUE9cHiQVPXGbNm+Sb+eOkVlVPpfSdbfKf47dIbtWHSbbFxaXAtNOkBZlbpPqVatLoUKF3G8oiqIoSv5C14lTUkrEHThwQCZMGyeTzn1KKtTz7dTgdbyZzRmcY99WkZ0DG0q7Gt2lREYJ35uKoiiKko/Q7lQlZaCbdOiEITL7rt5S4ewDcmC3I9Z2iuzflXWYuHMUKi5SsuNP8uL6zrJ562b3FxRFURRFCYWKOCVp/PTH/8mGLu9KwcKOWHME2wG7ZWoAeOb27/WJuSNbLZD3Nrws+/btc99VFEVRFCUYKuKUpLBz50755ez3pWARR7ztdxMjYMScI+QKNhsvP0+b5KbmHxYsWCCvvvqqG/Px9NNPy+rVq91YTvbuddRvlEyePFn+/PNPN5Z3GTdunHz00UduzEfXrl1l69atbiwnsTQaRo8eLdu3b3djyqeffip//PGHG/NBuezQoYMbU7yQL+3bt/cfTz31lPtOesKQGa7j4osvlsWLF7upIo0aNTLHrl1OC96BMmHT1q9fb9J4jmwadUYgpDVu3FhuueUW839g1apV0rRpU3n44YdDToobMmSImTRnWbJkiTRv3lyef/55NyU7ixYt8p+HLcuc49KlS004lVERpySFH34ZKxm1/wnpfQsFj2ShYiK/1h7hf2jzE+XKlXNDPk477TQ35GPLli1+4bZ7924jzGw+YRC94oL3rQF94IEH5IwzzjDhvA6G/bfffnNjvkqmYcOGbsxpKOzfb/KRV6CiWL58uQnDtm3bslUA5KOdRd29e3epU6eO+44CX375pfTu3duN+Zg5c6bMnj3bjSle/v77b3nttdf8xyOPPGLSmblvn1/ClEMLDRD7LEPg+4eSZ5991lzH999/b17hxhtvlPHjx5vD7hbkTbvmmmtM2t133+1Pu+yyy0yal5tuuknGjh0r7733nnTr1s2k8f/GjBljGrhvvfWWSfPCb9atW9eN+eA3Ro4cKZ06dTJhL3PnzpUVK1b4z6NMmTIyZcoU912fXfXmPfYX+2GxdoT7wX2xYDP4nrehjS0J15iMBxVxSlJYWHGWo8bcSIzQuMqsNlNWrFzhpuQfMGTz5883YbxmXvHRpUsXKVWqlJmosnbtWr+wQKQ88cQTJszs3jvuuMN8/pJLLpFly5aZcKgWaF7l8ccfN3kE33zzjdSqVcuEMagYfvLxzTffNAYYQ2tb9LTEixYtaozxG2+8YdLId/tbzz33nBQws3EUoHxRthAiXk/KmWee6YaUaKE8btq0yYQHDx7sFwqUyRIlSsjKlStN44TnfdCgQdkabIcSPGKWDRs2mFfO1YJwgmHDhplXKFu2rHn94IMPzCvXVLNmTRO2kMa1W6ZOnWpeGzRoYF7h448/dkNZ2OfWsm7dOmMLoUiRIjk8n4jD8847z42JHHfccVKvXj0TRtQxKXDUqFHG3iLAJkyYYOzHddddZz4zZ84cc++4R1aQ483Di4ddQXRyLdOnTzeeypIlS2a7roNFRVx+wK2gcgsK7u7a/7ix+CjqPOOrVmcZgvwCBuPOO+804T59+hijA7QWrfG58MILjfHjs4ULFzYHLUmMSPHixaV8+fLmc1C9enU3lL+gkrBeAVreVngh6G699VYTvueee+Srr74y+Yj4pdxeddVVRsTRGh86dKj5HGKaHU9UvOUED9yRRx5pPB9PPvmkm6pEgjJpD7ryYOPGjVK5cmUTxjNcqVIl493p27evKXuIi549e5r3N2/ebPI9leA8X3/9dTeWBYLHC6Jp+PDhbkxkxIgR0qNHD9PwAq6Zg+exQoUKJg1q1KhhXvk8eeX1ttvvBIOGm7WjwQjnGfvvf/8rBQsWNCKPRgoCrH79+rJmzRpp0qSJ+ynxN5zpsqVhiHA76aSTjG05/PDDzXsMlSldurT8+++/fq9iIlARpySFzHIH50WjS3XHrqwurfzEM888YzxBdN1ZaMl519Aj7gXjYEHUKWK8b3gzvPlId4ZXjNmuEKDSwGAr0cE4QsTtwIEDzYG3kjxUIsM4L3tUq1bNpHmXhbINscDn3uIVN6lAu3btzLg4GpHgfcZogAJlA7FD49ReE2WIrlUaA7YRwDPLwWe8Y+xsD8Unn3xibNxZZ51l4mC/EwzyFdFnOfHEE92Qj4oVK7qhLLATEGgP6DLG23jEEUdIRkaGm5rzc4g8ixWQXCv/i+Pyyy83aYlALZaSHDZUcgPxsd95hg4rnvWQ5Cdo6dE96u1eOOWUU/yTHv766y9p2bKlCVvDhdHB4GMoJ06caNK80PVCdwCGJFW6YZINXjW8cV4jjfH84YcfTJgJCsQxwLSyef3ss8/Me4joZs2ambAX8g7hx/v5JR9DwYQGPAp4Njleeukl042E54O8oSzaVyU71nMUzoMEeLHseEOECF37qQbPGMMMGJZgnwm6UDlf7j3jI4EehldeecV8xn6OyRA8T9glO+kKDyQHMNmL8kQ3c8eOHU0aXZF4xGbMmOGfwOT9Dr/tfUbJQ8bPAd476820MAmCiRLYAL6HmPQ27rwwQQJ7gq31CsNAOnfu7PfwWRHbunVr/yS1Rx991LwmAl3sNw8SuNgvffjeVkNu0Hf2k1Ko7fduLHZ2rBBp+ev7UuXoKm5K3gcjQquNVibjOGhtY0w47DgtBkUfffTR/i4K4kcddZS534zBoAV8zDHHmPfsb9iwl1RryScSjKsdc8MMM7waCFjyloMwLfyqVav6nwuEMR6RYsWKycKFC003CPkK+TUfI+HNFwtp5Cl5bKGsUn4VH4FlCMhHW1bBG0YIzZs3z3yGgzhlPHAS1KEi8Ho4b+wQ3ijKAc8ZhHp2EEaAVzcYvI+Hz3YfI6DwyiHaArtqIdj/Ic/4DgLM22vhhS5sBKP1jGJvsb3YAgQqjTzKMTaXvOfgvnAeiEpAuDGshevnvLHLTMJo06aNSePcuLcMcwn03ll0xwYlp4gbP14yPPHc4IsfR8uizi9LwTht947xtaRL8b5BuxIURVEUJVWhQT1r1iypXbu28cAxQSJadMcGJQfe8Qm5xUX1G8uOace5sdjYt03k7NnXqIBTFEVR0o4qVaqYoRp4/mIRcPGgIk5JChmHZcg5v98k++IYNpT5dUNpUCdryreiKIqipBM4T3JjkpmKuHzAoRpYfH7dRlK+X1uzC0O0rP2smtxStosUKRx6SriiKIqiKCri8iSHSrQFQkuk1QVt5JTBD8uG6W5iCPbtENn2Tn3pUravlCldxk1VFEVRFCUUKuKUpMIMnIvPbCLt13wmJV9pLSu+PEy2LykomftFdq4UWTe5qKweUFOajHpdutbqLaVK5JxtpCiKoihKTnR2ah6k6gknmGnOFgZWemerHirwELKe2a7du8y6QExcKFqkiBx2WEbI6daKoiiKkl+IbXaqyP8DVpnJ2GxMHZgAAAAASUVORK5CYII=;" vertex="1" parent="1">
          <mxGeometry x="415" y="-413" width="625" height="386" as="geometry" />
        </mxCell>
      </root>
    </mxGraphModel>
  </diagram>
</mxfile>
